%TF.GenerationSoftware,Altium Limited,Altium Designer,20.0.12 (288)*%
G04 Layer_Color=16711935*
%FSLAX43Y43*%
%MOMM*%
%TF.FileFunction,Soldermask,Bot*%
%TF.Part,Single*%
G01*
G75*
%TA.AperFunction,ViaPad*%
%ADD47C,0.508*%
%TA.AperFunction,SMDPad,CuDef*%
%ADD57R,1.653X1.753*%
%ADD58R,1.753X1.653*%
%ADD59R,0.783X0.743*%
%ADD60R,0.743X0.783*%
%ADD61R,0.853X0.853*%
%ADD62R,1.593X1.193*%
%ADD63R,0.853X0.853*%
%ADD64R,1.193X1.593*%
%ADD65R,0.483X1.626*%
%TA.AperFunction,ComponentPad*%
%ADD66C,1.703*%
%ADD67R,1.703X1.703*%
%ADD68C,0.703*%
%ADD69O,3.203X1.703*%
%TA.AperFunction,ViaPad*%
%ADD70C,0.703*%
%ADD71C,0.635*%
%ADD72C,0.711*%
D47*
X103141Y59656D02*
D03*
X103988Y61290D02*
D03*
X95580Y68275D02*
D03*
D57*
X107086Y64389D02*
D03*
X105236D02*
D03*
X100874Y94183D02*
D03*
X99024D02*
D03*
D58*
X107061Y61692D02*
D03*
Y59842D02*
D03*
D59*
X100745Y59995D02*
D03*
X99965D02*
D03*
X104699Y57633D02*
D03*
X103919D02*
D03*
X101914Y58014D02*
D03*
X101134D02*
D03*
X94987Y64897D02*
D03*
X95767D02*
D03*
X100321Y65532D02*
D03*
X101101D02*
D03*
X101101Y66421D02*
D03*
X100321D02*
D03*
X102226Y64084D02*
D03*
X103006D02*
D03*
X93149Y71857D02*
D03*
X93929D02*
D03*
X117738Y50394D02*
D03*
X116958D02*
D03*
X117874Y74041D02*
D03*
X117094D02*
D03*
X122308D02*
D03*
X123088D02*
D03*
D60*
X103200Y61713D02*
D03*
Y62493D02*
D03*
X92583Y62468D02*
D03*
Y61688D02*
D03*
X93497Y62477D02*
D03*
Y61697D02*
D03*
X98806Y61831D02*
D03*
Y62611D02*
D03*
X100381Y62373D02*
D03*
Y63153D02*
D03*
X98831Y66911D02*
D03*
Y67691D02*
D03*
X97028Y66929D02*
D03*
Y67709D02*
D03*
X104800Y61425D02*
D03*
Y62205D02*
D03*
X97917Y67700D02*
D03*
Y66920D02*
D03*
X94666Y70469D02*
D03*
Y69689D02*
D03*
X95580Y69689D02*
D03*
Y70469D02*
D03*
X98882Y90517D02*
D03*
Y91297D02*
D03*
X102870Y91271D02*
D03*
Y90491D02*
D03*
D61*
X102938Y60579D02*
D03*
X101938D02*
D03*
X114681Y50216D02*
D03*
X115681D02*
D03*
D62*
X106604Y56420D02*
D03*
Y57930D02*
D03*
D63*
X99466Y58895D02*
D03*
Y57895D02*
D03*
X100152Y91661D02*
D03*
Y90661D02*
D03*
X101575Y90653D02*
D03*
Y91653D02*
D03*
X102972Y94929D02*
D03*
Y93929D02*
D03*
D64*
X99473Y56439D02*
D03*
X100983D02*
D03*
D65*
X123098Y52489D02*
D03*
X122598D02*
D03*
X122098D02*
D03*
X121598D02*
D03*
X121098D02*
D03*
X120598D02*
D03*
X120098D02*
D03*
X119598D02*
D03*
X119098D02*
D03*
X118598D02*
D03*
X118098D02*
D03*
X117598D02*
D03*
X117098D02*
D03*
X116598D02*
D03*
X116098D02*
D03*
X115598D02*
D03*
X115098D02*
D03*
X114598D02*
D03*
X114098D02*
D03*
X113598D02*
D03*
X113098D02*
D03*
X112598D02*
D03*
X112098D02*
D03*
X111598D02*
D03*
X111598Y71971D02*
D03*
X112098D02*
D03*
X112598D02*
D03*
X113098D02*
D03*
X113598D02*
D03*
X114098D02*
D03*
X114598D02*
D03*
X115098D02*
D03*
X115598D02*
D03*
X116098D02*
D03*
X116598D02*
D03*
X117098D02*
D03*
X117598D02*
D03*
X118098D02*
D03*
X118598D02*
D03*
X119098D02*
D03*
X119598D02*
D03*
X120098D02*
D03*
X120598D02*
D03*
X121098D02*
D03*
X121598D02*
D03*
X122098D02*
D03*
X122598D02*
D03*
X123098D02*
D03*
D66*
X80874Y65024D02*
D03*
D67*
Y62484D02*
D03*
D68*
X129718Y58441D02*
D03*
Y62941D02*
D03*
D69*
Y54991D02*
D03*
Y66391D02*
D03*
D70*
X119580Y47800D02*
D03*
X119080Y47300D02*
D03*
X120080D02*
D03*
Y48300D02*
D03*
X119080D02*
D03*
D71*
X99449Y89112D02*
D03*
X90988Y86614D02*
D03*
X96105Y88752D02*
D03*
X90988Y83941D02*
D03*
X98624Y85573D02*
D03*
X101956Y88824D02*
D03*
X89934Y85704D02*
D03*
X91694Y89764D02*
D03*
X105100Y66853D02*
D03*
X99688Y55369D02*
D03*
X103881Y56641D02*
D03*
X100081Y67504D02*
D03*
X97384Y68145D02*
D03*
X97917Y66209D02*
D03*
X109449Y50673D02*
D03*
X109969D02*
D03*
X102768Y57861D02*
D03*
X96368Y61595D02*
D03*
X95742Y48287D02*
D03*
X102311Y65989D02*
D03*
X101244Y62382D02*
D03*
X97739Y63398D02*
D03*
X87097Y61544D02*
D03*
X122238Y49161D02*
D03*
X115878Y46303D02*
D03*
X117094Y53848D02*
D03*
X121006Y50165D02*
D03*
X124968Y70028D02*
D03*
X97155Y56896D02*
D03*
X79908Y67208D02*
D03*
X78816Y54915D02*
D03*
X118440Y56058D02*
D03*
X117907Y57683D02*
D03*
X120142Y58115D02*
D03*
X115570Y57785D02*
D03*
X115011Y59792D02*
D03*
X113995Y55220D02*
D03*
X108534Y67564D02*
D03*
X120625Y67945D02*
D03*
X115113Y66777D02*
D03*
X120066Y67488D02*
D03*
X118923Y66523D02*
D03*
X121158Y68809D02*
D03*
X109474Y65380D02*
D03*
X108687Y64805D02*
D03*
X126027Y48293D02*
D03*
X126555Y48285D02*
D03*
X125311Y61354D02*
D03*
X124943Y60985D02*
D03*
X109982Y62865D02*
D03*
X109614Y62497D02*
D03*
X98069Y55931D02*
D03*
X85268Y55016D02*
D03*
X92075Y72009D02*
D03*
X90221Y81229D02*
D03*
X93760Y80924D02*
D03*
X97561Y70053D02*
D03*
X103175Y66878D02*
D03*
X96520Y65710D02*
D03*
X101575Y59690D02*
D03*
X93599Y65278D02*
D03*
X96809Y69289D02*
D03*
X103937Y58928D02*
D03*
X94539Y63322D02*
D03*
X105029Y59309D02*
D03*
X103988Y62103D02*
D03*
X94793Y68275D02*
D03*
X91999Y70891D02*
D03*
X93624Y70053D02*
D03*
D72*
X101371Y64084D02*
D03*
X101041Y61544D02*
D03*
X97815Y61595D02*
D03*
X99187Y60477D02*
D03*
X99720Y61544D02*
D03*
%TF.MD5,341eedc39eab0b5346a49b8c3d3ccb88*%
M02*
