%TF.GenerationSoftware,Altium Limited,Altium Designer,20.0.12 (288)*%
G04 Layer_Color=16777215*
%FSLAX43Y43*%
%MOMM*%
%TF.FileFunction,Legend,Bot*%
%TF.Part,Single*%
G01*
G75*
%TA.AperFunction,NonConductor*%
%ADD53C,0.152*%
%ADD54C,0.127*%
%ADD55C,0.254*%
%ADD56C,0.076*%
G36*
X113788Y51524D02*
Y51270D01*
X113408D01*
Y51524D01*
X113788D01*
D02*
G37*
G36*
X118788D02*
Y51270D01*
X118408D01*
Y51524D01*
X118788D01*
D02*
G37*
G36*
X114288Y72936D02*
Y73190D01*
X113908D01*
Y72936D01*
X114288D01*
D02*
G37*
G36*
X119288D02*
Y73190D01*
X118908D01*
Y72936D01*
X119288D01*
D02*
G37*
D53*
X111176Y53376D02*
Y71084D01*
X123520Y53376D02*
Y71084D01*
D54*
X107721Y66497D02*
X107848Y66624D01*
X108102D01*
X108229Y66497D01*
Y65989D01*
X108102Y65862D01*
X107848D01*
X107721Y65989D01*
X107467Y66497D02*
X107340Y66624D01*
X107086D01*
X106959Y66497D01*
Y66370D01*
X107086Y66243D01*
X107213D01*
X107086D01*
X106959Y66116D01*
Y65989D01*
X107086Y65862D01*
X107340D01*
X107467Y65989D01*
X106198Y66624D02*
X106706D01*
Y66243D01*
X106452Y66370D01*
X106325D01*
X106198Y66243D01*
Y65989D01*
X106325Y65862D01*
X106579D01*
X106706Y65989D01*
X108737Y59995D02*
X108611Y60122D01*
Y60376D01*
X108737Y60502D01*
X109245D01*
X109372Y60376D01*
Y60122D01*
X109245Y59995D01*
X108737Y59741D02*
X108611Y59614D01*
Y59360D01*
X108737Y59233D01*
X108864D01*
X108991Y59360D01*
Y59487D01*
Y59360D01*
X109118Y59233D01*
X109245D01*
X109372Y59360D01*
Y59614D01*
X109245Y59741D01*
X108737Y58979D02*
X108611Y58852D01*
Y58598D01*
X108737Y58471D01*
X109245D01*
X109372Y58598D01*
Y58852D01*
X109245Y58979D01*
X108737D01*
X100669Y61108D02*
X100796Y61235D01*
X101050D01*
X101177Y61108D01*
Y60600D01*
X101050Y60473D01*
X100796D01*
X100669Y60600D01*
X99907Y60473D02*
X100415D01*
X99907Y60981D01*
Y61108D01*
X100034Y61235D01*
X100288D01*
X100415Y61108D01*
X99653Y60600D02*
X99526Y60473D01*
X99272D01*
X99145Y60600D01*
Y61108D01*
X99272Y61235D01*
X99526D01*
X99653Y61108D01*
Y60981D01*
X99526Y60854D01*
X99145D01*
X102057Y62890D02*
X101930Y63017D01*
Y63271D01*
X102057Y63398D01*
X102565D01*
X102692Y63271D01*
Y63017D01*
X102565Y62890D01*
X102057Y62636D02*
X101930Y62509D01*
Y62255D01*
X102057Y62128D01*
X102184D01*
X102311Y62255D01*
Y62382D01*
Y62255D01*
X102438Y62128D01*
X102565D01*
X102692Y62255D01*
Y62509D01*
X102565Y62636D01*
X102692Y61367D02*
Y61875D01*
X102184Y61367D01*
X102057D01*
X101930Y61494D01*
Y61748D01*
X102057Y61875D01*
X104622Y60097D02*
Y60858D01*
X104242D01*
X104115Y60731D01*
Y60477D01*
X104242Y60350D01*
X104622D01*
X104368D02*
X104115Y60097D01*
X103861Y60731D02*
X103734Y60858D01*
X103480D01*
X103353Y60731D01*
Y60604D01*
X103480Y60477D01*
X103353Y60350D01*
Y60223D01*
X103480Y60097D01*
X103734D01*
X103861Y60223D01*
Y60350D01*
X103734Y60477D01*
X103861Y60604D01*
Y60731D01*
X103734Y60477D02*
X103480D01*
X108996Y56456D02*
Y55695D01*
X108488D01*
X108234Y56329D02*
X108107Y56456D01*
X107853D01*
X107726Y56329D01*
Y56202D01*
X107853Y56075D01*
X107980D01*
X107853D01*
X107726Y55948D01*
Y55821D01*
X107853Y55695D01*
X108107D01*
X108234Y55821D01*
X104690Y58871D02*
X104817Y58998D01*
X105071D01*
X105198Y58871D01*
Y58363D01*
X105071Y58237D01*
X104817D01*
X104690Y58363D01*
X104436Y58871D02*
X104309Y58998D01*
X104055D01*
X103928Y58871D01*
Y58744D01*
X104055Y58617D01*
X104182D01*
X104055D01*
X103928Y58490D01*
Y58363D01*
X104055Y58237D01*
X104309D01*
X104436Y58363D01*
X103674Y58237D02*
X103420D01*
X103547D01*
Y58998D01*
X103674Y58871D01*
X98780Y58420D02*
Y59182D01*
X98400D01*
X98273Y59055D01*
Y58801D01*
X98400Y58674D01*
X98780D01*
X98526D02*
X98273Y58420D01*
X98019Y59182D02*
X97511D01*
Y59055D01*
X98019Y58547D01*
Y58420D01*
X102032Y59174D02*
X102159Y59300D01*
X102413D01*
X102539Y59174D01*
Y58666D01*
X102413Y58539D01*
X102159D01*
X102032Y58666D01*
X101397Y58539D02*
Y59300D01*
X101778Y58920D01*
X101270D01*
X101016Y59174D02*
X100889Y59300D01*
X100635D01*
X100508Y59174D01*
Y59047D01*
X100635Y58920D01*
X100508Y58793D01*
Y58666D01*
X100635Y58539D01*
X100889D01*
X101016Y58666D01*
Y58793D01*
X100889Y58920D01*
X101016Y59047D01*
Y59174D01*
X100889Y58920D02*
X100635D01*
X103073Y56456D02*
Y55695D01*
X102565D01*
X101803D02*
X102311D01*
X101803Y56202D01*
Y56329D01*
X101930Y56456D01*
X102184D01*
X102311Y56329D01*
X95574Y66186D02*
X95701Y66313D01*
X95955D01*
X96081Y66186D01*
Y65678D01*
X95955Y65551D01*
X95701D01*
X95574Y65678D01*
X95320Y66186D02*
X95193Y66313D01*
X94939D01*
X94812Y66186D01*
Y66059D01*
X94939Y65932D01*
X95066D01*
X94939D01*
X94812Y65805D01*
Y65678D01*
X94939Y65551D01*
X95193D01*
X95320Y65678D01*
X94558Y66186D02*
X94431Y66313D01*
X94177D01*
X94050Y66186D01*
Y66059D01*
X94177Y65932D01*
X94050Y65805D01*
Y65678D01*
X94177Y65551D01*
X94431D01*
X94558Y65678D01*
Y65805D01*
X94431Y65932D01*
X94558Y66059D01*
Y66186D01*
X94431Y65932D02*
X94177D01*
X92329Y60452D02*
X92202Y60579D01*
Y60833D01*
X92329Y60960D01*
X92837D01*
X92964Y60833D01*
Y60579D01*
X92837Y60452D01*
X92964Y59817D02*
X92202D01*
X92583Y60198D01*
Y59690D01*
X92964Y59055D02*
X92202D01*
X92583Y59436D01*
Y58928D01*
X93269Y60477D02*
X93142Y60604D01*
Y60858D01*
X93269Y60985D01*
X93777D01*
X93904Y60858D01*
Y60604D01*
X93777Y60477D01*
X93904Y59842D02*
X93142D01*
X93523Y60223D01*
Y59715D01*
X93269Y59462D02*
X93142Y59335D01*
Y59081D01*
X93269Y58954D01*
X93396D01*
X93523Y59081D01*
Y59208D01*
Y59081D01*
X93650Y58954D01*
X93777D01*
X93904Y59081D01*
Y59335D01*
X93777Y59462D01*
X97663Y62763D02*
X97536Y62890D01*
Y63144D01*
X97663Y63271D01*
X98171D01*
X98298Y63144D01*
Y62890D01*
X98171Y62763D01*
X98298Y62128D02*
X97536D01*
X97917Y62509D01*
Y62002D01*
X98298Y61748D02*
Y61494D01*
Y61621D01*
X97536D01*
X97663Y61748D01*
X101016Y64287D02*
X101143Y64414D01*
X101397D01*
X101523Y64287D01*
Y63779D01*
X101397Y63653D01*
X101143D01*
X101016Y63779D01*
X100381Y63653D02*
Y64414D01*
X100762Y64033D01*
X100254D01*
X99492Y63653D02*
X100000D01*
X99492Y64160D01*
Y64287D01*
X99619Y64414D01*
X99873D01*
X100000Y64287D01*
X103454Y66167D02*
X103581Y66294D01*
X103835D01*
X103962Y66167D01*
Y65659D01*
X103835Y65532D01*
X103581D01*
X103454Y65659D01*
X102692Y66294D02*
X103200D01*
Y65913D01*
X102946Y66040D01*
X102819D01*
X102692Y65913D01*
Y65659D01*
X102819Y65532D01*
X103073D01*
X103200Y65659D01*
X101931Y65532D02*
X102438D01*
X101931Y66040D01*
Y66167D01*
X102057Y66294D01*
X102311D01*
X102438Y66167D01*
X101244Y67666D02*
X101371Y67792D01*
X101625D01*
X101752Y67666D01*
Y67158D01*
X101625Y67031D01*
X101371D01*
X101244Y67158D01*
X100609Y67031D02*
Y67792D01*
X100990Y67412D01*
X100482D01*
X100229Y67666D02*
X100102Y67792D01*
X99848D01*
X99721Y67666D01*
Y67158D01*
X99848Y67031D01*
X100102D01*
X100229Y67158D01*
Y67666D01*
X98704Y69850D02*
X98578Y69977D01*
Y70231D01*
X98704Y70358D01*
X99212D01*
X99339Y70231D01*
Y69977D01*
X99212Y69850D01*
X98578Y69088D02*
Y69596D01*
X98958D01*
X98831Y69342D01*
Y69215D01*
X98958Y69088D01*
X99212D01*
X99339Y69215D01*
Y69469D01*
X99212Y69596D01*
X99339Y68834D02*
Y68580D01*
Y68707D01*
X98578D01*
X98704Y68834D01*
X96555Y69797D02*
X96428Y69924D01*
Y70178D01*
X96555Y70305D01*
X97063D01*
X97190Y70178D01*
Y69924D01*
X97063Y69797D01*
X96428Y69035D02*
Y69543D01*
X96809D01*
X96682Y69289D01*
Y69162D01*
X96809Y69035D01*
X97063D01*
X97190Y69162D01*
Y69416D01*
X97063Y69543D01*
X96555Y68781D02*
X96428Y68654D01*
Y68400D01*
X96555Y68273D01*
X96682D01*
X96809Y68400D01*
Y68527D01*
Y68400D01*
X96936Y68273D01*
X97063D01*
X97190Y68400D01*
Y68654D01*
X97063Y68781D01*
X105435Y62382D02*
X105309Y62509D01*
Y62763D01*
X105435Y62890D01*
X105943D01*
X106070Y62763D01*
Y62509D01*
X105943Y62382D01*
X106070Y61747D02*
X105309D01*
X105689Y62128D01*
Y61620D01*
X105943Y61367D02*
X106070Y61240D01*
Y60986D01*
X105943Y60859D01*
X105435D01*
X105309Y60986D01*
Y61240D01*
X105435Y61367D01*
X105562D01*
X105689Y61240D01*
Y60859D01*
X103429Y65227D02*
X103556Y65354D01*
X103810D01*
X103936Y65227D01*
Y64719D01*
X103810Y64592D01*
X103556D01*
X103429Y64719D01*
X102667Y65354D02*
X103175D01*
Y64973D01*
X102921Y65100D01*
X102794D01*
X102667Y64973D01*
Y64719D01*
X102794Y64592D01*
X103048D01*
X103175Y64719D01*
X102413Y65227D02*
X102286Y65354D01*
X102032D01*
X101905Y65227D01*
Y64719D01*
X102032Y64592D01*
X102286D01*
X102413Y64719D01*
Y65227D01*
X97663Y69797D02*
X97536Y69924D01*
Y70178D01*
X97663Y70305D01*
X98171D01*
X98298Y70178D01*
Y69924D01*
X98171Y69797D01*
X97663Y69543D02*
X97536Y69416D01*
Y69162D01*
X97663Y69035D01*
X97790D01*
X97917Y69162D01*
Y69289D01*
Y69162D01*
X98044Y69035D01*
X98171D01*
X98298Y69162D01*
Y69416D01*
X98171Y69543D01*
Y68781D02*
X98298Y68654D01*
Y68400D01*
X98171Y68273D01*
X97663D01*
X97536Y68400D01*
Y68654D01*
X97663Y68781D01*
X97790D01*
X97917Y68654D01*
Y68273D01*
X94047Y73201D02*
X94174Y73328D01*
X94428D01*
X94555Y73201D01*
Y72693D01*
X94428Y72566D01*
X94174D01*
X94047Y72693D01*
X93412Y72566D02*
Y73328D01*
X93793Y72947D01*
X93285D01*
X93031Y73328D02*
X92524D01*
Y73201D01*
X93031Y72693D01*
Y72566D01*
X93370Y70286D02*
X93244Y70413D01*
Y70667D01*
X93370Y70794D01*
X93878D01*
X94005Y70667D01*
Y70413D01*
X93878Y70286D01*
X94005Y69652D02*
X93244D01*
X93624Y70033D01*
Y69525D01*
X93244Y68763D02*
Y69271D01*
X93624D01*
X93497Y69017D01*
Y68890D01*
X93624Y68763D01*
X93878D01*
X94005Y68890D01*
Y69144D01*
X93878Y69271D01*
X95326Y72935D02*
X95199Y73062D01*
Y73316D01*
X95326Y73443D01*
X95834D01*
X95961Y73316D01*
Y73062D01*
X95834Y72935D01*
X95961Y72300D02*
X95199D01*
X95580Y72681D01*
Y72173D01*
X95199Y71412D02*
X95326Y71665D01*
X95580Y71919D01*
X95834D01*
X95961Y71792D01*
Y71538D01*
X95834Y71412D01*
X95707D01*
X95580Y71538D01*
Y71919D01*
X98628Y89141D02*
X98501Y89268D01*
Y89521D01*
X98628Y89648D01*
X99136D01*
X99263Y89521D01*
Y89268D01*
X99136Y89141D01*
X98501Y88379D02*
Y88887D01*
X98882D01*
X98755Y88633D01*
Y88506D01*
X98882Y88379D01*
X99136D01*
X99263Y88506D01*
Y88760D01*
X99136Y88887D01*
X100547Y89747D02*
X99786D01*
Y89366D01*
X99913Y89239D01*
X100167D01*
X100293Y89366D01*
Y89747D01*
Y89493D02*
X100547Y89239D01*
X99913Y88985D02*
X99786Y88858D01*
Y88604D01*
X99913Y88477D01*
X100040D01*
X100167Y88604D01*
Y88731D01*
Y88604D01*
X100293Y88477D01*
X100420D01*
X100547Y88604D01*
Y88858D01*
X100420Y88985D01*
X101955Y89738D02*
X101194D01*
Y89357D01*
X101321Y89230D01*
X101575D01*
X101702Y89357D01*
Y89738D01*
Y89484D02*
X101955Y89230D01*
Y88468D02*
Y88976D01*
X101448Y88468D01*
X101321D01*
X101194Y88595D01*
Y88849D01*
X101321Y88976D01*
X102638Y88951D02*
X102511Y89078D01*
Y89332D01*
X102638Y89459D01*
X103146D01*
X103273Y89332D01*
Y89078D01*
X103146Y88951D01*
X103273Y88189D02*
Y88697D01*
X102765Y88189D01*
X102638D01*
X102511Y88316D01*
Y88570D01*
X102638Y88697D01*
X97155Y95123D02*
X97282Y95250D01*
X97536D01*
X97663Y95123D01*
Y94615D01*
X97536Y94488D01*
X97282D01*
X97155Y94615D01*
X96520Y94488D02*
Y95250D01*
X96901Y94869D01*
X96393D01*
X104733Y94573D02*
Y95335D01*
X104352D01*
X104225Y95208D01*
Y94954D01*
X104352Y94827D01*
X104733D01*
X104479D02*
X104225Y94573D01*
X103971D02*
X103717D01*
X103844D01*
Y95335D01*
X103971Y95208D01*
D55*
X115569Y47752D02*
Y49276D01*
X114808D01*
X114554Y49022D01*
Y48514D01*
X114808Y48260D01*
X115569D01*
X115062D02*
X114554Y47752D01*
X114046D02*
X113538D01*
X113792D01*
Y49276D01*
X114046Y49022D01*
X112776D02*
X112522Y49276D01*
X112015D01*
X111761Y49022D01*
Y48006D01*
X112015Y47752D01*
X112522D01*
X112776Y48006D01*
Y49022D01*
X119614Y49210D02*
X119868Y49464D01*
X120375D01*
X120629Y49210D01*
Y48195D01*
X120375Y47941D01*
X119868D01*
X119614Y48195D01*
X118090Y49464D02*
X119106D01*
Y48702D01*
X118598Y48956D01*
X118344D01*
X118090Y48702D01*
Y48195D01*
X118344Y47941D01*
X118852D01*
X119106Y48195D01*
X117582Y49210D02*
X117328Y49464D01*
X116821D01*
X116567Y49210D01*
Y48956D01*
X116821Y48702D01*
X116567Y48448D01*
Y48195D01*
X116821Y47941D01*
X117328D01*
X117582Y48195D01*
Y48448D01*
X117328Y48702D01*
X117582Y48956D01*
Y49210D01*
X117328Y48702D02*
X116821D01*
X119557Y76073D02*
X119811Y76327D01*
X120319D01*
X120573Y76073D01*
Y75057D01*
X120319Y74803D01*
X119811D01*
X119557Y75057D01*
X118034Y76327D02*
X118542Y76073D01*
X119050Y75565D01*
Y75057D01*
X118796Y74803D01*
X118288D01*
X118034Y75057D01*
Y75311D01*
X118288Y75565D01*
X119050D01*
X117526Y76073D02*
X117272Y76327D01*
X116764D01*
X116510Y76073D01*
Y75057D01*
X116764Y74803D01*
X117272D01*
X117526Y75057D01*
Y76073D01*
X125399Y76174D02*
X125653Y76428D01*
X126161D01*
X126415Y76174D01*
Y75159D01*
X126161Y74905D01*
X125653D01*
X125399Y75159D01*
X123876Y76428D02*
X124892D01*
Y75667D01*
X124384Y75921D01*
X124130D01*
X123876Y75667D01*
Y75159D01*
X124130Y74905D01*
X124638D01*
X124892Y75159D01*
X123368D02*
X123114Y74905D01*
X122606D01*
X122352Y75159D01*
Y76174D01*
X122606Y76428D01*
X123114D01*
X123368Y76174D01*
Y75921D01*
X123114Y75667D01*
X122352D01*
X110286Y71120D02*
Y69850D01*
X110032Y69596D01*
X109525D01*
X109271Y69850D01*
Y71120D01*
X108763D02*
X107747D01*
Y70866D01*
X108763Y69850D01*
Y69596D01*
D56*
X124308Y51918D02*
X123462Y52764D01*
Y51918D02*
X124308Y52764D01*
X123885Y51918D02*
Y52764D01*
X123462Y52341D02*
X124308D01*
%TF.MD5,e8172265b89146bc77148ba883125529*%
M02*
