%TF.GenerationSoftware,Altium Limited,Altium Designer,20.0.12 (288)*%
G04 Layer_Color=8388736*
%FSLAX43Y43*%
%MOMM*%
%TF.FileFunction,Soldermask,Top*%
%TF.Part,Single*%
G01*
G75*
%TA.AperFunction,ConnectorPad*%
%ADD32R,0.551X1.311*%
%TA.AperFunction,ViaPad*%
%ADD47C,0.508*%
%TA.AperFunction,SMDPad,CuDef*%
%ADD57R,1.653X1.753*%
%ADD58R,1.753X1.653*%
%ADD59R,0.783X0.743*%
%ADD60R,0.743X0.783*%
%ADD61R,0.853X0.853*%
%ADD63R,0.853X0.853*%
%TA.AperFunction,ComponentPad*%
%ADD66C,1.703*%
%ADD67R,1.703X1.703*%
%ADD68C,0.703*%
%ADD69O,3.203X1.703*%
%TA.AperFunction,ViaPad*%
%ADD70C,0.703*%
%ADD71C,0.635*%
%ADD72C,0.711*%
%TA.AperFunction,NonConductor*%
%ADD78C,0.000*%
%TA.AperFunction,SMDPad,CuDef*%
G04:AMPARAMS|DCode=79|XSize=0.753mm|YSize=1.003mm|CornerRadius=0.151mm|HoleSize=0mm|Usage=FLASHONLY|Rotation=270.000|XOffset=0mm|YOffset=0mm|HoleType=Round|Shape=RoundedRectangle|*
%AMROUNDEDRECTD79*
21,1,0.753,0.701,0,0,270.0*
21,1,0.451,1.003,0,0,270.0*
1,1,0.302,-0.351,-0.226*
1,1,0.302,-0.351,0.226*
1,1,0.302,0.351,0.226*
1,1,0.302,0.351,-0.226*
%
%ADD79ROUNDEDRECTD79*%
G04:AMPARAMS|DCode=80|XSize=0.453mm|YSize=0.803mm|CornerRadius=0.152mm|HoleSize=0mm|Usage=FLASHONLY|Rotation=0.000|XOffset=0mm|YOffset=0mm|HoleType=Round|Shape=RoundedRectangle|*
%AMROUNDEDRECTD80*
21,1,0.453,0.500,0,0,0.0*
21,1,0.150,0.803,0,0,0.0*
1,1,0.303,0.075,-0.250*
1,1,0.303,-0.075,-0.250*
1,1,0.303,-0.075,0.250*
1,1,0.303,0.075,0.250*
%
%ADD80ROUNDEDRECTD80*%
G04:AMPARAMS|DCode=81|XSize=0.453mm|YSize=0.803mm|CornerRadius=0.152mm|HoleSize=0mm|Usage=FLASHONLY|Rotation=270.000|XOffset=0mm|YOffset=0mm|HoleType=Round|Shape=RoundedRectangle|*
%AMROUNDEDRECTD81*
21,1,0.453,0.500,0,0,270.0*
21,1,0.150,0.803,0,0,270.0*
1,1,0.303,-0.250,-0.075*
1,1,0.303,-0.250,0.075*
1,1,0.303,0.250,0.075*
1,1,0.303,0.250,-0.075*
%
%ADD81ROUNDEDRECTD81*%
G04:AMPARAMS|DCode=82|XSize=1.903mm|YSize=1.903mm|CornerRadius=0.153mm|HoleSize=0mm|Usage=FLASHONLY|Rotation=270.000|XOffset=0mm|YOffset=0mm|HoleType=Round|Shape=RoundedRectangle|*
%AMROUNDEDRECTD82*
21,1,1.903,1.598,0,0,270.0*
21,1,1.598,1.903,0,0,270.0*
1,1,0.305,-0.799,-0.799*
1,1,0.305,-0.799,0.799*
1,1,0.305,0.799,0.799*
1,1,0.305,0.799,-0.799*
%
%ADD82ROUNDEDRECTD82*%
%ADD83R,2.003X1.403*%
%ADD84R,2.303X1.603*%
%ADD85O,1.753X0.803*%
%TA.AperFunction,BGAPad,CuDef*%
%ADD86C,0.573*%
%TA.AperFunction,SMDPad,CuDef*%
%ADD87R,1.503X2.103*%
%TA.AperFunction,BGAPad,CuDef*%
%ADD88C,0.603*%
%TA.AperFunction,ConnectorPad*%
%ADD89R,0.743X0.783*%
%TA.AperFunction,SMDPad,CuDef*%
%ADD90R,2.103X2.003*%
%ADD91R,2.103X2.503*%
%ADD92R,1.603X0.603*%
%ADD93R,2.203X5.503*%
%TA.AperFunction,ConnectorPad*%
%ADD94R,2.203X1.403*%
D32*
X96733Y51607D02*
D03*
X94833D02*
D03*
Y54007D02*
D03*
X95783D02*
D03*
X96733D02*
D03*
D47*
X103141Y59656D02*
D03*
X103988Y61290D02*
D03*
X95580Y68275D02*
D03*
D57*
X118622Y43140D02*
D03*
X120472D02*
D03*
X125436Y44080D02*
D03*
X123586D02*
D03*
D58*
X123647Y48586D02*
D03*
Y46736D02*
D03*
X123977Y66091D02*
D03*
Y64241D02*
D03*
D59*
X118627Y45096D02*
D03*
X117847D02*
D03*
X111041Y48057D02*
D03*
X110261D02*
D03*
X96707Y55855D02*
D03*
X95927D02*
D03*
X94031D02*
D03*
X94811D02*
D03*
X96892Y49733D02*
D03*
X97672D02*
D03*
X86097Y67056D02*
D03*
X86877D02*
D03*
X86088Y73660D02*
D03*
X86868D02*
D03*
X114113Y43459D02*
D03*
X114893D02*
D03*
X116722Y43485D02*
D03*
X115942D02*
D03*
D60*
X109118Y44416D02*
D03*
Y45196D02*
D03*
X106680Y53966D02*
D03*
Y54746D02*
D03*
X99060Y54746D02*
D03*
Y53966D02*
D03*
X79019Y56600D02*
D03*
Y55820D02*
D03*
X103505Y78659D02*
D03*
Y79439D02*
D03*
X102387Y78655D02*
D03*
Y79435D02*
D03*
X101270Y78098D02*
D03*
Y77318D02*
D03*
X97281Y78655D02*
D03*
Y79435D02*
D03*
X96176Y78655D02*
D03*
Y79435D02*
D03*
X95072Y78659D02*
D03*
Y79439D02*
D03*
X90076Y82889D02*
D03*
Y82109D02*
D03*
X90018Y84013D02*
D03*
Y84793D02*
D03*
X88900Y84752D02*
D03*
Y83972D02*
D03*
D61*
X94742Y49581D02*
D03*
X95742D02*
D03*
X87054Y59919D02*
D03*
X88054D02*
D03*
X122995Y50709D02*
D03*
X123995D02*
D03*
D63*
X115494Y48202D02*
D03*
Y49202D02*
D03*
X116713Y49228D02*
D03*
Y48228D02*
D03*
D66*
X80874Y65024D02*
D03*
D67*
Y62484D02*
D03*
D68*
X129718Y58441D02*
D03*
Y62941D02*
D03*
D69*
Y54991D02*
D03*
Y66391D02*
D03*
D70*
X119580Y47800D02*
D03*
X119080Y47300D02*
D03*
X120080D02*
D03*
Y48300D02*
D03*
X119080D02*
D03*
D71*
X97612Y82271D02*
D03*
X96825Y82194D02*
D03*
X97663Y83896D02*
D03*
X98409Y83007D02*
D03*
X100736Y83998D02*
D03*
X99280Y84285D02*
D03*
X101575Y83845D02*
D03*
X99449Y89112D02*
D03*
X90988Y86614D02*
D03*
X92768Y87086D02*
D03*
X96105Y88752D02*
D03*
X96875Y88801D02*
D03*
X90988Y83941D02*
D03*
X95301Y87046D02*
D03*
X94158Y79502D02*
D03*
X98624Y85573D02*
D03*
X97765Y85979D02*
D03*
X98094Y79331D02*
D03*
X101956Y88824D02*
D03*
X89934Y85704D02*
D03*
X91694Y89764D02*
D03*
X95184Y83033D02*
D03*
X94424Y82977D02*
D03*
X94463Y87808D02*
D03*
X99688Y55369D02*
D03*
X103881Y56641D02*
D03*
X100081Y67504D02*
D03*
X97384Y68145D02*
D03*
X97917Y66209D02*
D03*
X112997Y43785D02*
D03*
X111738Y49034D02*
D03*
X109449Y50673D02*
D03*
X109969D02*
D03*
X102768Y57861D02*
D03*
X96368Y61595D02*
D03*
X95742Y48287D02*
D03*
X102311Y65989D02*
D03*
X101244Y62382D02*
D03*
X97739Y63398D02*
D03*
X87097Y61544D02*
D03*
X122238Y49161D02*
D03*
X115878Y46303D02*
D03*
X117094Y53848D02*
D03*
X121006Y50165D02*
D03*
X124968Y70028D02*
D03*
X97155Y56896D02*
D03*
X79908Y67208D02*
D03*
X78816Y54915D02*
D03*
X103096Y60475D02*
D03*
X103200Y61290D02*
D03*
X103175Y62103D02*
D03*
X104902Y62078D02*
D03*
X102362Y62128D02*
D03*
Y61316D02*
D03*
X108534Y67564D02*
D03*
X120625Y67945D02*
D03*
X115113Y66777D02*
D03*
X120066Y67488D02*
D03*
X118923Y66523D02*
D03*
X121158Y68809D02*
D03*
X109474Y65380D02*
D03*
X108687Y64805D02*
D03*
X126027Y48293D02*
D03*
X126555Y48285D02*
D03*
X125311Y61354D02*
D03*
X124943Y60985D02*
D03*
X109982Y62865D02*
D03*
X109614Y62497D02*
D03*
X98069Y55931D02*
D03*
X85268Y55016D02*
D03*
X92075Y72009D02*
D03*
X90221Y81229D02*
D03*
X93760Y80924D02*
D03*
X93777Y80035D02*
D03*
X100051Y72288D02*
D03*
X94187Y84400D02*
D03*
X97546Y71679D02*
D03*
X94454Y86148D02*
D03*
X94509Y87016D02*
D03*
X99939Y70958D02*
D03*
X99187Y70053D02*
D03*
X99949Y69291D02*
D03*
X93658Y87850D02*
D03*
X96774Y71704D02*
D03*
X100736Y68478D02*
D03*
X99933Y73279D02*
D03*
X98282Y70866D02*
D03*
X97498Y74028D02*
D03*
X103903Y71763D02*
D03*
X103200Y70866D02*
D03*
X103954Y70011D02*
D03*
X104672Y71720D02*
D03*
X104775Y75895D02*
D03*
X99441Y80747D02*
D03*
X97130Y73660D02*
D03*
X96901Y87046D02*
D03*
X100687Y89078D02*
D03*
X100167D02*
D03*
X99314Y85547D02*
D03*
X100061Y86182D02*
D03*
X92558Y84125D02*
D03*
X97561Y70053D02*
D03*
X99949Y71546D02*
D03*
X101506Y70028D02*
D03*
X100764Y70095D02*
D03*
X101946Y71984D02*
D03*
X100813Y83058D02*
D03*
X99970Y82114D02*
D03*
X100846Y69325D02*
D03*
X98374Y68580D02*
D03*
X97663Y87833D02*
D03*
X99187Y69317D02*
D03*
X98349Y70053D02*
D03*
X102449Y71730D02*
D03*
X102385Y70792D02*
D03*
X103962Y66872D02*
D03*
X100416Y85559D02*
D03*
X100076Y87020D02*
D03*
X100787Y86030D02*
D03*
X101625Y87071D02*
D03*
X102311Y88011D02*
D03*
X102636Y82147D02*
D03*
X103276Y83007D02*
D03*
X103192Y82254D02*
D03*
X102413Y87071D02*
D03*
X103175Y66878D02*
D03*
Y67666D02*
D03*
X103937Y69240D02*
D03*
X104821Y70896D02*
D03*
X103988Y68457D02*
D03*
X103175Y68478D02*
D03*
X102438Y86208D02*
D03*
X103165Y70050D02*
D03*
X99162Y70866D02*
D03*
X102362Y67691D02*
D03*
Y70079D02*
D03*
X102337Y66878D02*
D03*
Y68453D02*
D03*
X101549Y69240D02*
D03*
X95174Y70104D02*
D03*
X95961Y70866D02*
D03*
X98349Y69240D02*
D03*
X97561Y70866D02*
D03*
X96520Y65710D02*
D03*
X101575Y59690D02*
D03*
X93599Y65278D02*
D03*
X96809Y69289D02*
D03*
X103937Y58928D02*
D03*
X94539Y63322D02*
D03*
X105029Y59309D02*
D03*
X103988Y62103D02*
D03*
X94793Y68275D02*
D03*
X91999Y70891D02*
D03*
X93624Y70053D02*
D03*
D72*
X101371Y64084D02*
D03*
X101041Y61544D02*
D03*
X97815Y61595D02*
D03*
X99187Y60477D02*
D03*
X99720Y61544D02*
D03*
D78*
X92770Y81814D02*
G03*
X92770Y81814I-300J0D01*
G01*
Y82614D02*
G03*
X92770Y82614I-300J0D01*
G01*
Y83414D02*
G03*
X92770Y83414I-300J0D01*
G01*
Y86614D02*
G03*
X92770Y86614I-300J0D01*
G01*
Y87414D02*
G03*
X92770Y87414I-300J0D01*
G01*
Y88214D02*
G03*
X92770Y88214I-300J0D01*
G01*
X93570Y81814D02*
G03*
X93570Y81814I-300J0D01*
G01*
Y82614D02*
G03*
X93570Y82614I-300J0D01*
G01*
Y83414D02*
G03*
X93570Y83414I-300J0D01*
G01*
Y86614D02*
G03*
X93570Y86614I-300J0D01*
G01*
Y87414D02*
G03*
X93570Y87414I-300J0D01*
G01*
Y88214D02*
G03*
X93570Y88214I-300J0D01*
G01*
X94370Y81814D02*
G03*
X94370Y81814I-300J0D01*
G01*
Y82614D02*
G03*
X94370Y82614I-300J0D01*
G01*
Y83414D02*
G03*
X94370Y83414I-300J0D01*
G01*
Y86614D02*
G03*
X94370Y86614I-300J0D01*
G01*
Y87414D02*
G03*
X94370Y87414I-300J0D01*
G01*
Y88214D02*
G03*
X94370Y88214I-300J0D01*
G01*
X95170Y81814D02*
G03*
X95170Y81814I-300J0D01*
G01*
Y82614D02*
G03*
X95170Y82614I-300J0D01*
G01*
Y83414D02*
G03*
X95170Y83414I-300J0D01*
G01*
Y86614D02*
G03*
X95170Y86614I-300J0D01*
G01*
Y87414D02*
G03*
X95170Y87414I-300J0D01*
G01*
Y88214D02*
G03*
X95170Y88214I-300J0D01*
G01*
X95970Y81814D02*
G03*
X95970Y81814I-300J0D01*
G01*
Y82614D02*
G03*
X95970Y82614I-300J0D01*
G01*
Y83414D02*
G03*
X95970Y83414I-300J0D01*
G01*
Y86614D02*
G03*
X95970Y86614I-300J0D01*
G01*
Y87414D02*
G03*
X95970Y87414I-300J0D01*
G01*
Y88214D02*
G03*
X95970Y88214I-300J0D01*
G01*
X96770Y81814D02*
G03*
X96770Y81814I-300J0D01*
G01*
Y82614D02*
G03*
X96770Y82614I-300J0D01*
G01*
Y83414D02*
G03*
X96770Y83414I-300J0D01*
G01*
Y86614D02*
G03*
X96770Y86614I-300J0D01*
G01*
Y87414D02*
G03*
X96770Y87414I-300J0D01*
G01*
Y88214D02*
G03*
X96770Y88214I-300J0D01*
G01*
X97570Y81814D02*
G03*
X97570Y81814I-300J0D01*
G01*
Y82614D02*
G03*
X97570Y82614I-300J0D01*
G01*
Y83414D02*
G03*
X97570Y83414I-300J0D01*
G01*
Y86614D02*
G03*
X97570Y86614I-300J0D01*
G01*
Y87414D02*
G03*
X97570Y87414I-300J0D01*
G01*
Y88214D02*
G03*
X97570Y88214I-300J0D01*
G01*
X98370Y81814D02*
G03*
X98370Y81814I-300J0D01*
G01*
Y82614D02*
G03*
X98370Y82614I-300J0D01*
G01*
Y83414D02*
G03*
X98370Y83414I-300J0D01*
G01*
Y86614D02*
G03*
X98370Y86614I-300J0D01*
G01*
Y87414D02*
G03*
X98370Y87414I-300J0D01*
G01*
Y88214D02*
G03*
X98370Y88214I-300J0D01*
G01*
X99170Y81814D02*
G03*
X99170Y81814I-300J0D01*
G01*
Y82614D02*
G03*
X99170Y82614I-300J0D01*
G01*
Y83414D02*
G03*
X99170Y83414I-300J0D01*
G01*
Y86614D02*
G03*
X99170Y86614I-300J0D01*
G01*
Y87414D02*
G03*
X99170Y87414I-300J0D01*
G01*
Y88214D02*
G03*
X99170Y88214I-300J0D01*
G01*
X99970Y82614D02*
G03*
X99970Y82614I-300J0D01*
G01*
Y83414D02*
G03*
X99970Y83414I-300J0D01*
G01*
Y86614D02*
G03*
X99970Y86614I-300J0D01*
G01*
Y87414D02*
G03*
X99970Y87414I-300J0D01*
G01*
Y88214D02*
G03*
X99970Y88214I-300J0D01*
G01*
X100770Y81814D02*
G03*
X100770Y81814I-300J0D01*
G01*
Y82614D02*
G03*
X100770Y82614I-300J0D01*
G01*
Y83414D02*
G03*
X100770Y83414I-300J0D01*
G01*
Y86614D02*
G03*
X100770Y86614I-300J0D01*
G01*
Y87414D02*
G03*
X100770Y87414I-300J0D01*
G01*
X101570Y82614D02*
G03*
X101570Y82614I-300J0D01*
G01*
Y83414D02*
G03*
X101570Y83414I-300J0D01*
G01*
Y86614D02*
G03*
X101570Y86614I-300J0D01*
G01*
Y87414D02*
G03*
X101570Y87414I-300J0D01*
G01*
Y88214D02*
G03*
X101570Y88214I-300J0D01*
G01*
X102370Y81814D02*
G03*
X102370Y81814I-300J0D01*
G01*
Y82614D02*
G03*
X102370Y82614I-300J0D01*
G01*
Y83414D02*
G03*
X102370Y83414I-300J0D01*
G01*
Y86614D02*
G03*
X102370Y86614I-300J0D01*
G01*
Y87414D02*
G03*
X102370Y87414I-300J0D01*
G01*
X103170Y82614D02*
G03*
X103170Y82614I-300J0D01*
G01*
Y83414D02*
G03*
X103170Y83414I-300J0D01*
G01*
Y86614D02*
G03*
X103170Y86614I-300J0D01*
G01*
Y87414D02*
G03*
X103170Y87414I-300J0D01*
G01*
Y88214D02*
G03*
X103170Y88214I-300J0D01*
G01*
X103970Y81814D02*
G03*
X103970Y81814I-300J0D01*
G01*
Y82614D02*
G03*
X103970Y82614I-300J0D01*
G01*
Y83414D02*
G03*
X103970Y83414I-300J0D01*
G01*
Y86614D02*
G03*
X103970Y86614I-300J0D01*
G01*
Y87414D02*
G03*
X103970Y87414I-300J0D01*
G01*
D79*
X114168Y44770D02*
D03*
Y46670D02*
D03*
X116718D02*
D03*
Y45720D02*
D03*
Y44770D02*
D03*
X112832Y46645D02*
D03*
Y44745D02*
D03*
X110282D02*
D03*
Y45695D02*
D03*
Y46645D02*
D03*
D80*
X120330Y49200D02*
D03*
X119830D02*
D03*
X119330D02*
D03*
X118830D02*
D03*
Y46400D02*
D03*
X119330D02*
D03*
X119830D02*
D03*
X120330D02*
D03*
D81*
X118180Y48550D02*
D03*
Y48050D02*
D03*
Y47550D02*
D03*
Y47050D02*
D03*
X120980D02*
D03*
Y47550D02*
D03*
Y48050D02*
D03*
Y48550D02*
D03*
D82*
X119580Y47800D02*
D03*
D83*
X100870Y54413D02*
D03*
X104870D02*
D03*
Y52013D02*
D03*
X100870D02*
D03*
D84*
X90979Y42987D02*
D03*
X100079D02*
D03*
X90979Y47487D02*
D03*
X100079D02*
D03*
D85*
X87700Y54321D02*
D03*
Y55591D02*
D03*
Y56861D02*
D03*
Y58131D02*
D03*
X80600Y54321D02*
D03*
Y55591D02*
D03*
Y56861D02*
D03*
Y58131D02*
D03*
D86*
X104381Y58497D02*
D03*
X103581D02*
D03*
X102781D02*
D03*
X101981D02*
D03*
X101181D02*
D03*
X100381D02*
D03*
X99581D02*
D03*
X98781D02*
D03*
X97981D02*
D03*
X97181D02*
D03*
X96381D02*
D03*
X95581D02*
D03*
X94781D02*
D03*
X93981D02*
D03*
X93181D02*
D03*
X92381D02*
D03*
X91581D02*
D03*
X104381Y59297D02*
D03*
X103581D02*
D03*
X102781D02*
D03*
X101981D02*
D03*
X101181D02*
D03*
X100381D02*
D03*
X99581D02*
D03*
X98781D02*
D03*
X97981D02*
D03*
X97181D02*
D03*
X96381D02*
D03*
X95581D02*
D03*
X94781D02*
D03*
X93981D02*
D03*
X93181D02*
D03*
X92381D02*
D03*
X91581D02*
D03*
X104381Y60097D02*
D03*
X103581D02*
D03*
X102781D02*
D03*
X101981D02*
D03*
X101181D02*
D03*
X100381D02*
D03*
X99581D02*
D03*
X98781D02*
D03*
X97981D02*
D03*
X97181D02*
D03*
X96381D02*
D03*
X95581D02*
D03*
X94781D02*
D03*
X93981D02*
D03*
X93181D02*
D03*
X92381D02*
D03*
X91581D02*
D03*
X104381Y60897D02*
D03*
X103581D02*
D03*
X102781D02*
D03*
X101981D02*
D03*
X101181D02*
D03*
X100381D02*
D03*
X99581D02*
D03*
X98781D02*
D03*
X97981D02*
D03*
X97181D02*
D03*
X96381D02*
D03*
X95581D02*
D03*
X94781D02*
D03*
X93981D02*
D03*
X93181D02*
D03*
X92381D02*
D03*
X91581D02*
D03*
X104381Y61697D02*
D03*
X103581D02*
D03*
X102781D02*
D03*
X101981D02*
D03*
X93981D02*
D03*
X93181D02*
D03*
X92381D02*
D03*
X91581D02*
D03*
X104381Y62497D02*
D03*
X103581D02*
D03*
X102781D02*
D03*
X101981D02*
D03*
X93981D02*
D03*
X93181D02*
D03*
X92381D02*
D03*
X91581D02*
D03*
X104381Y63297D02*
D03*
X103581D02*
D03*
X102781D02*
D03*
X101981D02*
D03*
X93981D02*
D03*
X93181D02*
D03*
X92381D02*
D03*
X91581D02*
D03*
X104381Y64097D02*
D03*
X103581D02*
D03*
X102781D02*
D03*
X101981D02*
D03*
X98781D02*
D03*
X97981D02*
D03*
X97181D02*
D03*
X93981D02*
D03*
X93181D02*
D03*
X92381D02*
D03*
X91581D02*
D03*
X104381Y64897D02*
D03*
X103581D02*
D03*
X102781D02*
D03*
X101981D02*
D03*
X98781D02*
D03*
X97981D02*
D03*
X97181D02*
D03*
X93981D02*
D03*
X93181D02*
D03*
X92381D02*
D03*
X91581D02*
D03*
X104381Y65697D02*
D03*
X103581D02*
D03*
X102781D02*
D03*
X101981D02*
D03*
X98781D02*
D03*
X97981D02*
D03*
X97181D02*
D03*
X93981D02*
D03*
X93181D02*
D03*
X92381D02*
D03*
X91581D02*
D03*
X104381Y66497D02*
D03*
X103581D02*
D03*
X102781D02*
D03*
X101981D02*
D03*
X93981D02*
D03*
X93181D02*
D03*
X92381D02*
D03*
X91581D02*
D03*
X104381Y67297D02*
D03*
X103581D02*
D03*
X102781D02*
D03*
X101981D02*
D03*
X93981D02*
D03*
X93181D02*
D03*
X92381D02*
D03*
X91581D02*
D03*
X104381Y68097D02*
D03*
X103581D02*
D03*
X102781D02*
D03*
X101981D02*
D03*
X93981D02*
D03*
X93181D02*
D03*
X92381D02*
D03*
X91581D02*
D03*
X104381Y68897D02*
D03*
X103581D02*
D03*
X102781D02*
D03*
X101981D02*
D03*
X101181D02*
D03*
X100381D02*
D03*
X99581D02*
D03*
X98781D02*
D03*
X97981D02*
D03*
X97181D02*
D03*
X96381D02*
D03*
X95581D02*
D03*
X94781D02*
D03*
X93981D02*
D03*
X93181D02*
D03*
X92381D02*
D03*
X91581D02*
D03*
X104381Y69697D02*
D03*
X103581D02*
D03*
X102781D02*
D03*
X101981D02*
D03*
X101181D02*
D03*
X100381D02*
D03*
X99581D02*
D03*
X98781D02*
D03*
X97981D02*
D03*
X97181D02*
D03*
X96381D02*
D03*
X95581D02*
D03*
X94781D02*
D03*
X93981D02*
D03*
X93181D02*
D03*
X92381D02*
D03*
X91581D02*
D03*
X104381Y70497D02*
D03*
X103581D02*
D03*
X102781D02*
D03*
X101981D02*
D03*
X101181D02*
D03*
X100381D02*
D03*
X99581D02*
D03*
X98781D02*
D03*
X97981D02*
D03*
X97181D02*
D03*
X96381D02*
D03*
X95581D02*
D03*
X94781D02*
D03*
X93981D02*
D03*
X93181D02*
D03*
X92381D02*
D03*
X91581D02*
D03*
X104381Y71297D02*
D03*
X103581D02*
D03*
X102781D02*
D03*
X101981D02*
D03*
X101181D02*
D03*
X100381D02*
D03*
X99581D02*
D03*
X98781D02*
D03*
X97981D02*
D03*
X97181D02*
D03*
X96381D02*
D03*
X95581D02*
D03*
X94781D02*
D03*
X93981D02*
D03*
X93181D02*
D03*
X92381D02*
D03*
X91581D02*
D03*
D87*
X81070Y71958D02*
D03*
Y68758D02*
D03*
X86570Y71958D02*
D03*
Y68758D02*
D03*
D88*
X92470Y81814D02*
D03*
Y82614D02*
D03*
Y83414D02*
D03*
Y86614D02*
D03*
Y87414D02*
D03*
Y88214D02*
D03*
X93270Y81814D02*
D03*
Y82614D02*
D03*
Y83414D02*
D03*
Y86614D02*
D03*
Y87414D02*
D03*
Y88214D02*
D03*
X94070Y81814D02*
D03*
Y82614D02*
D03*
Y83414D02*
D03*
Y86614D02*
D03*
Y87414D02*
D03*
Y88214D02*
D03*
X94870Y81814D02*
D03*
Y82614D02*
D03*
Y83414D02*
D03*
Y86614D02*
D03*
Y87414D02*
D03*
Y88214D02*
D03*
X95670Y81814D02*
D03*
Y82614D02*
D03*
Y83414D02*
D03*
Y86614D02*
D03*
Y87414D02*
D03*
Y88214D02*
D03*
X96470Y81814D02*
D03*
Y82614D02*
D03*
Y83414D02*
D03*
Y86614D02*
D03*
Y87414D02*
D03*
Y88214D02*
D03*
X97270Y81814D02*
D03*
Y82614D02*
D03*
Y83414D02*
D03*
Y86614D02*
D03*
Y87414D02*
D03*
Y88214D02*
D03*
X98070Y81814D02*
D03*
Y82614D02*
D03*
Y83414D02*
D03*
Y86614D02*
D03*
Y87414D02*
D03*
Y88214D02*
D03*
X98870Y81814D02*
D03*
Y82614D02*
D03*
Y83414D02*
D03*
Y86614D02*
D03*
Y87414D02*
D03*
Y88214D02*
D03*
X99670Y82614D02*
D03*
Y83414D02*
D03*
Y86614D02*
D03*
Y87414D02*
D03*
Y88214D02*
D03*
X100470Y81814D02*
D03*
Y82614D02*
D03*
Y83414D02*
D03*
Y86614D02*
D03*
Y87414D02*
D03*
X101270Y82614D02*
D03*
Y83414D02*
D03*
Y86614D02*
D03*
Y87414D02*
D03*
Y88214D02*
D03*
X102070Y81814D02*
D03*
Y82614D02*
D03*
Y83414D02*
D03*
Y86614D02*
D03*
Y87414D02*
D03*
X102870Y82614D02*
D03*
Y83414D02*
D03*
Y86614D02*
D03*
Y87414D02*
D03*
Y88214D02*
D03*
X103670Y81814D02*
D03*
Y82614D02*
D03*
Y83414D02*
D03*
Y86614D02*
D03*
Y87414D02*
D03*
D89*
X102362Y91373D02*
D03*
Y90593D02*
D03*
X101244Y91368D02*
D03*
Y90588D02*
D03*
X98908Y91368D02*
D03*
Y90588D02*
D03*
X96215Y91368D02*
D03*
Y90588D02*
D03*
X94971Y91373D02*
D03*
Y90593D02*
D03*
X93599Y91368D02*
D03*
Y90588D02*
D03*
X92431Y91368D02*
D03*
Y90588D02*
D03*
D90*
X131143Y48978D02*
D03*
Y46678D02*
D03*
D91*
Y51578D02*
D03*
Y44078D02*
D03*
D92*
X128293Y49128D02*
D03*
Y48478D02*
D03*
Y47828D02*
D03*
Y47178D02*
D03*
Y46528D02*
D03*
D93*
X119662Y54849D02*
D03*
X123162D02*
D03*
D94*
X127118Y57191D02*
D03*
Y59691D02*
D03*
Y61691D02*
D03*
Y64191D02*
D03*
%TF.MD5,2dd060d8bfc5c988d307f6fac4370ac8*%
M02*
