%TF.GenerationSoftware,Altium Limited,Altium Designer,20.0.12 (288)*%
G04 Layer_Physical_Order=3*
G04 Layer_Color=16440176*
%FSLAX43Y43*%
%MOMM*%
%TF.FileFunction,Copper,L3,Inr,Signal*%
%TF.Part,Single*%
G01*
G75*
%TA.AperFunction,Conductor*%
%ADD33C,0.254*%
%ADD36C,0.174*%
%ADD39C,0.133*%
%TA.AperFunction,ComponentPad*%
%ADD41C,1.500*%
%ADD42R,1.500X1.500*%
%ADD43C,0.500*%
%ADD44O,3.000X1.500*%
%TA.AperFunction,ViaPad*%
%ADD45C,0.500*%
%ADD46C,0.432*%
%ADD47C,0.508*%
%ADD48C,0.305*%
G36*
X90714Y81030D02*
X90780Y81009D01*
Y72523D01*
X90451D01*
X90441Y72530D01*
Y80811D01*
X90560Y80890D01*
X90653Y81030D01*
X90714Y81030D01*
D02*
G37*
G36*
X89859Y81534D02*
X89778Y81413D01*
X89767Y81356D01*
X90221D01*
Y81102D01*
X89767D01*
X89778Y81046D01*
X89882Y80890D01*
X90001Y80811D01*
Y72009D01*
X90017Y71925D01*
X90065Y71853D01*
X90424Y71494D01*
X90383Y71370D01*
X90376Y71352D01*
X90362Y71338D01*
Y71319D01*
X90355Y71302D01*
Y70221D01*
X90237Y70173D01*
X89300Y71110D01*
Y81661D01*
X89810D01*
X89859Y81534D01*
D02*
G37*
G36*
X105487Y67313D02*
X105360Y67245D01*
X105284Y67295D01*
X105227Y67307D01*
Y66853D01*
Y66399D01*
X105284Y66410D01*
X105360Y66461D01*
X105487Y66393D01*
Y57392D01*
X105462Y57367D01*
X103103D01*
X103065Y57494D01*
X103107Y57522D01*
X103211Y57678D01*
X103222Y57734D01*
X102315D01*
X102326Y57678D01*
X102430Y57522D01*
X102472Y57494D01*
X102433Y57367D01*
X102012D01*
X101549Y57831D01*
Y58336D01*
X101532Y58420D01*
X101484Y58492D01*
X99530Y60445D01*
X99537Y60477D01*
X99510Y60611D01*
X99434Y60725D01*
X99321Y60800D01*
X99187Y60827D01*
X99053Y60800D01*
X98940Y60725D01*
X98864Y60611D01*
X98837Y60477D01*
X98864Y60344D01*
X98940Y60230D01*
X99053Y60154D01*
X99187Y60128D01*
X99219Y60134D01*
X101108Y58245D01*
Y57739D01*
X101125Y57655D01*
X101173Y57584D01*
X101272Y57485D01*
X101223Y57367D01*
X99271D01*
X95836Y60802D01*
Y62121D01*
X96676Y62961D01*
X96723Y63033D01*
X96740Y63117D01*
Y65491D01*
X96807Y65591D01*
X96831Y65710D01*
X96807Y65829D01*
X96740Y65930D01*
X96639Y65997D01*
X96521Y66020D01*
X94685Y67856D01*
X94747Y67973D01*
X94793Y67964D01*
X94912Y67988D01*
X95013Y68055D01*
X95065Y68133D01*
X95159Y68132D01*
X95197Y68120D01*
X95197Y68117D01*
X95287Y67982D01*
X95422Y67893D01*
X95453Y67886D01*
Y68275D01*
Y68664D01*
X95422Y68658D01*
X95287Y68568D01*
X95197Y68434D01*
X95197Y68431D01*
X95159Y68419D01*
X95065Y68417D01*
X95013Y68495D01*
X94912Y68562D01*
X94793Y68586D01*
X94674Y68562D01*
X94573Y68495D01*
X94506Y68394D01*
X94482Y68275D01*
X94491Y68230D01*
X94374Y68167D01*
X92075Y70466D01*
X92117Y70604D01*
X92118Y70604D01*
X92219Y70672D01*
X92286Y70772D01*
X92310Y70891D01*
X92286Y71010D01*
X92219Y71111D01*
X92118Y71179D01*
X91999Y71202D01*
X91880Y71179D01*
X91779Y71111D01*
X91712Y71010D01*
X91711Y71009D01*
X91574Y70967D01*
X90451Y72090D01*
Y72427D01*
X91644D01*
X91704Y72300D01*
X91632Y72193D01*
X91621Y72136D01*
X92075D01*
Y72009D01*
X92202D01*
Y71555D01*
X92258Y71567D01*
X92414Y71670D01*
X92518Y71826D01*
X92538Y71930D01*
X92676Y71971D01*
X93055Y71592D01*
X93107Y71558D01*
X93167Y71546D01*
X96513D01*
X96554Y71484D01*
X96655Y71417D01*
X96774Y71393D01*
X96893Y71417D01*
X96994Y71484D01*
X97061Y71585D01*
X97083Y71694D01*
X97123Y71722D01*
X97203Y71759D01*
X97244Y71725D01*
X97235Y71679D01*
X97259Y71561D01*
X97326Y71460D01*
X97427Y71392D01*
X97546Y71369D01*
X97672Y71275D01*
X97567Y71176D01*
X97561Y71177D01*
X97442Y71153D01*
X97342Y71086D01*
X97274Y70985D01*
X97251Y70866D01*
X97274Y70747D01*
X97342Y70646D01*
X97442Y70579D01*
X97561Y70555D01*
X97680Y70579D01*
X97781Y70646D01*
X97849Y70747D01*
X97872Y70866D01*
X97858Y70938D01*
X98029Y71110D01*
X98063Y71161D01*
X98063Y71162D01*
X98190Y71150D01*
Y70314D01*
X98129Y70273D01*
X98062Y70172D01*
X98038Y70053D01*
X98062Y69934D01*
X98129Y69833D01*
X98230Y69766D01*
X98349Y69742D01*
X98468Y69766D01*
X98569Y69833D01*
X98636Y69934D01*
X98660Y70053D01*
X98636Y70172D01*
X98569Y70273D01*
X98507Y70314D01*
Y71981D01*
X98634Y72033D01*
X99029Y71639D01*
Y70314D01*
X98967Y70273D01*
X98900Y70172D01*
X98876Y70053D01*
X98900Y69934D01*
X98967Y69833D01*
X99068Y69766D01*
X99151Y69750D01*
Y69620D01*
X99068Y69604D01*
X98967Y69536D01*
X98900Y69436D01*
X98876Y69317D01*
X98900Y69198D01*
X98967Y69097D01*
X99068Y69029D01*
X99187Y69006D01*
X99306Y69029D01*
X99407Y69097D01*
X99474Y69198D01*
X99498Y69317D01*
X99492Y69347D01*
X99524Y69370D01*
X99639Y69295D01*
X99638Y69291D01*
X99662Y69172D01*
X99729Y69071D01*
X99830Y69004D01*
X99949Y68980D01*
X100068Y69004D01*
X100169Y69071D01*
X100178Y69085D01*
X100257Y69097D01*
X100333Y69089D01*
X100566Y68856D01*
X100558Y68726D01*
X100517Y68698D01*
X100449Y68597D01*
X100426Y68478D01*
X100449Y68359D01*
X100517Y68259D01*
X100617Y68191D01*
X100736Y68168D01*
X100855Y68191D01*
X100956Y68259D01*
X101024Y68359D01*
X101047Y68478D01*
X101024Y68597D01*
X100956Y68698D01*
X100895Y68739D01*
Y68910D01*
X100965Y69038D01*
X101066Y69105D01*
X101120Y69186D01*
X101204Y69186D01*
X101252Y69172D01*
X101262Y69121D01*
X101329Y69021D01*
X101430Y68953D01*
X101549Y68930D01*
X101668Y68953D01*
X101769Y69021D01*
X101836Y69121D01*
X101860Y69240D01*
X101836Y69359D01*
X101769Y69460D01*
X101668Y69528D01*
X101549Y69551D01*
X101514Y69544D01*
X101469Y69595D01*
X101487Y69655D01*
X101527Y69721D01*
X101625Y69741D01*
X101726Y69808D01*
X101793Y69909D01*
X101817Y70028D01*
X101801Y70106D01*
X101983Y70288D01*
X102081Y70207D01*
X102075Y70198D01*
X102051Y70079D01*
X102075Y69960D01*
X102142Y69859D01*
X102243Y69791D01*
X102362Y69768D01*
X102481Y69791D01*
X102582Y69859D01*
X102649Y69960D01*
X102673Y70079D01*
X102658Y70151D01*
X102809Y70301D01*
X103327D01*
X103388Y70313D01*
X103439Y70348D01*
X103896Y70805D01*
X103931Y70856D01*
X103943Y70917D01*
Y72427D01*
X105487D01*
Y67313D01*
D02*
G37*
G36*
X96209Y65709D02*
X96233Y65591D01*
X96300Y65491D01*
Y63208D01*
X95460Y62368D01*
X95412Y62297D01*
X95395Y62212D01*
Y60711D01*
X95412Y60627D01*
X95460Y60556D01*
X98531Y57485D01*
X98482Y57367D01*
X90451D01*
Y71302D01*
X90568Y71350D01*
X96209Y65709D01*
D02*
G37*
G36*
X117898Y52045D02*
Y41825D01*
X115926Y39853D01*
X114465D01*
X111738Y42580D01*
X108959Y39802D01*
X90449D01*
Y57270D01*
X90451Y57271D01*
X96939D01*
X96977Y57144D01*
X96935Y57116D01*
X96868Y57015D01*
X96844Y56896D01*
X96868Y56777D01*
X96935Y56676D01*
X97036Y56609D01*
X97155Y56585D01*
X97274Y56609D01*
X97375Y56676D01*
X97442Y56777D01*
X97466Y56896D01*
X97442Y57015D01*
X97375Y57116D01*
X97333Y57144D01*
X97371Y57271D01*
X98482D01*
X98500Y57278D01*
X98519D01*
X98532Y57292D01*
X98550Y57299D01*
X98608Y57318D01*
X98654Y57320D01*
X98702Y57314D01*
X107137Y48878D01*
X107208Y48831D01*
X107293Y48814D01*
X111320D01*
X111399Y48695D01*
X111554Y48591D01*
X111738Y48555D01*
X111921Y48591D01*
X112076Y48695D01*
X112180Y48851D01*
X112189Y48895D01*
X112327Y48936D01*
X112777Y48486D01*
Y44004D01*
X112710Y43904D01*
X112686Y43785D01*
X112710Y43666D01*
X112777Y43565D01*
X112878Y43498D01*
X112997Y43474D01*
X113116Y43498D01*
X113217Y43565D01*
X113284Y43666D01*
X113308Y43785D01*
X113284Y43904D01*
X113217Y44004D01*
Y48578D01*
X113200Y48662D01*
X113153Y48733D01*
X112114Y49772D01*
X112043Y49820D01*
X111958Y49836D01*
X109543D01*
X102225Y57154D01*
X102274Y57271D01*
X102433D01*
X102455Y57280D01*
X102479Y57282D01*
X102488Y57294D01*
X102501Y57299D01*
X102510Y57321D01*
X102525Y57339D01*
X102538Y57379D01*
X102999D01*
X103011Y57339D01*
X103026Y57321D01*
X103035Y57299D01*
X103049Y57294D01*
X103058Y57282D01*
X103082Y57280D01*
X103103Y57271D01*
X105462D01*
X105530Y57299D01*
X105555Y57324D01*
X105578Y57379D01*
X112563D01*
X117898Y52045D01*
D02*
G37*
G36*
X101443Y57314D02*
X109296Y49461D01*
X109367Y49413D01*
X109451Y49396D01*
X111131D01*
X111203Y49269D01*
X111194Y49254D01*
X108471D01*
X100581Y57144D01*
X100587Y57271D01*
X101223D01*
X101241Y57278D01*
X101260D01*
X101274Y57292D01*
X101291Y57299D01*
X101365Y57324D01*
X101443Y57314D01*
D02*
G37*
G36*
X100577Y57148D02*
X108354Y49372D01*
X108305Y49254D01*
X107384D01*
X99484Y57154D01*
X99533Y57271D01*
X100577D01*
Y57148D01*
D02*
G37*
%LPC*%
G36*
X91948Y71882D02*
X91621D01*
X91632Y71826D01*
X91736Y71670D01*
X91892Y71567D01*
X91948Y71555D01*
Y71882D01*
D02*
G37*
G36*
X93751Y70507D02*
Y70180D01*
X94078D01*
X94067Y70237D01*
X93963Y70392D01*
X93808Y70496D01*
X93751Y70507D01*
D02*
G37*
G36*
X93497D02*
X93441Y70496D01*
X93286Y70392D01*
X93182Y70237D01*
X93171Y70180D01*
X93497D01*
Y70507D01*
D02*
G37*
G36*
X97561Y70364D02*
X97442Y70340D01*
X97342Y70273D01*
X97274Y70172D01*
X97251Y70053D01*
X97274Y69934D01*
X97342Y69833D01*
X97442Y69766D01*
X97561Y69742D01*
X97680Y69766D01*
X97781Y69833D01*
X97849Y69934D01*
X97872Y70053D01*
X97849Y70172D01*
X97781Y70273D01*
X97680Y70340D01*
X97561Y70364D01*
D02*
G37*
G36*
X94078Y69926D02*
X93751D01*
Y69600D01*
X93808Y69611D01*
X93963Y69715D01*
X94067Y69870D01*
X94078Y69926D01*
D02*
G37*
G36*
X93497D02*
X93171D01*
X93182Y69870D01*
X93286Y69715D01*
X93441Y69611D01*
X93497Y69600D01*
Y69926D01*
D02*
G37*
G36*
X96809Y69600D02*
X96690Y69576D01*
X96589Y69509D01*
X96522Y69408D01*
X96498Y69289D01*
X96522Y69170D01*
X96589Y69069D01*
X96690Y69002D01*
X96809Y68978D01*
X96928Y69002D01*
X97029Y69069D01*
X97096Y69170D01*
X97120Y69289D01*
X97096Y69408D01*
X97029Y69509D01*
X96928Y69576D01*
X96809Y69600D01*
D02*
G37*
G36*
X95707Y68664D02*
Y68402D01*
X95969D01*
X95963Y68434D01*
X95873Y68568D01*
X95739Y68658D01*
X95707Y68664D01*
D02*
G37*
G36*
X95969Y68148D02*
X95707D01*
Y67886D01*
X95739Y67893D01*
X95873Y67982D01*
X95963Y68117D01*
X95969Y68148D01*
D02*
G37*
G36*
X97384Y68455D02*
X97265Y68432D01*
X97165Y68364D01*
X97097Y68264D01*
X97074Y68145D01*
X97097Y68026D01*
X97165Y67925D01*
X97265Y67858D01*
X97384Y67834D01*
X97503Y67858D01*
X97604Y67925D01*
X97671Y68026D01*
X97695Y68145D01*
X97671Y68264D01*
X97604Y68364D01*
X97503Y68432D01*
X97384Y68455D01*
D02*
G37*
G36*
X100081Y67815D02*
X99962Y67791D01*
X99861Y67724D01*
X99794Y67623D01*
X99770Y67504D01*
X99794Y67385D01*
X99861Y67284D01*
X99962Y67217D01*
X100081Y67193D01*
X100200Y67217D01*
X100301Y67284D01*
X100368Y67385D01*
X100392Y67504D01*
X100368Y67623D01*
X100301Y67724D01*
X100200Y67791D01*
X100081Y67815D01*
D02*
G37*
G36*
X104973Y67307D02*
X104917Y67295D01*
X104762Y67192D01*
X104658Y67036D01*
X104647Y66980D01*
X104973D01*
Y67307D01*
D02*
G37*
G36*
X103175Y67189D02*
X103056Y67165D01*
X102955Y67098D01*
X102888Y66997D01*
X102864Y66878D01*
X102888Y66759D01*
X102955Y66658D01*
X103056Y66591D01*
X103175Y66567D01*
X103294Y66591D01*
X103395Y66658D01*
X103462Y66759D01*
X103486Y66878D01*
X103462Y66997D01*
X103395Y67098D01*
X103294Y67165D01*
X103175Y67189D01*
D02*
G37*
G36*
X104973Y66726D02*
X104647D01*
X104658Y66669D01*
X104762Y66514D01*
X104917Y66410D01*
X104973Y66399D01*
Y66726D01*
D02*
G37*
G36*
X97917Y66520D02*
X97798Y66496D01*
X97697Y66429D01*
X97630Y66328D01*
X97606Y66209D01*
X97630Y66090D01*
X97697Y65989D01*
X97798Y65922D01*
X97917Y65898D01*
X98036Y65922D01*
X98137Y65989D01*
X98204Y66090D01*
X98228Y66209D01*
X98204Y66328D01*
X98137Y66429D01*
X98036Y66496D01*
X97917Y66520D01*
D02*
G37*
G36*
X102311Y66300D02*
X102192Y66276D01*
X102091Y66209D01*
X102024Y66108D01*
X102000Y65989D01*
X102024Y65870D01*
X102091Y65769D01*
X102192Y65702D01*
X102311Y65678D01*
X102430Y65702D01*
X102531Y65769D01*
X102598Y65870D01*
X102622Y65989D01*
X102598Y66108D01*
X102531Y66209D01*
X102430Y66276D01*
X102311Y66300D01*
D02*
G37*
G36*
X101498Y64577D02*
Y64211D01*
X101864D01*
X101850Y64282D01*
X101738Y64450D01*
X101570Y64563D01*
X101498Y64577D01*
D02*
G37*
G36*
X101244D02*
X101173Y64563D01*
X101005Y64450D01*
X100893Y64282D01*
X100879Y64211D01*
X101244D01*
Y64577D01*
D02*
G37*
G36*
X101864Y63957D02*
X101498D01*
Y63592D01*
X101570Y63606D01*
X101738Y63718D01*
X101850Y63886D01*
X101864Y63957D01*
D02*
G37*
G36*
X101244D02*
X100879D01*
X100893Y63886D01*
X101005Y63718D01*
X101173Y63606D01*
X101244Y63592D01*
Y63957D01*
D02*
G37*
G36*
X97739Y63709D02*
X97620Y63686D01*
X97519Y63618D01*
X97452Y63517D01*
X97428Y63398D01*
X97452Y63279D01*
X97519Y63179D01*
X97620Y63111D01*
X97739Y63088D01*
X97858Y63111D01*
X97959Y63179D01*
X98026Y63279D01*
X98050Y63398D01*
X98026Y63517D01*
X97959Y63618D01*
X97858Y63686D01*
X97739Y63709D01*
D02*
G37*
G36*
X101371Y62836D02*
Y62509D01*
X101698D01*
X101687Y62566D01*
X101583Y62721D01*
X101428Y62825D01*
X101371Y62836D01*
D02*
G37*
G36*
X101117D02*
X101061Y62825D01*
X100906Y62721D01*
X100802Y62566D01*
X100791Y62509D01*
X101117D01*
Y62836D01*
D02*
G37*
G36*
X97942Y62088D02*
Y61722D01*
X98308D01*
X98294Y61793D01*
X98182Y61961D01*
X98014Y62074D01*
X97942Y62088D01*
D02*
G37*
G36*
X97688D02*
X97617Y62074D01*
X97449Y61961D01*
X97337Y61793D01*
X97323Y61722D01*
X97688D01*
Y62088D01*
D02*
G37*
G36*
X103988Y62414D02*
X103869Y62390D01*
X103768Y62323D01*
X103700Y62222D01*
X103677Y62103D01*
X103700Y61984D01*
X103768Y61883D01*
X103869Y61816D01*
X103882Y61813D01*
X103882Y61684D01*
X103829Y61673D01*
X103695Y61583D01*
X103605Y61449D01*
X103599Y61417D01*
X104377D01*
X104370Y61449D01*
X104281Y61583D01*
X104146Y61673D01*
X104093Y61684D01*
X104093Y61813D01*
X104107Y61816D01*
X104207Y61883D01*
X104275Y61984D01*
X104298Y62103D01*
X104275Y62222D01*
X104207Y62323D01*
X104107Y62390D01*
X103988Y62414D01*
D02*
G37*
G36*
X96368Y61906D02*
X96249Y61882D01*
X96148Y61815D01*
X96080Y61714D01*
X96057Y61595D01*
X96080Y61476D01*
X96148Y61375D01*
X96249Y61308D01*
X96368Y61284D01*
X96487Y61308D01*
X96587Y61375D01*
X96655Y61476D01*
X96678Y61595D01*
X96655Y61714D01*
X96587Y61815D01*
X96487Y61882D01*
X96368Y61906D01*
D02*
G37*
G36*
X101698Y62255D02*
X100791D01*
X100802Y62199D01*
X100906Y62044D01*
X100960Y62007D01*
X100933Y61872D01*
X100907Y61867D01*
X100794Y61791D01*
X100718Y61678D01*
X100692Y61544D01*
X100718Y61410D01*
X100794Y61297D01*
X100907Y61221D01*
X101041Y61195D01*
X101175Y61221D01*
X101288Y61297D01*
X101364Y61410D01*
X101391Y61544D01*
X101364Y61678D01*
X101288Y61791D01*
X101325Y61919D01*
X101428Y61940D01*
X101583Y62044D01*
X101687Y62199D01*
X101698Y62255D01*
D02*
G37*
G36*
X99720Y61894D02*
X99587Y61867D01*
X99473Y61791D01*
X99397Y61678D01*
X99371Y61544D01*
X99397Y61410D01*
X99473Y61297D01*
X99587Y61221D01*
X99720Y61195D01*
X99854Y61221D01*
X99968Y61297D01*
X100043Y61410D01*
X100070Y61544D01*
X100043Y61678D01*
X99968Y61791D01*
X99854Y61867D01*
X99720Y61894D01*
D02*
G37*
G36*
X98308Y61468D02*
X97942D01*
Y61102D01*
X98014Y61116D01*
X98182Y61229D01*
X98294Y61397D01*
X98308Y61468D01*
D02*
G37*
G36*
X97688D02*
X97323D01*
X97337Y61397D01*
X97449Y61229D01*
X97617Y61116D01*
X97688Y61102D01*
Y61468D01*
D02*
G37*
G36*
X104377Y61163D02*
X104115D01*
Y60901D01*
X104146Y60907D01*
X104281Y60997D01*
X104370Y61132D01*
X104377Y61163D01*
D02*
G37*
G36*
X103861D02*
X103599D01*
X103605Y61132D01*
X103695Y60997D01*
X103829Y60907D01*
X103861Y60901D01*
Y61163D01*
D02*
G37*
G36*
X103268Y60045D02*
Y59783D01*
X103530D01*
X103524Y59815D01*
X103434Y59949D01*
X103299Y60039D01*
X103268Y60045D01*
D02*
G37*
G36*
X103014D02*
X102982Y60039D01*
X102848Y59949D01*
X102758Y59815D01*
X102752Y59783D01*
X103014D01*
Y60045D01*
D02*
G37*
G36*
X101575Y60001D02*
X101456Y59977D01*
X101355Y59910D01*
X101287Y59809D01*
X101264Y59690D01*
X101287Y59571D01*
X101355Y59470D01*
X101456Y59403D01*
X101575Y59379D01*
X101694Y59403D01*
X101794Y59470D01*
X101862Y59571D01*
X101885Y59690D01*
X101862Y59809D01*
X101794Y59910D01*
X101694Y59977D01*
X101575Y60001D01*
D02*
G37*
G36*
X103530Y59529D02*
X103268D01*
Y59267D01*
X103299Y59273D01*
X103434Y59363D01*
X103524Y59497D01*
X103530Y59529D01*
D02*
G37*
G36*
X103014D02*
X102752D01*
X102758Y59497D01*
X102848Y59363D01*
X102982Y59273D01*
X103014Y59267D01*
Y59529D01*
D02*
G37*
G36*
X105029Y59620D02*
X104910Y59596D01*
X104809Y59529D01*
X104742Y59428D01*
X104718Y59309D01*
X104742Y59190D01*
X104809Y59089D01*
X104910Y59022D01*
X105029Y58998D01*
X105148Y59022D01*
X105249Y59089D01*
X105316Y59190D01*
X105340Y59309D01*
X105316Y59428D01*
X105249Y59529D01*
X105148Y59596D01*
X105029Y59620D01*
D02*
G37*
G36*
X103937Y59239D02*
X103818Y59215D01*
X103717Y59148D01*
X103650Y59047D01*
X103626Y58928D01*
X103650Y58809D01*
X103717Y58708D01*
X103818Y58641D01*
X103937Y58617D01*
X104056Y58641D01*
X104157Y58708D01*
X104224Y58809D01*
X104248Y58928D01*
X104224Y59047D01*
X104157Y59148D01*
X104056Y59215D01*
X103937Y59239D01*
D02*
G37*
G36*
X102895Y58315D02*
Y57988D01*
X103222D01*
X103211Y58045D01*
X103107Y58200D01*
X102952Y58304D01*
X102895Y58315D01*
D02*
G37*
G36*
X102641D02*
X102585Y58304D01*
X102430Y58200D01*
X102326Y58045D01*
X102315Y57988D01*
X102641D01*
Y58315D01*
D02*
G37*
G36*
X93599Y65589D02*
X93480Y65565D01*
X93379Y65498D01*
X93312Y65397D01*
X93288Y65278D01*
X93312Y65159D01*
X93379Y65058D01*
X93480Y64991D01*
X93599Y64967D01*
X93718Y64991D01*
X93819Y65058D01*
X93886Y65159D01*
X93910Y65278D01*
X93886Y65397D01*
X93819Y65498D01*
X93718Y65565D01*
X93599Y65589D01*
D02*
G37*
G36*
X94666Y63776D02*
Y63449D01*
X94993D01*
X94981Y63506D01*
X94878Y63661D01*
X94722Y63765D01*
X94666Y63776D01*
D02*
G37*
G36*
X94412D02*
X94355Y63765D01*
X94200Y63661D01*
X94096Y63506D01*
X94085Y63449D01*
X94412D01*
Y63776D01*
D02*
G37*
G36*
X94993Y63195D02*
X94666D01*
Y62868D01*
X94722Y62880D01*
X94878Y62983D01*
X94981Y63139D01*
X94993Y63195D01*
D02*
G37*
G36*
X94412D02*
X94085D01*
X94096Y63139D01*
X94200Y62983D01*
X94355Y62880D01*
X94412Y62868D01*
Y63195D01*
D02*
G37*
G36*
X103881Y56951D02*
X103762Y56928D01*
X103661Y56860D01*
X103594Y56759D01*
X103570Y56641D01*
X103594Y56522D01*
X103661Y56421D01*
X103762Y56353D01*
X103881Y56330D01*
X104000Y56353D01*
X104101Y56421D01*
X104168Y56522D01*
X104192Y56641D01*
X104168Y56759D01*
X104101Y56860D01*
X104000Y56928D01*
X103881Y56951D01*
D02*
G37*
G36*
X98069Y56242D02*
X97950Y56218D01*
X97850Y56151D01*
X97782Y56050D01*
X97759Y55931D01*
X97782Y55812D01*
X97850Y55711D01*
X97950Y55644D01*
X98069Y55620D01*
X98188Y55644D01*
X98289Y55711D01*
X98357Y55812D01*
X98380Y55931D01*
X98357Y56050D01*
X98289Y56151D01*
X98188Y56218D01*
X98069Y56242D01*
D02*
G37*
G36*
X99688Y55680D02*
X99569Y55656D01*
X99468Y55588D01*
X99401Y55488D01*
X99377Y55369D01*
X99401Y55250D01*
X99468Y55149D01*
X99569Y55082D01*
X99688Y55058D01*
X99807Y55082D01*
X99908Y55149D01*
X99975Y55250D01*
X99999Y55369D01*
X99975Y55488D01*
X99908Y55588D01*
X99807Y55656D01*
X99688Y55680D01*
D02*
G37*
G36*
X113995Y55530D02*
X113876Y55507D01*
X113775Y55439D01*
X113708Y55339D01*
X113684Y55220D01*
X113708Y55101D01*
X113775Y55000D01*
X113876Y54932D01*
X113995Y54909D01*
X114114Y54932D01*
X114215Y55000D01*
X114282Y55101D01*
X114306Y55220D01*
X114282Y55339D01*
X114215Y55439D01*
X114114Y55507D01*
X113995Y55530D01*
D02*
G37*
G36*
X109969Y50984D02*
X109850Y50960D01*
X109799Y50926D01*
X109709Y50903D01*
X109619Y50926D01*
X109568Y50960D01*
X109449Y50984D01*
X109330Y50960D01*
X109229Y50893D01*
X109161Y50792D01*
X109138Y50673D01*
X109161Y50554D01*
X109229Y50453D01*
X109330Y50386D01*
X109449Y50362D01*
X109568Y50386D01*
X109619Y50420D01*
X109709Y50443D01*
X109799Y50420D01*
X109850Y50386D01*
X109969Y50362D01*
X110088Y50386D01*
X110189Y50453D01*
X110256Y50554D01*
X110280Y50673D01*
X110256Y50792D01*
X110189Y50893D01*
X110088Y50960D01*
X109969Y50984D01*
D02*
G37*
G36*
X95742Y48598D02*
X95623Y48575D01*
X95522Y48507D01*
X95455Y48406D01*
X95431Y48287D01*
X95455Y48168D01*
X95522Y48068D01*
X95623Y48000D01*
X95742Y47977D01*
X95861Y48000D01*
X95962Y48068D01*
X96029Y48168D01*
X96053Y48287D01*
X96029Y48406D01*
X95962Y48507D01*
X95861Y48575D01*
X95742Y48598D01*
D02*
G37*
G36*
X115878Y46614D02*
X115759Y46590D01*
X115658Y46523D01*
X115590Y46422D01*
X115567Y46303D01*
X115590Y46184D01*
X115658Y46084D01*
X115759Y46016D01*
X115878Y45993D01*
X115996Y46016D01*
X116097Y46084D01*
X116165Y46184D01*
X116188Y46303D01*
X116165Y46422D01*
X116097Y46523D01*
X115996Y46590D01*
X115878Y46614D01*
D02*
G37*
%LPD*%
D33*
X90221Y72009D02*
Y81229D01*
Y72009D02*
X96520Y65710D01*
X101328Y57739D02*
Y58336D01*
X109451Y49616D02*
X111958D01*
X101328Y57739D02*
X109451Y49616D01*
X107293Y49034D02*
X111738D01*
X95615Y60711D02*
X107293Y49034D01*
X112997Y43785D02*
Y48578D01*
X111958Y49616D02*
X112997Y48578D01*
X99187Y60477D02*
X101328Y58336D01*
X95615Y60711D02*
Y62212D01*
X96520Y63117D01*
Y65710D01*
D36*
X98755Y83820D02*
X99949D01*
X99974Y83795D02*
X100036Y83733D01*
X100593Y83176D01*
X100745D01*
X100822Y83253D01*
X100973D01*
X101124Y83102D01*
Y82950D02*
Y83102D01*
X101006Y82832D02*
X101124Y82950D01*
X101006Y82681D02*
Y82832D01*
Y82681D02*
X101157Y82530D01*
X101308D01*
X101558Y82779D01*
X101709D01*
X101860Y82627D01*
Y82476D02*
Y82627D01*
X101603Y82219D02*
X101860Y82476D01*
X101603Y82068D02*
Y82219D01*
Y82068D02*
X101754Y81917D01*
X101906D01*
X102162Y82174D01*
X102314D01*
X102465Y82023D01*
Y81871D02*
Y82023D01*
X102216Y81622D02*
X102465Y81871D01*
X102216Y81471D02*
Y81622D01*
Y81471D02*
X102367Y81320D01*
X102518D01*
X102767Y81569D01*
X102919D01*
X103070Y81418D01*
Y81266D02*
Y81418D01*
X102862Y81058D02*
X103070Y81266D01*
X102862Y80907D02*
Y81058D01*
Y80907D02*
X103164Y80605D01*
X103226Y80543D01*
X99949Y83820D02*
X99974Y83795D01*
X103226Y80543D02*
X103454Y80315D01*
X96901Y85674D02*
X98755Y83820D01*
X96901Y85674D02*
Y86157D01*
X103454Y79604D02*
Y80315D01*
X102449Y71730D02*
X102489Y71770D01*
X102385Y70792D02*
X102434Y70842D01*
D39*
X97612Y82271D02*
X98958D01*
X96418Y81940D02*
Y82403D01*
X97627Y83860D02*
X97663Y83896D01*
X97627Y83611D02*
Y83860D01*
X96418Y82403D02*
X97627Y83611D01*
X96825Y82194D02*
X97231Y81788D01*
X98409Y83007D02*
X99619D01*
X96418Y81940D02*
X96876Y81483D01*
X97358D01*
X96088Y81610D02*
X97893Y79806D01*
X97961Y79737D01*
X98098D01*
X98322Y79962D01*
X98459D01*
X98596Y79825D01*
Y79688D02*
Y79825D01*
X98363Y79455D02*
X98596Y79688D01*
X98363Y79319D02*
X98363Y79455D01*
X98363Y79319D02*
X98500Y79182D01*
X98636Y79182D01*
X98869Y79415D01*
X99006D01*
X99143Y79278D01*
Y79141D02*
Y79278D01*
X98918Y78917D02*
X99143Y79141D01*
X98918Y78780D02*
Y78917D01*
Y78780D02*
X99239Y78460D01*
X96834Y80534D02*
X99205Y78163D01*
X95834Y81534D02*
Y81967D01*
Y81534D02*
X96377Y80992D01*
Y80855D02*
Y80992D01*
X96377Y80855D02*
X96377Y80855D01*
X96377Y80718D02*
Y80855D01*
Y80718D02*
X96513Y80581D01*
X96650D01*
X96650Y80581D01*
X96787D01*
X96787Y80581D01*
X96834Y80534D01*
X95834Y81967D02*
Y87097D01*
X99239Y78460D02*
X101328Y76371D01*
X95729Y80075D02*
X95866Y79938D01*
X97508Y78161D02*
X97738Y78392D01*
X99969Y75563D02*
X100106Y75426D01*
X98328Y77204D02*
X98328Y77341D01*
X99422Y76110D02*
X99559Y75973D01*
X98875Y76794D02*
X99106Y77025D01*
X98832Y77298D02*
X98969D01*
X97234Y78435D02*
X97457Y78657D01*
X98465Y77067D02*
X98602Y77067D01*
X98875Y76657D02*
X99012Y76520D01*
X99149Y76520D01*
X97234Y78298D02*
X97371Y78161D01*
X96226Y80025D02*
X97457Y78794D01*
X97738Y78392D02*
X97875D01*
X100602Y75649D02*
X100649Y75602D01*
X99422Y76110D02*
X99422Y76247D01*
X99149Y76520D02*
X99379Y76751D01*
X95866Y79938D02*
X96003Y79938D01*
X95339Y80912D02*
X95816Y80435D01*
X95729Y80212D02*
X95816Y80298D01*
X100106Y75426D02*
X100243Y75426D01*
X99559Y75973D02*
X99696Y75973D01*
X98328Y77204D02*
X98465Y77067D01*
X100200Y75931D02*
Y76067D01*
X97234Y78298D02*
X97234Y78435D01*
X99926Y76204D02*
X100063D01*
X98969Y77298D02*
X99106Y77161D01*
X98422Y77845D02*
X98559Y77708D01*
X98055Y77614D02*
X98285Y77845D01*
X100063Y76204D02*
X100200Y76067D01*
X99653Y76478D02*
Y76614D01*
X98012Y78119D02*
Y78255D01*
X97875Y78392D02*
X98012Y78255D01*
X97781Y77888D02*
X98012Y78119D01*
X99516Y76751D02*
X99653Y76614D01*
X98285Y77845D02*
X98422D01*
X95816Y80298D02*
Y80435D01*
X99969Y75700D02*
X100200Y75931D01*
X99106Y77025D02*
Y77161D01*
X100243Y75426D02*
X100465Y75649D01*
X95729Y80075D02*
X95729Y80212D01*
X99969Y75563D02*
X99969Y75700D01*
X97918Y77614D02*
X98055Y77614D01*
X96003Y79938D02*
X96089Y80025D01*
X100465Y75649D02*
X100602D01*
X99379Y76751D02*
X99516D01*
X99422Y76247D02*
X99653Y76478D01*
X97781Y77751D02*
X97781Y77888D01*
X98875Y76657D02*
X98875Y76794D01*
X97371Y78161D02*
X97508Y78161D01*
X98328Y77341D02*
X98559Y77572D01*
X97457Y78657D02*
Y78794D01*
X96089Y80025D02*
X96226D01*
X99696Y75973D02*
X99926Y76204D01*
X97781Y77751D02*
X97918Y77614D01*
X98559Y77572D02*
Y77708D01*
X98602Y77067D02*
X98832Y77298D01*
X92758Y87071D02*
X92768Y87081D01*
Y87086D01*
X95834Y87097D02*
X96875Y88137D01*
Y88801D01*
X94564Y88316D02*
X95301Y87579D01*
Y87046D02*
Y87579D01*
X92758Y85163D02*
Y87071D01*
X94158Y79502D02*
X94209D01*
X95333Y83725D02*
Y85794D01*
X94818Y83210D02*
X95333Y83725D01*
X94812Y80270D02*
X95123Y79959D01*
X94812Y83186D02*
X94818Y83192D01*
X94396Y82949D02*
X94424Y82977D01*
X94818Y83192D02*
Y83210D01*
X94812Y80270D02*
Y83186D01*
X94396Y81033D02*
Y82949D01*
X95184Y81067D02*
Y83033D01*
X94082Y87427D02*
X94463Y87808D01*
X97765Y85979D02*
X100152D01*
X101600Y84531D01*
X92237Y79520D02*
Y80239D01*
X92140Y79424D02*
X92237Y79520D01*
X92063Y79424D02*
X92140D01*
X91966Y79327D02*
X92063Y79424D01*
X91966Y79134D02*
Y79327D01*
Y79134D02*
X92063Y79037D01*
X92140D01*
X92237Y78940D01*
Y78747D02*
Y78940D01*
X92140Y78650D02*
X92237Y78747D01*
X92063Y78650D02*
X92140D01*
X91966Y78553D02*
X92063Y78650D01*
X91966Y78360D02*
Y78553D01*
Y78360D02*
X92063Y78263D01*
X92140D01*
X92237Y78167D01*
Y77973D02*
Y78167D01*
X92140Y77877D02*
X92237Y77973D01*
X92063Y77877D02*
X92140D01*
X91966Y77780D02*
X92063Y77877D01*
X91966Y77587D02*
Y77780D01*
Y77587D02*
X92063Y77490D01*
X92246D01*
X92343Y77393D01*
Y77200D02*
Y77393D01*
X92246Y77103D02*
X92343Y77200D01*
X92063Y77103D02*
X92246D01*
X91966Y77006D02*
X92063Y77103D01*
X91966Y76813D02*
Y77006D01*
Y76813D02*
X92063Y76716D01*
X92648D01*
X92745Y76620D01*
Y76426D02*
Y76620D01*
X92648Y76330D02*
X92745Y76426D01*
X92063Y76330D02*
X92648D01*
X91966Y76233D02*
X92063Y76330D01*
X91966Y76040D02*
Y76233D01*
Y76040D02*
X92063Y75943D01*
X92648D01*
X92745Y75846D01*
Y75653D02*
Y75846D01*
X92648Y75556D02*
X92745Y75653D01*
X92063Y75556D02*
X92648D01*
X91966Y75459D02*
X92063Y75556D01*
X91966Y75266D02*
Y75459D01*
Y75266D02*
X92063Y75169D01*
X92140D01*
X92237Y75073D01*
Y75006D02*
Y75073D01*
Y80239D02*
Y83804D01*
Y73295D02*
Y75006D01*
X91745Y83081D02*
Y83236D01*
X91648Y82984D02*
X91745Y83081D01*
X91470Y82984D02*
X91648D01*
X91374Y82888D02*
X91470Y82984D01*
X91374Y82694D02*
Y82888D01*
Y82694D02*
X91470Y82598D01*
X91918D01*
X92015Y82501D01*
Y82308D02*
Y82501D01*
X91918Y82211D02*
X92015Y82308D01*
X91333Y82211D02*
X91918D01*
X91237Y82114D02*
X91333Y82211D01*
X91237Y81921D02*
Y82114D01*
Y81921D02*
X91333Y81824D01*
X91648D01*
X91745Y81727D01*
Y81661D02*
Y81727D01*
Y83236D02*
Y84150D01*
Y73127D02*
Y81661D01*
X94670Y85932D02*
X94726Y85877D01*
Y85740D02*
Y85877D01*
X94503Y85517D02*
X94726Y85740D01*
X94503Y85381D02*
X94503Y85517D01*
X94503Y85381D02*
X94640Y85244D01*
X94777Y85244D01*
X94864Y85331D01*
X95001D01*
X95098Y85235D01*
Y85141D02*
Y85235D01*
X94454Y86148D02*
X94670Y85932D01*
X95098Y84176D02*
Y85141D01*
X93777Y78435D02*
Y80035D01*
Y78435D02*
X96114Y76098D01*
X93389Y78493D02*
Y82467D01*
Y78493D02*
X95885Y75997D01*
X93389Y82467D02*
X95098Y84176D01*
X93116Y78410D02*
Y82728D01*
Y78410D02*
X95631Y75895D01*
X93116Y82728D02*
X94763Y84375D01*
X102732Y79894D02*
X102819Y79807D01*
X102732Y79894D02*
X102732Y80031D01*
X102954Y80253D01*
Y80390D01*
X102818Y80527D02*
X102954Y80390D01*
X102681Y80527D02*
X102818D01*
X102276Y80122D02*
X102681Y80527D01*
X102139Y80122D02*
X102276Y80122D01*
X102002Y80259D02*
X102139Y80122D01*
X102002Y80259D02*
X102002Y80395D01*
X102407Y80800D01*
Y80937D01*
X102271Y81074D02*
X102407Y80937D01*
X102134Y81074D02*
X102271D01*
X101729Y80669D02*
X102134Y81074D01*
X101592Y80669D02*
X101729Y80669D01*
X101455Y80806D02*
X101592Y80669D01*
X101455Y80806D02*
X101455Y80942D01*
X101860Y81347D01*
Y81484D01*
X101724Y81621D02*
X101860Y81484D01*
X101587Y81621D02*
X101724D01*
X101182Y81216D02*
X101587Y81621D01*
X101045Y81216D02*
X101182Y81216D01*
X100908Y81353D02*
X101045Y81216D01*
X100908Y81353D02*
X100908Y81489D01*
X101313Y81894D01*
Y82031D01*
X101177Y82168D02*
X101313Y82031D01*
X101040Y82168D02*
X101177D01*
X100635Y81763D02*
X101040Y82168D01*
X100498Y81763D02*
X100635Y81763D01*
X100361Y81900D02*
X100498Y81763D01*
X100361Y81900D02*
X100361Y82036D01*
X100766Y82441D01*
Y82578D01*
X100630Y82715D02*
X100766Y82578D01*
X100493Y82715D02*
X100630D01*
X100270Y82492D02*
X100493Y82715D01*
X100134Y82492D02*
X100270Y82492D01*
X100087Y82539D02*
X100134Y82492D01*
X99619Y83007D02*
X100087Y82539D01*
X93658Y85590D02*
Y87850D01*
X94763Y84375D02*
Y84485D01*
X93658Y85590D02*
X94763Y84485D01*
X96266Y75387D02*
X96537Y75116D01*
X96674D01*
X96886Y75329D01*
X97023Y75329D01*
X97159Y75192D01*
X97159Y75055D02*
X97159Y75192D01*
X96926Y74822D02*
X97159Y75055D01*
X96926Y74685D02*
Y74822D01*
Y74685D02*
X97063Y74548D01*
X97199D01*
X97433Y74782D01*
X97569Y74782D01*
X97706Y74645D01*
X97706Y74508D02*
X97706Y74645D01*
X97473Y74275D02*
X97706Y74508D01*
X97473Y74138D02*
Y74275D01*
Y74138D02*
X97610Y74001D01*
X97746D01*
X98170Y74425D01*
X98307D01*
X98444Y74289D01*
Y74152D02*
Y74289D01*
X98020Y73728D02*
X98444Y74152D01*
X98020Y73591D02*
Y73728D01*
Y73591D02*
X98157Y73454D01*
X98293D01*
X98820Y73981D01*
X98956D01*
X99093Y73844D01*
Y73707D02*
Y73844D01*
X98567Y73181D02*
X99093Y73707D01*
X98567Y73044D02*
Y73181D01*
Y73044D02*
X98704Y72907D01*
X98840D01*
X99085Y73152D01*
X99222D01*
X99359Y73015D01*
Y72879D02*
Y73015D01*
X99135Y72655D02*
X99359Y72879D01*
X99135Y72518D02*
Y72655D01*
Y72518D02*
X99455Y72198D01*
X96114Y75540D02*
X96266Y75387D01*
X99455Y72198D02*
X99892Y71761D01*
Y71603D02*
Y71761D01*
X96114Y75540D02*
Y76098D01*
X99993Y72346D02*
X100051Y72288D01*
X99993Y72346D02*
Y72694D01*
X99892Y71603D02*
X99949Y71546D01*
X95885Y75413D02*
Y75997D01*
Y75413D02*
X99568Y71730D01*
Y70670D02*
Y71730D01*
X95631Y75260D02*
Y75895D01*
X99187Y70053D02*
Y71704D01*
X95631Y75260D02*
X99187Y71704D01*
X99383Y73914D02*
Y74277D01*
X99119Y74541D02*
X99383Y74277D01*
X99022Y74638D02*
X99119Y74541D01*
X98885Y74638D02*
X99022D01*
X98715Y74468D02*
X98885Y74638D01*
X98578Y74468D02*
X98715Y74468D01*
X98442Y74604D02*
X98578Y74468D01*
X98442Y74604D02*
X98442Y74741D01*
X98637Y74937D01*
Y75073D01*
X98500Y75210D02*
X98637Y75073D01*
X98364Y75210D02*
X98500D01*
X97977Y74824D02*
X98364Y75210D01*
X97841Y74824D02*
X97977Y74824D01*
X97704Y74961D02*
X97841Y74824D01*
X97704Y74961D02*
X97704Y75097D01*
X98090Y75484D01*
Y75620D01*
X97953Y75757D02*
X98090Y75620D01*
X97817Y75757D02*
X97953D01*
X97430Y75371D02*
X97817Y75757D01*
X97294Y75371D02*
X97430Y75371D01*
X97157Y75508D02*
X97294Y75371D01*
X97157Y75508D02*
X97157Y75644D01*
X97543Y76031D01*
Y76167D01*
X97407Y76304D02*
X97543Y76167D01*
X97270Y76304D02*
X97407D01*
X96883Y75918D02*
X97270Y76304D01*
X96747Y75918D02*
X96883Y75918D01*
X96610Y76055D02*
X96747Y75918D01*
X96610Y76055D02*
X96610Y76191D01*
X96996Y76578D01*
Y76714D01*
X96860Y76851D02*
X96996Y76714D01*
X96723Y76851D02*
X96860D01*
X96337Y76465D02*
X96723Y76851D01*
X96200Y76465D02*
X96337Y76465D01*
X96063Y76601D02*
X96200Y76465D01*
X96063Y76601D02*
X96063Y76738D01*
X96449Y77125D01*
Y77261D01*
X96313Y77398D02*
X96449Y77261D01*
X96176Y77398D02*
X96313D01*
X95790Y77012D02*
X96176Y77398D01*
X95653Y77012D02*
X95790Y77012D01*
X95516Y77148D02*
X95653Y77012D01*
X95516Y77148D02*
X95516Y77285D01*
X95902Y77671D01*
Y77808D01*
X95766Y77945D02*
X95902Y77808D01*
X95629Y77945D02*
X95766D01*
X95243Y77559D02*
X95629Y77945D01*
X95106Y77559D02*
X95243Y77559D01*
X94969Y77695D02*
X95106Y77559D01*
X94969Y77695D02*
X94969Y77832D01*
X95355Y78218D01*
Y78355D01*
X95219Y78492D02*
X95355Y78355D01*
X95082Y78492D02*
X95219D01*
X94696Y78106D02*
X95082Y78492D01*
X94559Y78106D02*
X94696Y78106D01*
X94422Y78242D02*
X94559Y78106D01*
X94422Y78242D02*
X94422Y78379D01*
X94808Y78765D01*
Y78902D01*
X94488Y79223D02*
X94808Y78902D01*
X99383Y73565D02*
Y73914D01*
X94209Y79502D02*
X94488Y79223D01*
X94580Y79444D02*
X94772Y79252D01*
X94580Y79444D02*
Y80850D01*
X94396Y81033D02*
X94580Y80850D01*
X95184Y81067D02*
X95339Y80912D01*
X100649Y71143D02*
Y75602D01*
X95123Y79959D02*
X95560Y79522D01*
X95697Y79522D01*
X95822Y79648D01*
X95959Y79648D01*
X96096Y79511D01*
X96096Y79375D02*
X96096Y79511D01*
X95957Y79236D02*
X96096Y79375D01*
X95957Y79099D02*
Y79236D01*
Y79099D02*
X96094Y78962D01*
X96230D01*
X96466Y79198D01*
X96603Y79198D01*
X96740Y79061D01*
X96740Y78924D02*
X96740Y79061D01*
X96517Y78702D02*
X96740Y78924D01*
X96517Y78565D02*
X96517Y78702D01*
X96517Y78565D02*
X96838Y78245D01*
X100427Y74655D01*
Y71446D02*
Y74655D01*
X94772Y79252D02*
X94860Y79164D01*
X94996Y79164D01*
X95206Y79374D01*
X95343Y79374D01*
X95480Y79237D01*
X95480Y79101D02*
X95480Y79237D01*
X95270Y78891D02*
X95480Y79101D01*
X95270Y78754D02*
X95270Y78891D01*
X95270Y78754D02*
X95407Y78617D01*
X95543Y78617D01*
X95766Y78840D01*
X95903Y78840D01*
X96039Y78703D01*
X96039Y78566D02*
X96039Y78703D01*
X95817Y78344D02*
X96039Y78566D01*
X95817Y78207D02*
X95817Y78344D01*
X95817Y78207D02*
X95954Y78071D01*
X96090Y78071D01*
X96313Y78293D01*
X96450Y78293D01*
X96586Y78156D01*
X96586Y78020D02*
X96586Y78156D01*
X96364Y77797D02*
X96586Y78020D01*
X96364Y77660D02*
X96364Y77797D01*
X96364Y77660D02*
X96501Y77524D01*
X96637Y77524D01*
X96860Y77746D01*
X96996Y77746D01*
X97133Y77609D01*
X97133Y77473D02*
X97133Y77609D01*
X96911Y77250D02*
X97133Y77473D01*
X96911Y77113D02*
X96911Y77250D01*
X96911Y77113D02*
X97048Y76977D01*
X97184Y76977D01*
X97407Y77199D01*
X97543Y77199D01*
X97680Y77062D01*
X97680Y76926D02*
X97680Y77062D01*
X97458Y76703D02*
X97680Y76926D01*
X97458Y76566D02*
X97458Y76703D01*
X97458Y76566D02*
X97594Y76430D01*
X97731Y76430D01*
X97954Y76652D01*
X98090Y76652D01*
X98227Y76515D01*
X98227Y76379D02*
X98227Y76515D01*
X98005Y76156D02*
X98227Y76379D01*
X98005Y76019D02*
X98005Y76156D01*
X98005Y76019D02*
X98141Y75883D01*
X98278Y75883D01*
X98501Y76105D01*
X98637Y76105D01*
X98774Y75968D01*
X98774Y75832D02*
X98774Y75968D01*
X98552Y75609D02*
X98774Y75832D01*
X98552Y75472D02*
X98552Y75609D01*
X98552Y75472D02*
X98688Y75336D01*
X98825Y75336D01*
X99048Y75558D01*
X99184Y75558D01*
X99321Y75421D01*
X99321Y75285D02*
X99321Y75421D01*
X99099Y75062D02*
X99321Y75285D01*
X99099Y74925D02*
X99099Y75062D01*
X99099Y74925D02*
X99235Y74789D01*
X99372Y74789D01*
X99595Y75011D01*
X99731Y75011D01*
X99868Y74874D01*
X99868Y74738D02*
X99868Y74874D01*
X99646Y74515D02*
X99868Y74738D01*
X99646Y74378D02*
X99646Y74515D01*
X99646Y74378D02*
X99933Y74091D01*
Y74025D02*
Y74091D01*
Y73279D02*
Y74025D01*
X99390Y73297D02*
Y73558D01*
X99383Y73565D02*
X99390Y73558D01*
X92900Y77559D02*
X93132Y77327D01*
X93269D01*
X93492Y77549D01*
X93628D01*
X93765Y77413D01*
Y77276D02*
Y77413D01*
X93543Y77053D02*
X93765Y77276D01*
X93543Y76917D02*
Y77053D01*
Y76917D02*
X93679Y76780D01*
X93816D01*
X94039Y77002D01*
X94175D01*
X94312Y76866D01*
Y76729D02*
Y76866D01*
X94090Y76507D02*
X94312Y76729D01*
X94090Y76370D02*
Y76507D01*
Y76370D02*
X94226Y76233D01*
X94363D01*
X94586Y76455D01*
X94722D01*
X94859Y76319D01*
Y76182D02*
Y76319D01*
X94637Y75960D02*
X94859Y76182D01*
X94637Y75823D02*
Y75960D01*
Y75823D02*
X94773Y75686D01*
X94910D01*
X95133Y75909D01*
X95269D01*
X95406Y75772D01*
Y75635D02*
Y75772D01*
X95184Y75413D02*
X95406Y75635D01*
X95184Y75276D02*
Y75413D01*
Y75276D02*
X95504Y74955D01*
X92710Y77749D02*
X92900Y77559D01*
X95504Y74955D02*
X98349Y72111D01*
Y70053D02*
Y72111D01*
X92710Y77749D02*
Y82923D01*
X92458Y77688D02*
X97917Y72229D01*
Y71222D02*
Y72229D01*
X92458Y77688D02*
Y83492D01*
X93472Y88316D02*
X94564D01*
X93193Y88036D02*
X93472Y88316D01*
X93193Y84226D02*
Y88036D01*
X92710Y82923D02*
X94187Y84400D01*
X97503Y71722D02*
X97546Y71679D01*
X97503Y71722D02*
Y71747D01*
X97561Y70866D02*
X97917Y71222D01*
X96860Y72390D02*
X97503Y71747D01*
X95555Y81026D02*
X100870Y75710D01*
Y71051D02*
Y75710D01*
X99939Y70958D02*
X100427Y71446D01*
X99949Y70443D02*
X100649Y71143D01*
X100171Y70351D02*
X100870Y71051D01*
X96088Y86944D02*
X96977Y87833D01*
X96088Y81610D02*
Y86944D01*
X95555Y81026D02*
Y85928D01*
X94509Y86974D02*
X95555Y85928D01*
X94513Y86614D02*
X95333Y85794D01*
X94509Y86974D02*
Y87016D01*
X94082Y86919D02*
X94386Y86614D01*
X94513D01*
X94082Y86919D02*
Y87427D01*
X99568Y70670D02*
X99727Y70510D01*
X99187Y69317D02*
X99727Y69857D01*
Y70510D01*
X99390Y73297D02*
X99993Y72694D01*
X99949Y69291D02*
Y70443D01*
X100171Y69687D02*
Y70351D01*
X100392Y70251D02*
X100687Y70546D01*
X100830D02*
X101092Y70807D01*
X100687Y70546D02*
X100830D01*
X100178Y69647D02*
Y69680D01*
X100171Y69687D02*
X100178Y69680D01*
X100392Y69779D02*
X100846Y69325D01*
X100392Y69779D02*
Y70251D01*
X100736Y68478D02*
Y68910D01*
X100428Y69218D02*
X100736Y68910D01*
X100428Y69218D02*
Y69396D01*
X100178Y69647D02*
X100428Y69396D01*
X92458Y83492D02*
X93193Y84226D01*
X92237Y73295D02*
X93142Y72390D01*
X96860D01*
X93167Y71704D02*
X96774D01*
X91745Y73127D02*
X93167Y71704D01*
X99205Y78163D02*
X101092Y76276D01*
X102604Y83527D02*
X103645Y82487D01*
X102604Y83527D02*
Y83664D01*
X102728Y83788D01*
Y83924D01*
X102591Y84061D02*
X102728Y83924D01*
X102455Y84061D02*
X102591D01*
X101971Y83578D02*
X102455Y84061D01*
X101835Y83578D02*
X101971D01*
X101698Y83715D02*
X101835Y83578D01*
X101698Y83715D02*
Y83852D01*
X102280Y84433D01*
Y84570D01*
X102143Y84707D02*
X102280Y84570D01*
X102006Y84707D02*
X102143D01*
X101784Y84484D02*
X102006Y84707D01*
X101647Y84484D02*
X101784D01*
X101600Y84531D02*
X101647Y84484D01*
X103645Y82487D02*
X103784Y82347D01*
X102819Y79807D02*
X103048Y79578D01*
X103454Y71638D02*
Y79604D01*
X96901Y86157D02*
Y87046D01*
X103784Y70917D02*
Y82347D01*
X102489Y78081D02*
Y78283D01*
Y78081D02*
X102586Y77984D01*
X102729D01*
X102826Y77887D01*
Y77694D02*
Y77887D01*
X102729Y77597D02*
X102826Y77694D01*
X102264Y77597D02*
X102729D01*
X102167Y77501D02*
X102264Y77597D01*
X102167Y77307D02*
Y77501D01*
Y77307D02*
X102264Y77210D01*
X102729D01*
X102826Y77114D01*
Y76920D02*
Y77114D01*
X102729Y76824D02*
X102826Y76920D01*
X102264Y76824D02*
X102729D01*
X102167Y76727D02*
X102264Y76824D01*
X102167Y76534D02*
Y76727D01*
Y76534D02*
X102264Y76437D01*
X102729D01*
X102826Y76340D01*
Y76147D02*
Y76340D01*
X102729Y76050D02*
X102826Y76147D01*
X102264Y76050D02*
X102729D01*
X102167Y75953D02*
X102264Y76050D01*
X102167Y75760D02*
Y75953D01*
Y75760D02*
X102264Y75663D01*
X102729D01*
X102826Y75567D01*
Y75373D02*
Y75567D01*
X102729Y75277D02*
X102826Y75373D01*
X102264Y75277D02*
X102729D01*
X102167Y75180D02*
X102264Y75277D01*
X102167Y74987D02*
Y75180D01*
Y74987D02*
X102264Y74890D01*
X102392D01*
X102489Y74793D01*
Y74727D02*
Y74793D01*
Y78283D02*
Y78740D01*
Y71770D02*
Y74727D01*
X102328Y78901D02*
X102489Y78740D01*
X102328Y78901D02*
Y79038D01*
X102551Y79260D01*
Y79397D01*
X102414Y79533D02*
X102551Y79397D01*
X102277Y79533D02*
X102414D01*
X102025Y79281D02*
X102277Y79533D01*
X101888Y79281D02*
X102025D01*
X101752Y79418D02*
X101888Y79281D01*
X101752Y79418D02*
Y79555D01*
X102004Y79807D01*
Y79944D01*
X101867Y80080D02*
X102004Y79944D01*
X101730Y80080D02*
X101867D01*
X101478Y79828D02*
X101730Y80080D01*
X101341Y79828D02*
X101478D01*
X101205Y79965D02*
X101341Y79828D01*
X101205Y79965D02*
Y80102D01*
X101457Y80354D01*
Y80491D01*
X101320Y80627D02*
X101457Y80491D01*
X101183Y80627D02*
X101320D01*
X100931Y80375D02*
X101183Y80627D01*
X100794Y80375D02*
X100931D01*
X100658Y80512D02*
X100794Y80375D01*
X100658Y80512D02*
Y80649D01*
X100910Y80901D01*
Y81038D01*
X100773Y81174D02*
X100910Y81038D01*
X100636Y81174D02*
X100773D01*
X100384Y80922D02*
X100636Y81174D01*
X100247Y80922D02*
X100384D01*
X100111Y81059D02*
X100247Y80922D01*
X100111Y81059D02*
Y81196D01*
X100363Y81448D01*
Y81585D01*
X100226Y81721D02*
X100363Y81585D01*
X100089Y81721D02*
X100226D01*
X99837Y81469D02*
X100089Y81721D01*
X99701Y81469D02*
X99837D01*
X99564Y81606D02*
X99701Y81469D01*
X99564Y81606D02*
Y81743D01*
X99816Y81995D01*
Y82132D01*
X99679Y82268D02*
X99816Y82132D01*
X99542Y82268D02*
X99679D01*
X99320Y82046D02*
X99542Y82268D01*
X99183Y82046D02*
X99320D01*
X99136Y82093D02*
X99183Y82046D01*
X98958Y82271D02*
X99136Y82093D01*
X101350Y78583D02*
X101740Y78194D01*
X101350Y78583D02*
Y78720D01*
X101675Y79045D01*
Y79181D01*
X101538Y79318D02*
X101675Y79181D01*
X101401Y79318D02*
X101538D01*
X101047Y78963D02*
X101401Y79318D01*
X100910Y78963D02*
X101047Y78963D01*
X100773Y79100D02*
X100910Y78963D01*
X100773Y79100D02*
X100773Y79237D01*
X101128Y79592D01*
Y79728D01*
X100991Y79865D02*
X101128Y79728D01*
X100854Y79865D02*
X100991D01*
X100500Y79510D02*
X100854Y79865D01*
X100363Y79510D02*
X100500Y79510D01*
X100226Y79647D02*
X100363Y79510D01*
X100226Y79647D02*
X100226Y79784D01*
X100581Y80139D01*
Y80275D01*
X100444Y80412D02*
X100581Y80275D01*
X100307Y80412D02*
X100444D01*
X99624Y79728D02*
X100307Y80412D01*
X99487Y79728D02*
X99624D01*
X99350Y79865D02*
X99487Y79728D01*
X99350Y79865D02*
Y80002D01*
X100034Y80686D01*
Y80822D01*
X99897Y80959D02*
X100034Y80822D01*
X99761Y80959D02*
X99897D01*
X99077Y80275D02*
X99761Y80959D01*
X98940Y80275D02*
X99077D01*
X98803Y80412D02*
X98940Y80275D01*
X98803Y80412D02*
Y80549D01*
X99487Y81232D01*
Y81369D01*
X99350Y81506D02*
X99487Y81369D01*
X99214Y81506D02*
X99350D01*
X98530Y80822D02*
X99214Y81506D01*
X98393Y80822D02*
X98530D01*
X98256Y80959D02*
X98393Y80822D01*
X98256Y80959D02*
Y81096D01*
X98868Y81707D01*
X98868Y81844D01*
X98731Y81981D02*
X98868Y81844D01*
X98594Y81981D02*
X98731Y81981D01*
X98342Y81728D02*
X98594Y81981D01*
X98205Y81728D02*
X98342D01*
X98158Y81775D02*
X98205Y81728D01*
X101740Y78194D02*
X101946Y77988D01*
X98146Y81788D02*
X98158Y81775D01*
X97231Y81788D02*
X98146D01*
X101946Y71984D02*
Y77988D01*
X99251Y79591D02*
X99483Y79358D01*
X99620Y79358D01*
X99843Y79581D01*
X99979Y79581D01*
X100116Y79444D01*
X100116Y79307D02*
X100116Y79444D01*
X99534Y78725D02*
X100116Y79307D01*
X99534Y78589D02*
X99534Y78725D01*
X99534Y78589D02*
X99671Y78452D01*
X99808Y78452D01*
X100389Y79034D01*
X100526Y79034D01*
X100663Y78897D01*
X100663Y78760D02*
X100663Y78897D01*
X100081Y78178D02*
X100663Y78760D01*
X100081Y78042D02*
X100081Y78178D01*
X100081Y78042D02*
X100218Y77905D01*
X100355Y77905D01*
X100936Y78487D01*
X101073Y78487D01*
X101210Y78350D01*
X101210Y78213D02*
X101210Y78350D01*
X100628Y77631D02*
X101210Y78213D01*
X100628Y77495D02*
X100628Y77631D01*
X100628Y77495D02*
X100765Y77358D01*
X100902Y77358D01*
X101124Y77580D01*
X101261D01*
X101308Y77534D01*
X97358Y81483D02*
X99251Y79591D01*
X101308Y77534D02*
X101575Y77267D01*
Y70663D02*
Y77267D01*
X101328Y70729D02*
Y76371D01*
X101092Y70807D02*
Y76276D01*
X91745Y84150D02*
X92758Y85163D01*
X92237Y83804D02*
X92558Y84125D01*
X101135Y70223D02*
X101575Y70663D01*
X101135Y69655D02*
Y70223D01*
X101506Y70035D02*
X101930Y70460D01*
X100764Y70165D02*
X101328Y70729D01*
X101135Y69655D02*
X101549Y69240D01*
X101506Y70028D02*
Y70035D01*
X100764Y70095D02*
Y70165D01*
X103048Y71603D02*
Y79578D01*
X102649Y71204D02*
X103048Y71603D01*
X102658Y70842D02*
X103454Y71638D01*
X103327Y70460D02*
X103784Y70917D01*
X96977Y87833D02*
X97663D01*
X102434Y70842D02*
X102658D01*
X102243Y71204D02*
X102649D01*
X101930Y70891D02*
X102243Y71204D01*
X101930Y70460D02*
Y70891D01*
X102743Y70460D02*
X103327D01*
X102362Y70079D02*
X102743Y70460D01*
D41*
X80874Y65024D02*
D03*
D42*
Y62484D02*
D03*
D43*
X129718Y58441D02*
D03*
Y62941D02*
D03*
D44*
Y54991D02*
D03*
Y66391D02*
D03*
D45*
X119580Y47800D02*
D03*
X119080Y47300D02*
D03*
X120080D02*
D03*
Y48300D02*
D03*
X119080D02*
D03*
D46*
X97612Y82271D02*
D03*
X96825Y82194D02*
D03*
X97663Y83896D02*
D03*
X98409Y83007D02*
D03*
X99449Y89112D02*
D03*
D03*
X90988Y86614D02*
D03*
D03*
X92768Y87086D02*
D03*
X96105Y88752D02*
D03*
D03*
X96875Y88801D02*
D03*
X90988Y83941D02*
D03*
D03*
X95301Y87046D02*
D03*
X94158Y79502D02*
D03*
X98624Y85573D02*
D03*
D03*
X97765Y85979D02*
D03*
X101956Y88824D02*
D03*
D03*
X89934Y85704D02*
D03*
D03*
X91694Y89764D02*
D03*
D03*
X95184Y83033D02*
D03*
X94424Y82977D02*
D03*
X94463Y87808D02*
D03*
X105100Y66853D02*
D03*
X99688Y55369D02*
D03*
D03*
X103881Y56641D02*
D03*
D03*
X100081Y67504D02*
D03*
D03*
X97384Y68145D02*
D03*
D03*
X97917Y66209D02*
D03*
D03*
X112997Y43785D02*
D03*
X111738Y49034D02*
D03*
X109449Y50673D02*
D03*
D03*
X109969D02*
D03*
D03*
X102768Y57861D02*
D03*
X96368Y61595D02*
D03*
X95742Y48287D02*
D03*
D03*
X102311Y65989D02*
D03*
D03*
X101244Y62382D02*
D03*
X97739Y63398D02*
D03*
D03*
X87097Y61544D02*
D03*
D03*
X122238Y49161D02*
D03*
D03*
X115878Y46303D02*
D03*
D03*
X117094Y53848D02*
D03*
D03*
X121006Y50165D02*
D03*
D03*
X124968Y70028D02*
D03*
D03*
X97155Y56896D02*
D03*
D03*
X79908Y67208D02*
D03*
D03*
X78816Y54915D02*
D03*
D03*
X118440Y56058D02*
D03*
D03*
X117907Y57683D02*
D03*
D03*
X120142Y58115D02*
D03*
D03*
X115570Y57785D02*
D03*
D03*
X115011Y59792D02*
D03*
D03*
X113995Y55220D02*
D03*
D03*
X108534Y67564D02*
D03*
D03*
X120625Y67945D02*
D03*
D03*
X115113Y66777D02*
D03*
D03*
X120066Y67488D02*
D03*
D03*
X118923Y66523D02*
D03*
D03*
X121158Y68809D02*
D03*
D03*
X109474Y65380D02*
D03*
D03*
X108687Y64805D02*
D03*
D03*
X126027Y48293D02*
D03*
D03*
X126555Y48285D02*
D03*
D03*
X125311Y61354D02*
D03*
D03*
X124943Y60985D02*
D03*
D03*
X109982Y62865D02*
D03*
D03*
X109614Y62497D02*
D03*
D03*
X98069Y55931D02*
D03*
D03*
X85268Y55016D02*
D03*
D03*
X92075Y72009D02*
D03*
X90221Y81229D02*
D03*
D03*
X93760Y80924D02*
D03*
D03*
X93777Y80035D02*
D03*
X100051Y72288D02*
D03*
X94187Y84400D02*
D03*
X97546Y71679D02*
D03*
X94454Y86148D02*
D03*
X94509Y87016D02*
D03*
X99939Y70958D02*
D03*
X99187Y70053D02*
D03*
X99949Y69291D02*
D03*
X93658Y87850D02*
D03*
X96774Y71704D02*
D03*
X100736Y68478D02*
D03*
X99933Y73279D02*
D03*
X96901Y87046D02*
D03*
X92558Y84125D02*
D03*
X97561Y70053D02*
D03*
X99949Y71546D02*
D03*
X101506Y70028D02*
D03*
X100764Y70095D02*
D03*
X101946Y71984D02*
D03*
X100846Y69325D02*
D03*
X97663Y87833D02*
D03*
X99187Y69317D02*
D03*
X98349Y70053D02*
D03*
X102449Y71730D02*
D03*
X102385Y70792D02*
D03*
X103175Y66878D02*
D03*
X102362Y70079D02*
D03*
X101549Y69240D02*
D03*
X97561Y70866D02*
D03*
X96520Y65710D02*
D03*
X101575Y59690D02*
D03*
X93599Y65278D02*
D03*
X96809Y69289D02*
D03*
X103937Y58928D02*
D03*
X94539Y63322D02*
D03*
X105029Y59309D02*
D03*
X103988Y62103D02*
D03*
X94793Y68275D02*
D03*
X91999Y70891D02*
D03*
X93624Y70053D02*
D03*
D47*
X101371Y64084D02*
D03*
X101041Y61544D02*
D03*
X97815Y61595D02*
D03*
X99187Y60477D02*
D03*
X99720Y61544D02*
D03*
D48*
X103141Y59656D02*
D03*
X103988Y61290D02*
D03*
X95580Y68275D02*
D03*
%TF.MD5,b5a66126b71716c2a2f0a427d186a626*%
M02*
