%TF.GenerationSoftware,Altium Limited,Altium Designer,20.0.12 (288)*%
G04 Layer_Color=65535*
%FSLAX43Y43*%
%MOMM*%
%TF.FileFunction,Legend,Top*%
%TF.Part,Single*%
G01*
G75*
%TA.AperFunction,NonConductor*%
%ADD53C,0.152*%
%ADD54C,0.127*%
%ADD55C,0.254*%
%ADD56C,0.076*%
%ADD73C,0.250*%
%ADD74C,0.600*%
%ADD75C,0.200*%
%ADD76C,0.203*%
D53*
X97460Y51830D02*
Y53784D01*
X95442Y51830D02*
X96125D01*
X94106D02*
Y53784D01*
D54*
X101746Y57367D02*
X105511D01*
X101746Y72427D02*
X105511D01*
Y68662D02*
Y72427D01*
X90451Y68662D02*
Y72427D01*
X94216D01*
X105511Y57367D02*
Y61132D01*
X90451Y57367D02*
X94216D01*
X90451D02*
Y61132D01*
X119747Y45366D02*
X119620Y45492D01*
X119366D01*
X119240Y45366D01*
Y44858D01*
X119366Y44731D01*
X119620D01*
X119747Y44858D01*
X120509Y44731D02*
X120001D01*
X120509Y45239D01*
Y45366D01*
X120382Y45492D01*
X120128D01*
X120001Y45366D01*
X120763D02*
X120890Y45492D01*
X121144D01*
X121271Y45366D01*
Y45239D01*
X121144Y45112D01*
X121271Y44985D01*
Y44858D01*
X121144Y44731D01*
X120890D01*
X120763Y44858D01*
Y44985D01*
X120890Y45112D01*
X120763Y45239D01*
Y45366D01*
X120890Y45112D02*
X121144D01*
X113462Y48361D02*
Y47727D01*
X113589Y47600D01*
X113843D01*
X113970Y47727D01*
Y48361D01*
X114732D02*
X114224D01*
Y47981D01*
X114478Y48108D01*
X114605D01*
X114732Y47981D01*
Y47727D01*
X114605Y47600D01*
X114351D01*
X114224Y47727D01*
X115824Y49886D02*
X115062D01*
Y50267D01*
X115189Y50394D01*
X115443D01*
X115570Y50267D01*
Y49886D01*
Y50140D02*
X115824Y50394D01*
X115062Y51155D02*
X115189Y50901D01*
X115443Y50648D01*
X115697D01*
X115824Y50775D01*
Y51028D01*
X115697Y51155D01*
X115570D01*
X115443Y51028D01*
Y50648D01*
X117339Y49886D02*
X116577D01*
Y50267D01*
X116704Y50394D01*
X116958D01*
X117085Y50267D01*
Y49886D01*
Y50140D02*
X117339Y50394D01*
X116577Y51155D02*
Y50648D01*
X116958D01*
X116831Y50901D01*
Y51028D01*
X116958Y51155D01*
X117212D01*
X117339Y51028D01*
Y50775D01*
X117212Y50648D01*
X118186Y50546D02*
Y49911D01*
X118313Y49784D01*
X118567D01*
X118694Y49911D01*
Y50546D01*
X118948Y50419D02*
X119075Y50546D01*
X119329D01*
X119456Y50419D01*
Y50292D01*
X119329Y50165D01*
X119202D01*
X119329D01*
X119456Y50038D01*
Y49911D01*
X119329Y49784D01*
X119075D01*
X118948Y49911D01*
X111811Y48361D02*
Y47727D01*
X111938Y47600D01*
X112192D01*
X112319Y47727D01*
Y48361D01*
X112954Y47600D02*
Y48361D01*
X112573Y47981D01*
X113081D01*
X110287Y51180D02*
X110160Y51307D01*
X109906D01*
X109779Y51180D01*
Y50672D01*
X109906Y50545D01*
X110160D01*
X110287Y50672D01*
X110541Y51180D02*
X110668Y51307D01*
X110922D01*
X111049Y51180D01*
Y51053D01*
X110922Y50926D01*
X110795D01*
X110922D01*
X111049Y50799D01*
Y50672D01*
X110922Y50545D01*
X110668D01*
X110541Y50672D01*
X111684Y50545D02*
Y51307D01*
X111303Y50926D01*
X111811D01*
X107902Y44256D02*
X107775Y44129D01*
Y43875D01*
X107902Y43748D01*
X108410D01*
X108537Y43875D01*
Y44129D01*
X108410Y44256D01*
X107902Y44510D02*
X107775Y44637D01*
Y44891D01*
X107902Y45017D01*
X108029D01*
X108156Y44891D01*
Y44764D01*
Y44891D01*
X108283Y45017D01*
X108410D01*
X108537Y44891D01*
Y44637D01*
X108410Y44510D01*
X107902Y45271D02*
X107775Y45398D01*
Y45652D01*
X107902Y45779D01*
X108029D01*
X108156Y45652D01*
Y45525D01*
Y45652D01*
X108283Y45779D01*
X108410D01*
X108537Y45652D01*
Y45398D01*
X108410Y45271D01*
X106096Y56079D02*
X105969Y56206D01*
X105715D01*
X105588Y56079D01*
Y55571D01*
X105715Y55445D01*
X105969D01*
X106096Y55571D01*
X106858Y55445D02*
X106350D01*
X106858Y55952D01*
Y56079D01*
X106731Y56206D01*
X106477D01*
X106350Y56079D01*
X107619Y56206D02*
X107112D01*
Y55825D01*
X107366Y55952D01*
X107493D01*
X107619Y55825D01*
Y55571D01*
X107493Y55445D01*
X107239D01*
X107112Y55571D01*
X98406Y51994D02*
X98279Y51867D01*
Y51613D01*
X98406Y51486D01*
X98914D01*
X99041Y51613D01*
Y51867D01*
X98914Y51994D01*
X99041Y52756D02*
Y52248D01*
X98533Y52756D01*
X98406D01*
X98279Y52629D01*
Y52375D01*
X98406Y52248D01*
X99041Y53391D02*
X98279D01*
X98660Y53010D01*
Y53517D01*
X97849Y56304D02*
X97722Y56431D01*
X97468D01*
X97341Y56304D01*
Y55796D01*
X97468Y55669D01*
X97722D01*
X97849Y55796D01*
X98610Y56431D02*
X98103D01*
Y56050D01*
X98357Y56177D01*
X98483D01*
X98610Y56050D01*
Y55796D01*
X98483Y55669D01*
X98230D01*
X98103Y55796D01*
X99372Y56431D02*
X98864D01*
Y56050D01*
X99118Y56177D01*
X99245D01*
X99372Y56050D01*
Y55796D01*
X99245Y55669D01*
X98991D01*
X98864Y55796D01*
X91916Y56082D02*
X91789Y56209D01*
X91535D01*
X91408Y56082D01*
Y55574D01*
X91535Y55447D01*
X91789D01*
X91916Y55574D01*
X92678Y56209D02*
X92170D01*
Y55828D01*
X92424Y55955D01*
X92551D01*
X92678Y55828D01*
Y55574D01*
X92551Y55447D01*
X92297D01*
X92170Y55574D01*
X93440Y56209D02*
X93186Y56082D01*
X92932Y55828D01*
Y55574D01*
X93059Y55447D01*
X93313D01*
X93440Y55574D01*
Y55701D01*
X93313Y55828D01*
X92932D01*
X98852Y49987D02*
X98725Y50114D01*
X98471D01*
X98344Y49987D01*
Y49479D01*
X98471Y49352D01*
X98725D01*
X98852Y49479D01*
X99614Y50114D02*
X99106D01*
Y49733D01*
X99360Y49860D01*
X99487D01*
X99614Y49733D01*
Y49479D01*
X99487Y49352D01*
X99233D01*
X99106Y49479D01*
X100249Y49352D02*
Y50114D01*
X99868Y49733D01*
X100376D01*
X92964Y49200D02*
Y49962D01*
X93344D01*
X93471Y49835D01*
Y49581D01*
X93344Y49454D01*
X92964D01*
X93218D02*
X93471Y49200D01*
X93725Y49327D02*
X93852Y49200D01*
X94106D01*
X94233Y49327D01*
Y49835D01*
X94106Y49962D01*
X93852D01*
X93725Y49835D01*
Y49708D01*
X93852Y49581D01*
X94233D01*
X86239Y65951D02*
X86112Y66078D01*
X85858D01*
X85731Y65951D01*
Y65443D01*
X85858Y65316D01*
X86112D01*
X86239Y65443D01*
X87001Y65316D02*
X86493D01*
X87001Y65824D01*
Y65951D01*
X86874Y66078D01*
X86620D01*
X86493Y65951D01*
X87255D02*
X87382Y66078D01*
X87636D01*
X87763Y65951D01*
Y65824D01*
X87636Y65697D01*
X87509D01*
X87636D01*
X87763Y65570D01*
Y65443D01*
X87636Y65316D01*
X87382D01*
X87255Y65443D01*
X86815Y60897D02*
Y61658D01*
X87196D01*
X87323Y61532D01*
Y61278D01*
X87196Y61151D01*
X86815D01*
X87069D02*
X87323Y60897D01*
X87576D02*
X87830D01*
X87703D01*
Y61658D01*
X87576Y61532D01*
X88211Y60897D02*
X88465D01*
X88338D01*
Y61658D01*
X88211Y61532D01*
X78746Y57904D02*
X78619Y57777D01*
Y57523D01*
X78746Y57396D01*
X79253D01*
X79380Y57523D01*
Y57777D01*
X79253Y57904D01*
X78619Y58666D02*
Y58158D01*
X79000D01*
X78873Y58412D01*
Y58539D01*
X79000Y58666D01*
X79253D01*
X79380Y58539D01*
Y58285D01*
X79253Y58158D01*
X78619Y58920D02*
Y59427D01*
X78746D01*
X79253Y58920D01*
X79380D01*
X103200Y76623D02*
X103073Y76496D01*
Y76242D01*
X103200Y76115D01*
X103708D01*
X103835Y76242D01*
Y76496D01*
X103708Y76623D01*
X103835Y76877D02*
Y77131D01*
Y77004D01*
X103073D01*
X103200Y76877D01*
Y77512D02*
X103073Y77639D01*
Y77893D01*
X103200Y78020D01*
X103327D01*
X103454Y77893D01*
Y77766D01*
Y77893D01*
X103581Y78020D01*
X103708D01*
X103835Y77893D01*
Y77639D01*
X103708Y77512D01*
X102010Y76893D02*
X101883Y76766D01*
Y76512D01*
X102010Y76385D01*
X102518D01*
X102645Y76512D01*
Y76766D01*
X102518Y76893D01*
X102645Y77147D02*
Y77401D01*
Y77274D01*
X101883D01*
X102010Y77147D01*
X102645Y77782D02*
Y78036D01*
Y77909D01*
X101883D01*
X102010Y77782D01*
X101074Y74888D02*
X100947Y74761D01*
Y74507D01*
X101074Y74380D01*
X101581D01*
X101708Y74507D01*
Y74761D01*
X101581Y74888D01*
X101708Y75650D02*
Y75142D01*
X101201Y75650D01*
X101074D01*
X100947Y75523D01*
Y75269D01*
X101074Y75142D01*
X101708Y76411D02*
Y75904D01*
X101201Y76411D01*
X101074D01*
X100947Y76284D01*
Y76031D01*
X101074Y75904D01*
X97110Y77029D02*
X96983Y76902D01*
Y76648D01*
X97110Y76521D01*
X97618D01*
X97745Y76648D01*
Y76902D01*
X97618Y77029D01*
Y77283D02*
X97745Y77410D01*
Y77664D01*
X97618Y77791D01*
X97110D01*
X96983Y77664D01*
Y77410D01*
X97110Y77283D01*
X97237D01*
X97364Y77410D01*
Y77791D01*
X95729Y77078D02*
X95602Y76951D01*
Y76697D01*
X95729Y76570D01*
X96237D01*
X96364Y76697D01*
Y76951D01*
X96237Y77078D01*
X95729Y77332D02*
X95602Y77459D01*
Y77713D01*
X95729Y77840D01*
X95856D01*
X95983Y77713D01*
X96110Y77840D01*
X96237D01*
X96364Y77713D01*
Y77459D01*
X96237Y77332D01*
X96110D01*
X95983Y77459D01*
X95856Y77332D01*
X95729D01*
X95983Y77459D02*
Y77713D01*
X94442Y76805D02*
X94315Y76678D01*
Y76424D01*
X94442Y76297D01*
X94950D01*
X95076Y76424D01*
Y76678D01*
X94950Y76805D01*
X95076Y77567D02*
Y77059D01*
X94569Y77567D01*
X94442D01*
X94315Y77440D01*
Y77186D01*
X94442Y77059D01*
X95076Y77821D02*
Y78075D01*
Y77948D01*
X94315D01*
X94442Y77821D01*
X88773Y82948D02*
X88646Y83075D01*
X88392D01*
X88265Y82948D01*
Y82440D01*
X88392Y82313D01*
X88646D01*
X88773Y82440D01*
X89027Y83075D02*
X89535D01*
Y82948D01*
X89027Y82440D01*
Y82313D01*
X89900Y86008D02*
X89773Y85881D01*
Y85627D01*
X89900Y85500D01*
X90408D01*
X90535Y85627D01*
Y85881D01*
X90408Y86008D01*
X90535Y86262D02*
Y86516D01*
Y86389D01*
X89773D01*
X89900Y86262D01*
Y86897D02*
X89773Y87024D01*
Y87278D01*
X89900Y87405D01*
X90408D01*
X90535Y87278D01*
Y87024D01*
X90408Y86897D01*
X89900D01*
X88646Y85986D02*
X88519Y85859D01*
Y85605D01*
X88646Y85478D01*
X89154D01*
X89281Y85605D01*
Y85859D01*
X89154Y85986D01*
X89281Y86240D02*
Y86494D01*
Y86367D01*
X88519D01*
X88646Y86240D01*
X89154Y86875D02*
X89281Y87002D01*
Y87256D01*
X89154Y87383D01*
X88646D01*
X88519Y87256D01*
Y87002D01*
X88646Y86875D01*
X88773D01*
X88900Y87002D01*
Y87383D01*
X102159Y92799D02*
X102032Y92672D01*
Y92418D01*
X102159Y92291D01*
X102667D01*
X102794Y92418D01*
Y92672D01*
X102667Y92799D01*
X102794Y93053D02*
Y93307D01*
Y93180D01*
X102032D01*
X102159Y93053D01*
X102794Y94196D02*
Y93688D01*
X102286Y94196D01*
X102159D01*
X102032Y94069D01*
Y93815D01*
X102159Y93688D01*
X100990Y92708D02*
X100864Y92581D01*
Y92327D01*
X100990Y92200D01*
X101498D01*
X101625Y92327D01*
Y92581D01*
X101498Y92708D01*
X101625Y93470D02*
Y92962D01*
X101117Y93470D01*
X100990D01*
X100864Y93343D01*
Y93089D01*
X100990Y92962D01*
Y93724D02*
X100864Y93851D01*
Y94105D01*
X100990Y94232D01*
X101498D01*
X101625Y94105D01*
Y93851D01*
X101498Y93724D01*
X100990D01*
X98644Y92772D02*
X98517Y92645D01*
Y92391D01*
X98644Y92264D01*
X99152D01*
X99279Y92391D01*
Y92645D01*
X99152Y92772D01*
X99279Y93026D02*
Y93279D01*
Y93152D01*
X98517D01*
X98644Y93026D01*
X98517Y93660D02*
Y94168D01*
X98644D01*
X99152Y93660D01*
X99279D01*
X95961Y92710D02*
X95834Y92583D01*
Y92329D01*
X95961Y92202D01*
X96469D01*
X96596Y92329D01*
Y92583D01*
X96469Y92710D01*
X96596Y92964D02*
Y93218D01*
Y93091D01*
X95834D01*
X95961Y92964D01*
X95834Y94106D02*
X95961Y93852D01*
X96215Y93599D01*
X96469D01*
X96596Y93726D01*
Y93979D01*
X96469Y94106D01*
X96342D01*
X96215Y93979D01*
Y93599D01*
X94714Y92710D02*
X94587Y92583D01*
Y92329D01*
X94714Y92202D01*
X95222D01*
X95349Y92329D01*
Y92583D01*
X95222Y92710D01*
X95349Y92964D02*
Y93218D01*
Y93091D01*
X94587D01*
X94714Y92964D01*
Y93599D02*
X94587Y93726D01*
Y93979D01*
X94714Y94106D01*
X94841D01*
X94968Y93979D01*
X95095Y94106D01*
X95222D01*
X95349Y93979D01*
Y93726D01*
X95222Y93599D01*
X95095D01*
X94968Y93726D01*
X94841Y93599D01*
X94714D01*
X94968Y93726D02*
Y93979D01*
X93345Y92710D02*
X93218Y92583D01*
Y92329D01*
X93345Y92202D01*
X93853D01*
X93980Y92329D01*
Y92583D01*
X93853Y92710D01*
X93980Y92964D02*
Y93218D01*
Y93091D01*
X93218D01*
X93345Y92964D01*
X93218Y94106D02*
Y93599D01*
X93599D01*
X93472Y93852D01*
Y93979D01*
X93599Y94106D01*
X93853D01*
X93980Y93979D01*
Y93726D01*
X93853Y93599D01*
X92050Y92672D02*
X91923Y92545D01*
Y92291D01*
X92050Y92164D01*
X92558D01*
X92684Y92291D01*
Y92545D01*
X92558Y92672D01*
X92684Y92926D02*
Y93180D01*
Y93053D01*
X91923D01*
X92050Y92926D01*
X92684Y93942D02*
X91923D01*
X92304Y93561D01*
Y94069D01*
X114627Y42113D02*
X114754Y42240D01*
Y42494D01*
X114627Y42621D01*
X114119D01*
X113992Y42494D01*
Y42240D01*
X114119Y42113D01*
X114627Y41859D02*
X114754Y41732D01*
Y41478D01*
X114627Y41351D01*
X114500D01*
X114373Y41478D01*
Y41605D01*
Y41478D01*
X114246Y41351D01*
X114119D01*
X113992Y41478D01*
Y41732D01*
X114119Y41859D01*
X114754Y41097D02*
Y40590D01*
X114627D01*
X114119Y41097D01*
X113992D01*
X116572Y42113D02*
X116699Y42240D01*
Y42494D01*
X116572Y42621D01*
X116064D01*
X115937Y42494D01*
Y42240D01*
X116064Y42113D01*
X116572Y41859D02*
X116699Y41732D01*
Y41478D01*
X116572Y41351D01*
X116445D01*
X116318Y41478D01*
Y41605D01*
Y41478D01*
X116191Y41351D01*
X116064D01*
X115937Y41478D01*
Y41732D01*
X116064Y41859D01*
X116699Y40590D02*
X116572Y40843D01*
X116318Y41097D01*
X116064D01*
X115937Y40970D01*
Y40716D01*
X116064Y40590D01*
X116191D01*
X116318Y40716D01*
Y41097D01*
X118397Y41859D02*
X118270Y41986D01*
X118016D01*
X117890Y41859D01*
Y41351D01*
X118016Y41224D01*
X118270D01*
X118397Y41351D01*
X119159Y41224D02*
X118651D01*
X119159Y41732D01*
Y41859D01*
X119032Y41986D01*
X118778D01*
X118651Y41859D01*
X119413Y41986D02*
X119921D01*
Y41859D01*
X119413Y41351D01*
Y41224D01*
X122857Y51143D02*
Y51905D01*
X123238D01*
X123365Y51778D01*
Y51524D01*
X123238Y51397D01*
X122857D01*
X123111D02*
X123365Y51143D01*
X124000D02*
Y51905D01*
X123619Y51524D01*
X124127D01*
X123462Y42669D02*
X123335Y42796D01*
X123081D01*
X122954Y42669D01*
Y42161D01*
X123081Y42034D01*
X123335D01*
X123462Y42161D01*
X123716Y42034D02*
X123970D01*
X123843D01*
Y42796D01*
X123716Y42669D01*
X122093Y47369D02*
X121966Y47242D01*
Y46988D01*
X122093Y46861D01*
X122601D01*
X122728Y46988D01*
Y47242D01*
X122601Y47369D01*
X122728Y48130D02*
Y47622D01*
X122220Y48130D01*
X122093D01*
X121966Y48003D01*
Y47749D01*
X122093Y47622D01*
X121966Y48892D02*
X122093Y48638D01*
X122347Y48384D01*
X122601D01*
X122728Y48511D01*
Y48765D01*
X122601Y48892D01*
X122474D01*
X122347Y48765D01*
Y48384D01*
D55*
X102197Y54813D02*
X103543D01*
X102197Y51613D02*
X103543D01*
X103600Y51059D02*
X104616Y49535D01*
Y51059D02*
X103600Y49535D01*
X106140D02*
X105124D01*
X106140Y50551D01*
Y50805D01*
X105886Y51059D01*
X105378D01*
X105124Y50805D01*
X93371Y41453D02*
X93117Y41707D01*
X92609D01*
X92355Y41453D01*
Y41199D01*
X92609Y40945D01*
X93117D01*
X93371Y40691D01*
Y40437D01*
X93117Y40183D01*
X92609D01*
X92355Y40437D01*
X93878Y41707D02*
Y40183D01*
X94386Y40691D01*
X94894Y40183D01*
Y41707D01*
X95402Y40183D02*
X95910D01*
X95656D01*
Y41707D01*
X95402Y41453D01*
X81763Y53060D02*
Y51791D01*
X82017Y51537D01*
X82525D01*
X82779Y51791D01*
Y53060D01*
X83287Y52806D02*
X83540Y53060D01*
X84048D01*
X84302Y52806D01*
Y52553D01*
X84048Y52299D01*
X84302Y52045D01*
Y51791D01*
X84048Y51537D01*
X83540D01*
X83287Y51791D01*
Y52045D01*
X83540Y52299D01*
X83287Y52553D01*
Y52806D01*
X83540Y52299D02*
X84048D01*
X78994Y64262D02*
X77470D01*
Y65024D01*
X77724Y65278D01*
X78232D01*
X78486Y65024D01*
Y64262D01*
X78994Y65786D02*
Y66294D01*
Y66040D01*
X77470D01*
X77724Y65786D01*
X90475Y74220D02*
Y72950D01*
X90729Y72696D01*
X91237D01*
X91491Y72950D01*
Y74220D01*
X93014Y72696D02*
X91999D01*
X93014Y73712D01*
Y73966D01*
X92760Y74220D01*
X92253D01*
X91999Y73966D01*
X86258Y75666D02*
X86005Y75920D01*
X85497D01*
X85243Y75666D01*
Y74651D01*
X85497Y74397D01*
X86005D01*
X86258Y74651D01*
X87782Y75920D02*
X87274Y75666D01*
X86766Y75159D01*
Y74651D01*
X87020Y74397D01*
X87528D01*
X87782Y74651D01*
Y74905D01*
X87528Y75159D01*
X86766D01*
X80264Y75057D02*
X81280Y73533D01*
Y75057D02*
X80264Y73533D01*
X81788D02*
X82296D01*
X82042D01*
Y75057D01*
X81788Y74803D01*
X104699Y88848D02*
Y87579D01*
X104953Y87325D01*
X105461D01*
X105715Y87579D01*
Y88848D01*
X106223Y87325D02*
X106730D01*
X106477D01*
Y88848D01*
X106223Y88594D01*
X128427Y43190D02*
X127919D01*
X128173D01*
Y41920D01*
X127919Y41666D01*
X127665D01*
X127411Y41920D01*
X128934Y41666D02*
X129442D01*
X129188D01*
Y43190D01*
X128934Y42936D01*
X120482Y59461D02*
Y57938D01*
X121498D01*
X122006D02*
X122513D01*
X122259D01*
Y59461D01*
X122006Y59207D01*
X121191Y66513D02*
X120937Y66767D01*
X120429D01*
X120176Y66513D01*
Y65497D01*
X120429Y65243D01*
X120937D01*
X121191Y65497D01*
X121699Y66513D02*
X121953Y66767D01*
X122461D01*
X122715Y66513D01*
Y66259D01*
X122461Y66005D01*
X122207D01*
X122461D01*
X122715Y65751D01*
Y65497D01*
X122461Y65243D01*
X121953D01*
X121699Y65497D01*
X129845Y69545D02*
X129337D01*
X129591D01*
Y68275D01*
X129337Y68021D01*
X129083D01*
X128829Y68275D01*
X131368Y68021D02*
X130353D01*
X131368Y69037D01*
Y69291D01*
X131114Y69545D01*
X130607D01*
X130353Y69291D01*
X91155Y53568D02*
Y52299D01*
X91408Y52045D01*
X91916D01*
X92170Y52299D01*
Y53568D01*
X93694D02*
X93186Y53314D01*
X92678Y52807D01*
Y52299D01*
X92932Y52045D01*
X93440D01*
X93694Y52299D01*
Y52553D01*
X93440Y52807D01*
X92678D01*
D56*
X98215Y54578D02*
X97369Y53732D01*
Y54578D02*
X98215Y53732D01*
X97792Y54578D02*
Y53732D01*
X97369Y54155D02*
X98215D01*
D73*
X116843Y43945D02*
G03*
X116843Y43945I-125J0D01*
G01*
X121130Y50025D02*
G03*
X121130Y50025I-125J0D01*
G01*
X110407Y47470D02*
G03*
X110407Y47470I-125J0D01*
G01*
X99545Y52013D02*
G03*
X99545Y52013I-125J0D01*
G01*
X91104Y48737D02*
G03*
X91104Y48737I-125J0D01*
G01*
X87825Y53471D02*
G03*
X87825Y53471I-125J0D01*
G01*
X86695Y73458D02*
G03*
X86695Y73458I-125J0D01*
G01*
X127168Y46528D02*
G03*
X127168Y46528I-125J0D01*
G01*
X118537Y58099D02*
G03*
X118537Y58099I-125J0D01*
G01*
X125693Y57191D02*
G03*
X125693Y57191I-125J0D01*
G01*
D74*
X85825Y54526D02*
G03*
X85825Y54526I-300J0D01*
G01*
D75*
X89531Y71297D02*
G03*
X89531Y71297I-100J0D01*
G01*
X92420Y80514D02*
G03*
X92420Y80514I-100J0D01*
G01*
X114943Y44170D02*
Y47270D01*
X115943Y44170D02*
Y47270D01*
X114943D02*
X115943D01*
X114943Y44170D02*
X115943D01*
X118005Y49090D02*
Y49375D01*
X118290D01*
X118005Y46225D02*
Y46510D01*
Y46225D02*
X118290D01*
X120870D02*
X121155D01*
Y46510D01*
Y49090D02*
Y49375D01*
X120870D02*
X121155D01*
X112057Y44145D02*
Y47245D01*
X111057Y44145D02*
Y47245D01*
Y44145D02*
X112057D01*
X111057Y47245D02*
X112057D01*
X105370Y53013D02*
Y53413D01*
X100370Y53013D02*
Y53413D01*
X92529Y42237D02*
Y48237D01*
X98529Y42237D02*
Y48237D01*
X92529Y42237D02*
X98529D01*
X92529Y48237D02*
X98529D01*
X86525Y53526D02*
Y58926D01*
X81775Y53526D02*
Y58926D01*
Y53526D02*
X86525D01*
X81775Y58926D02*
X86525D01*
X79604Y61214D02*
Y66294D01*
Y61214D02*
X82144D01*
Y66294D01*
X79604D02*
X82144D01*
X87620Y72258D02*
X87820D01*
Y68458D02*
Y72258D01*
X87620Y68458D02*
X87820D01*
X79820Y72258D02*
X80020D01*
X79820Y68458D02*
Y72258D01*
Y68458D02*
X80020D01*
X82120Y72258D02*
X85520D01*
X82120Y68458D02*
X85520D01*
X128293Y49728D02*
Y51858D01*
X132493Y43798D02*
X133893D01*
X128293Y51858D02*
X129793D01*
X128293Y43798D02*
X129793D01*
X132493Y51858D02*
X133893D01*
X128293Y43798D02*
Y45928D01*
X133893Y43798D02*
Y51858D01*
X120912Y57349D02*
X121912D01*
X120912Y52349D02*
X121912D01*
X147518Y54691D02*
Y66691D01*
X128718Y56114D02*
Y65268D01*
X131578Y66691D02*
X147518D01*
X131578Y54691D02*
X147518D01*
D76*
X91820Y81014D02*
X104320D01*
X91820D02*
Y89014D01*
X104320D01*
Y81014D02*
Y89014D01*
%TF.MD5,c9214b5c9f546149939e219035ac4aba*%
M02*
