%TF.GenerationSoftware,Altium Limited,Altium Designer,20.0.12 (288)*%
G04 Layer_Physical_Order=2*
G04 Layer_Color=36540*
%FSLAX43Y43*%
%MOMM*%
%TF.FileFunction,Copper,L2,Inr,Signal*%
%TF.Part,Single*%
G01*
G75*
%TA.AperFunction,Conductor*%
%ADD36C,0.174*%
%ADD38C,0.152*%
%ADD39C,0.133*%
%TA.AperFunction,ComponentPad*%
%ADD41C,1.500*%
%ADD42R,1.500X1.500*%
%ADD43C,0.500*%
%ADD44O,3.000X1.500*%
%TA.AperFunction,ViaPad*%
%ADD45C,0.500*%
%ADD46C,0.432*%
%ADD47C,0.508*%
%ADD48C,0.305*%
%TA.AperFunction,Conductor*%
%ADD49C,0.078*%
G36*
X99558Y71713D02*
X99652Y71615D01*
X99638Y71546D01*
X99662Y71427D01*
X99729Y71326D01*
X99721Y71179D01*
X99719Y71178D01*
X99652Y71077D01*
X99628Y70958D01*
X99652Y70839D01*
X99719Y70738D01*
X99820Y70671D01*
X99939Y70647D01*
X100058Y70671D01*
X100159Y70738D01*
X100226Y70839D01*
X100250Y70958D01*
X100226Y71077D01*
X100159Y71178D01*
X100167Y71325D01*
X100169Y71326D01*
X100184Y71349D01*
X100343Y71365D01*
X100413Y71295D01*
X100465Y71261D01*
X100525Y71249D01*
X100647Y71249D01*
X100675Y71214D01*
X100706Y71128D01*
X100635Y71057D01*
X100601Y71006D01*
X100589Y70945D01*
X100589Y70808D01*
X100601Y70748D01*
X100635Y70696D01*
X100772Y70560D01*
X100823Y70525D01*
X100884Y70513D01*
X101021Y70513D01*
X101081Y70525D01*
X101133Y70560D01*
X101621Y71048D01*
X101626D01*
X101823Y70851D01*
Y70324D01*
X101798Y70305D01*
X101696Y70268D01*
X101625Y70315D01*
X101506Y70339D01*
X101387Y70315D01*
X101286Y70248D01*
X101219Y70147D01*
X101195Y70028D01*
X101219Y69909D01*
X101286Y69808D01*
X101387Y69741D01*
X101506Y69717D01*
X101625Y69741D01*
X101696Y69788D01*
X101798Y69751D01*
X101823Y69732D01*
Y69722D01*
X101835Y69661D01*
X101869Y69610D01*
X101924Y69555D01*
X101918Y69420D01*
X101776Y69450D01*
X101769Y69460D01*
X101668Y69528D01*
X101549Y69551D01*
X101430Y69528D01*
X101329Y69460D01*
X101276Y69380D01*
X101192Y69380D01*
X101144Y69393D01*
X101134Y69444D01*
X101066Y69545D01*
X100965Y69612D01*
X100846Y69636D01*
X100728Y69612D01*
X100627Y69545D01*
X100559Y69444D01*
X100536Y69325D01*
X100559Y69206D01*
X100627Y69105D01*
X100728Y69038D01*
X100846Y69014D01*
X100965Y69038D01*
X101066Y69105D01*
X101120Y69186D01*
X101204Y69186D01*
X101252Y69172D01*
X101262Y69121D01*
X101329Y69021D01*
X101430Y68953D01*
X101549Y68930D01*
X101668Y68953D01*
X101696Y68972D01*
X101823Y68904D01*
Y68747D01*
X101128Y68053D01*
X100891D01*
X100800Y68139D01*
X100800Y68139D01*
X100800D01*
X100796Y68180D01*
X100799Y68180D01*
X100855Y68191D01*
X100956Y68259D01*
X101024Y68359D01*
X101047Y68478D01*
X101024Y68597D01*
X100956Y68698D01*
X100855Y68766D01*
X100736Y68789D01*
X100617Y68766D01*
X100517Y68698D01*
X100449Y68597D01*
X100426Y68478D01*
X100449Y68359D01*
X100517Y68259D01*
X100617Y68191D01*
X100674Y68180D01*
X100677Y68180D01*
X100673Y68139D01*
X100673D01*
X100673Y68139D01*
X100581Y68053D01*
X98770D01*
X98590Y68233D01*
Y68357D01*
X98594Y68360D01*
X98661Y68461D01*
X98685Y68580D01*
X98661Y68699D01*
X98594Y68800D01*
X98526Y68845D01*
X98515Y68959D01*
X98522Y68989D01*
X98569Y69021D01*
X98636Y69121D01*
X98660Y69240D01*
X98645Y69313D01*
X98771Y69439D01*
X98888Y69376D01*
X98876Y69317D01*
X98900Y69198D01*
X98967Y69097D01*
X99068Y69029D01*
X99187Y69006D01*
X99306Y69029D01*
X99407Y69097D01*
X99474Y69198D01*
X99498Y69317D01*
X99474Y69436D01*
X99407Y69536D01*
X99306Y69604D01*
X99223Y69620D01*
Y69750D01*
X99306Y69766D01*
X99407Y69833D01*
X99474Y69934D01*
X99498Y70053D01*
X99474Y70172D01*
X99407Y70273D01*
X99306Y70340D01*
X99187Y70364D01*
X99068Y70340D01*
X99005Y70298D01*
X98885Y70348D01*
X98878Y70355D01*
Y70536D01*
X99005Y70604D01*
X99043Y70579D01*
X99162Y70555D01*
X99281Y70579D01*
X99381Y70646D01*
X99449Y70747D01*
X99472Y70866D01*
X99449Y70985D01*
X99381Y71086D01*
X99295Y71144D01*
Y71390D01*
X99282Y71450D01*
X99248Y71502D01*
X99162Y71588D01*
X99167Y71635D01*
X99213Y71715D01*
X99548D01*
X99552Y71716D01*
X99558Y71713D01*
D02*
G37*
G36*
X98124Y71127D02*
X98063Y71086D01*
X97995Y70985D01*
X97987Y70941D01*
X97857D01*
X97849Y70985D01*
X97781Y71086D01*
X97680Y71153D01*
X97561Y71177D01*
X97442Y71153D01*
X97342Y71086D01*
X97274Y70985D01*
X97251Y70866D01*
X97274Y70747D01*
X97342Y70646D01*
X97442Y70579D01*
X97561Y70555D01*
X97680Y70579D01*
X97781Y70646D01*
X97849Y70747D01*
X97857Y70791D01*
X97987D01*
X97995Y70747D01*
X98063Y70646D01*
X98163Y70579D01*
X98282Y70555D01*
X98401Y70579D01*
X98435Y70601D01*
X98556Y70536D01*
X98557Y70416D01*
X98435Y70347D01*
X98349Y70364D01*
X98230Y70340D01*
X98129Y70273D01*
X98062Y70172D01*
X98038Y70053D01*
X98062Y69934D01*
X98129Y69833D01*
X98230Y69766D01*
X98349Y69742D01*
X98465Y69644D01*
X98364Y69548D01*
X98349Y69551D01*
X98230Y69528D01*
X98129Y69460D01*
X98062Y69359D01*
X98038Y69240D01*
X98062Y69121D01*
X98129Y69021D01*
X98197Y68975D01*
X98208Y68861D01*
X98201Y68831D01*
X98154Y68800D01*
X98087Y68699D01*
X98063Y68580D01*
X98087Y68461D01*
X98154Y68360D01*
X98255Y68293D01*
X98273Y68289D01*
Y68167D01*
X98285Y68107D01*
X98319Y68055D01*
X98592Y67782D01*
X98644Y67748D01*
X98704Y67736D01*
X99529D01*
X99606Y67631D01*
X100555D01*
X100632Y67736D01*
X101194D01*
X101254Y67748D01*
X101306Y67782D01*
X101910Y68386D01*
X102047Y68344D01*
X102049Y68334D01*
X102117Y68233D01*
X102218Y68166D01*
X102337Y68142D01*
X102340Y68143D01*
X102415Y68028D01*
X102392Y67996D01*
X102362Y68002D01*
X102243Y67978D01*
X102142Y67911D01*
X102075Y67810D01*
X102051Y67691D01*
X102075Y67572D01*
X102142Y67471D01*
X102243Y67404D01*
X102362Y67380D01*
X102453Y67398D01*
X102523Y67305D01*
X102528Y67294D01*
X102409Y67175D01*
X102337Y67189D01*
X102218Y67165D01*
X102117Y67098D01*
X102049Y66997D01*
X102026Y66878D01*
X102049Y66759D01*
X102117Y66658D01*
X102218Y66591D01*
X102248Y66585D01*
Y66456D01*
X102128Y66432D01*
X101972Y66328D01*
X101869Y66173D01*
X101857Y66116D01*
X102765D01*
X102754Y66173D01*
X102650Y66328D01*
X102495Y66432D01*
X102400Y66451D01*
Y66580D01*
X102456Y66591D01*
X102556Y66658D01*
X102624Y66759D01*
X102647Y66878D01*
X102639Y66923D01*
X102730Y67017D01*
X102772Y67011D01*
X102864Y66879D01*
X102864Y66878D01*
X102888Y66759D01*
X102955Y66658D01*
X103056Y66591D01*
X103175Y66567D01*
X103294Y66591D01*
X103395Y66658D01*
X103462Y66759D01*
X103486Y66878D01*
X103468Y66964D01*
X103480Y67020D01*
X103545Y67101D01*
X103556Y67103D01*
X103607Y67137D01*
X103706Y67236D01*
X103722Y67231D01*
X103742Y67092D01*
X103675Y66991D01*
X103651Y66872D01*
X103675Y66753D01*
X103742Y66652D01*
X103843Y66585D01*
X103962Y66561D01*
X104081Y66585D01*
X104182Y66652D01*
X104249Y66753D01*
X104273Y66872D01*
X104269Y66893D01*
X105369Y67993D01*
X105487Y67945D01*
Y62246D01*
X105156D01*
X105122Y62297D01*
X105021Y62365D01*
X104902Y62388D01*
X104783Y62365D01*
X104682Y62297D01*
X104615Y62197D01*
X104591Y62078D01*
X104593Y62068D01*
X104526Y61987D01*
X104460Y62068D01*
X104467Y62103D01*
X104430Y62286D01*
X104326Y62442D01*
X104171Y62546D01*
X104115Y62557D01*
Y62103D01*
X103861D01*
Y62557D01*
X103804Y62546D01*
X103649Y62442D01*
X103558Y62306D01*
X103471Y62289D01*
X103416Y62290D01*
X103395Y62323D01*
X103294Y62390D01*
X103175Y62414D01*
X103056Y62390D01*
X102955Y62323D01*
X102888Y62222D01*
X102864Y62103D01*
X102879Y62029D01*
X102762Y61967D01*
X102661Y62068D01*
X102673Y62128D01*
X102649Y62247D01*
X102582Y62348D01*
X102481Y62416D01*
X102362Y62439D01*
X102243Y62416D01*
X102142Y62348D01*
X102075Y62247D01*
X102051Y62128D01*
X102075Y62009D01*
X102142Y61909D01*
X102243Y61841D01*
X102362Y61818D01*
X102404Y61826D01*
X102495Y61737D01*
X102494Y61729D01*
X102362Y61626D01*
X102243Y61603D01*
X102142Y61535D01*
X102075Y61435D01*
X102051Y61316D01*
X102075Y61197D01*
X102142Y61096D01*
X102194Y61062D01*
Y60579D01*
X102206Y60515D01*
X102243Y60460D01*
X102751Y59952D01*
X102806Y59915D01*
X102870Y59903D01*
X102931Y59776D01*
X102913Y59750D01*
X102895Y59656D01*
X102913Y59562D01*
X102967Y59482D01*
X103047Y59429D01*
X103141Y59410D01*
X103235Y59429D01*
X103315Y59482D01*
X103368Y59562D01*
X103398Y59658D01*
X103510Y59674D01*
X104555D01*
X104623Y59547D01*
X104586Y59492D01*
X104575Y59436D01*
X105029D01*
Y59309D01*
X105156D01*
Y58855D01*
X105212Y58866D01*
X105360Y58965D01*
X105403Y58955D01*
X105487Y58919D01*
Y57392D01*
X105476Y57367D01*
X97195D01*
X97155Y57375D01*
X97115Y57367D01*
X90451D01*
Y72427D01*
X91963D01*
X91976Y72300D01*
X91956Y72296D01*
X91855Y72229D01*
X91788Y72128D01*
X91764Y72009D01*
X91788Y71890D01*
X91855Y71789D01*
X91956Y71722D01*
X92075Y71698D01*
X92194Y71722D01*
X92295Y71789D01*
X92362Y71890D01*
X92386Y72009D01*
X92362Y72128D01*
X92295Y72229D01*
X92194Y72296D01*
X92174Y72300D01*
X92187Y72427D01*
X95151D01*
X95200Y72310D01*
X95062Y72172D01*
X95028Y72120D01*
X95015Y72060D01*
Y70365D01*
X94954Y70324D01*
X94887Y70223D01*
X94863Y70104D01*
X94887Y69985D01*
X94954Y69884D01*
X95055Y69817D01*
X95174Y69793D01*
X95293Y69817D01*
X95394Y69884D01*
X95461Y69985D01*
X95485Y70104D01*
X95461Y70223D01*
X95394Y70324D01*
X95332Y70365D01*
Y71994D01*
X95765Y72427D01*
X95939D01*
X95987Y72310D01*
X95849Y72172D01*
X95815Y72120D01*
X95803Y72060D01*
Y71127D01*
X95741Y71086D01*
X95674Y70985D01*
X95650Y70866D01*
X95674Y70747D01*
X95741Y70646D01*
X95842Y70579D01*
X95961Y70555D01*
X96080Y70579D01*
X96181Y70646D01*
X96248Y70747D01*
X96272Y70866D01*
X96248Y70985D01*
X96181Y71086D01*
X96120Y71127D01*
Y71994D01*
X96553Y72427D01*
X98124D01*
Y71127D01*
D02*
G37*
%LPC*%
G36*
X100764Y70406D02*
X100645Y70383D01*
X100544Y70315D01*
X100476Y70214D01*
X100453Y70095D01*
X100476Y69977D01*
X100544Y69876D01*
X100645Y69808D01*
X100764Y69785D01*
X100882Y69808D01*
X100983Y69876D01*
X101051Y69977D01*
X101074Y70095D01*
X101051Y70214D01*
X100983Y70315D01*
X100882Y70383D01*
X100764Y70406D01*
D02*
G37*
G36*
X99949Y69602D02*
X99830Y69578D01*
X99729Y69511D01*
X99662Y69410D01*
X99638Y69291D01*
X99662Y69172D01*
X99729Y69071D01*
X99830Y69004D01*
X99949Y68980D01*
X100068Y69004D01*
X100169Y69071D01*
X100236Y69172D01*
X100260Y69291D01*
X100236Y69410D01*
X100169Y69511D01*
X100068Y69578D01*
X99949Y69602D01*
D02*
G37*
G36*
X96774Y72015D02*
X96655Y71991D01*
X96554Y71924D01*
X96487Y71823D01*
X96463Y71704D01*
X96487Y71585D01*
X96554Y71484D01*
X96655Y71417D01*
X96774Y71393D01*
X96893Y71417D01*
X96994Y71484D01*
X97061Y71585D01*
X97085Y71704D01*
X97061Y71823D01*
X96994Y71924D01*
X96893Y71991D01*
X96774Y72015D01*
D02*
G37*
G36*
X97546Y71990D02*
X97427Y71967D01*
X97326Y71899D01*
X97259Y71798D01*
X97235Y71679D01*
X97259Y71561D01*
X97326Y71460D01*
X97427Y71392D01*
X97546Y71369D01*
X97665Y71392D01*
X97766Y71460D01*
X97833Y71561D01*
X97857Y71679D01*
X97833Y71798D01*
X97766Y71899D01*
X97665Y71967D01*
X97546Y71990D01*
D02*
G37*
G36*
X92126Y71345D02*
Y71018D01*
X92453D01*
X92441Y71075D01*
X92338Y71230D01*
X92182Y71334D01*
X92126Y71345D01*
D02*
G37*
G36*
X91872D02*
X91815Y71334D01*
X91660Y71230D01*
X91556Y71075D01*
X91545Y71018D01*
X91872D01*
Y71345D01*
D02*
G37*
G36*
X92453Y70764D02*
X92126D01*
Y70438D01*
X92182Y70449D01*
X92338Y70553D01*
X92441Y70708D01*
X92453Y70764D01*
D02*
G37*
G36*
X91872D02*
X91545D01*
X91556Y70708D01*
X91660Y70553D01*
X91815Y70449D01*
X91872Y70438D01*
Y70764D01*
D02*
G37*
G36*
X93624Y70364D02*
X93505Y70341D01*
X93405Y70273D01*
X93337Y70172D01*
X93314Y70053D01*
X93337Y69934D01*
X93405Y69834D01*
X93505Y69766D01*
X93624Y69743D01*
X93743Y69766D01*
X93844Y69834D01*
X93912Y69934D01*
X93935Y70053D01*
X93912Y70172D01*
X93844Y70273D01*
X93743Y70341D01*
X93624Y70364D01*
D02*
G37*
G36*
X97561Y70364D02*
X97442Y70340D01*
X97342Y70273D01*
X97274Y70172D01*
X97251Y70053D01*
X97274Y69934D01*
X97342Y69833D01*
X97442Y69766D01*
X97561Y69742D01*
X97680Y69766D01*
X97781Y69833D01*
X97849Y69934D01*
X97872Y70053D01*
X97849Y70172D01*
X97781Y70273D01*
X97680Y70340D01*
X97561Y70364D01*
D02*
G37*
G36*
X96936Y69743D02*
Y69416D01*
X97263D01*
X97251Y69472D01*
X97148Y69628D01*
X96992Y69732D01*
X96936Y69743D01*
D02*
G37*
G36*
X96682D02*
X96625Y69732D01*
X96470Y69628D01*
X96366Y69472D01*
X96355Y69416D01*
X96682D01*
Y69743D01*
D02*
G37*
G36*
X97263Y69162D02*
X96936D01*
Y68835D01*
X96992Y68846D01*
X97148Y68950D01*
X97251Y69106D01*
X97263Y69162D01*
D02*
G37*
G36*
X96682D02*
X96355D01*
X96366Y69106D01*
X96470Y68950D01*
X96625Y68846D01*
X96682Y68835D01*
Y69162D01*
D02*
G37*
G36*
X94666Y68729D02*
X94609Y68718D01*
X94454Y68614D01*
X94350Y68459D01*
X94339Y68402D01*
X94666D01*
Y68729D01*
D02*
G37*
G36*
X97511Y68599D02*
Y68272D01*
X97838D01*
X97827Y68328D01*
X97723Y68483D01*
X97568Y68587D01*
X97511Y68599D01*
D02*
G37*
G36*
X97257D02*
X97201Y68587D01*
X97046Y68483D01*
X96942Y68328D01*
X96931Y68272D01*
X97257D01*
Y68599D01*
D02*
G37*
G36*
X94920Y68729D02*
Y68275D01*
Y67821D01*
X94976Y67833D01*
X95132Y67936D01*
X95235Y68092D01*
X95243Y68131D01*
X95376Y68147D01*
X95406Y68101D01*
X95486Y68048D01*
X95580Y68029D01*
X95674Y68048D01*
X95754Y68101D01*
X95808Y68181D01*
X95826Y68275D01*
X95808Y68370D01*
X95754Y68449D01*
X95674Y68503D01*
X95580Y68521D01*
X95486Y68503D01*
X95406Y68449D01*
X95376Y68404D01*
X95243Y68419D01*
X95235Y68459D01*
X95132Y68614D01*
X94976Y68718D01*
X94920Y68729D01*
D02*
G37*
G36*
X94666Y68148D02*
X94339D01*
X94350Y68092D01*
X94454Y67936D01*
X94609Y67833D01*
X94666Y67821D01*
Y68148D01*
D02*
G37*
G36*
X97838Y68018D02*
X97511D01*
Y67691D01*
X97568Y67702D01*
X97723Y67806D01*
X97827Y67961D01*
X97838Y68018D01*
D02*
G37*
G36*
X97257D02*
X96931D01*
X96942Y67961D01*
X97046Y67806D01*
X97201Y67702D01*
X97257Y67691D01*
Y68018D01*
D02*
G37*
G36*
X100535Y67377D02*
X100208D01*
Y67050D01*
X100264Y67062D01*
X100420Y67165D01*
X100523Y67321D01*
X100535Y67377D01*
D02*
G37*
G36*
X99954D02*
X99627D01*
X99638Y67321D01*
X99742Y67165D01*
X99897Y67062D01*
X99954Y67050D01*
Y67377D01*
D02*
G37*
G36*
X98044Y66663D02*
Y66336D01*
X98371D01*
X98360Y66392D01*
X98256Y66548D01*
X98100Y66652D01*
X98044Y66663D01*
D02*
G37*
G36*
X97790D02*
X97734Y66652D01*
X97578Y66548D01*
X97474Y66392D01*
X97463Y66336D01*
X97790D01*
Y66663D01*
D02*
G37*
G36*
X98371Y66082D02*
X98044D01*
Y65755D01*
X98100Y65766D01*
X98256Y65870D01*
X98360Y66026D01*
X98371Y66082D01*
D02*
G37*
G36*
X97790D02*
X97463D01*
X97474Y66026D01*
X97578Y65870D01*
X97734Y65766D01*
X97790Y65755D01*
Y66082D01*
D02*
G37*
G36*
X102765Y65862D02*
X102438D01*
Y65535D01*
X102495Y65547D01*
X102650Y65650D01*
X102754Y65806D01*
X102765Y65862D01*
D02*
G37*
G36*
X102184D02*
X101857D01*
X101869Y65806D01*
X101972Y65650D01*
X102128Y65547D01*
X102184Y65535D01*
Y65862D01*
D02*
G37*
G36*
X96520Y66021D02*
X96401Y65997D01*
X96300Y65930D01*
X96233Y65829D01*
X96209Y65710D01*
X96233Y65591D01*
X96300Y65490D01*
X96401Y65423D01*
X96520Y65399D01*
X96639Y65423D01*
X96740Y65490D01*
X96807Y65591D01*
X96831Y65710D01*
X96807Y65829D01*
X96740Y65930D01*
X96639Y65997D01*
X96520Y66021D01*
D02*
G37*
G36*
X93599Y65589D02*
X93480Y65565D01*
X93379Y65498D01*
X93312Y65397D01*
X93288Y65278D01*
X93312Y65159D01*
X93379Y65058D01*
X93480Y64991D01*
X93599Y64967D01*
X93718Y64991D01*
X93819Y65058D01*
X93886Y65159D01*
X93910Y65278D01*
X93886Y65397D01*
X93819Y65498D01*
X93718Y65565D01*
X93599Y65589D01*
D02*
G37*
G36*
X101371Y64434D02*
X101238Y64407D01*
X101124Y64331D01*
X101048Y64218D01*
X101022Y64084D01*
X101048Y63950D01*
X101124Y63837D01*
X101238Y63761D01*
X101371Y63735D01*
X101505Y63761D01*
X101619Y63837D01*
X101694Y63950D01*
X101721Y64084D01*
X101694Y64218D01*
X101619Y64331D01*
X101505Y64407D01*
X101371Y64434D01*
D02*
G37*
G36*
X97866Y63852D02*
Y63525D01*
X98193D01*
X98182Y63582D01*
X98078Y63737D01*
X97923Y63841D01*
X97866Y63852D01*
D02*
G37*
G36*
X97612D02*
X97556Y63841D01*
X97400Y63737D01*
X97297Y63582D01*
X97285Y63525D01*
X97612D01*
Y63852D01*
D02*
G37*
G36*
X94539Y63633D02*
X94420Y63609D01*
X94319Y63542D01*
X94252Y63441D01*
X94228Y63322D01*
X94252Y63203D01*
X94319Y63102D01*
X94420Y63035D01*
X94539Y63011D01*
X94658Y63035D01*
X94759Y63102D01*
X94826Y63203D01*
X94850Y63322D01*
X94826Y63441D01*
X94759Y63542D01*
X94658Y63609D01*
X94539Y63633D01*
D02*
G37*
G36*
X98193Y63271D02*
X97866D01*
Y62945D01*
X97923Y62956D01*
X98078Y63060D01*
X98182Y63215D01*
X98193Y63271D01*
D02*
G37*
G36*
X97612D02*
X97285D01*
X97297Y63215D01*
X97400Y63060D01*
X97556Y62956D01*
X97612Y62945D01*
Y63271D01*
D02*
G37*
G36*
X96495Y62049D02*
Y61722D01*
X96821D01*
X96810Y61778D01*
X96706Y61934D01*
X96551Y62038D01*
X96495Y62049D01*
D02*
G37*
G36*
X96241D02*
X96184Y62038D01*
X96029Y61934D01*
X95925Y61778D01*
X95914Y61722D01*
X96241D01*
Y62049D01*
D02*
G37*
G36*
X101244Y62693D02*
X101125Y62670D01*
X101025Y62602D01*
X100957Y62501D01*
X100934Y62382D01*
X100957Y62263D01*
X101009Y62185D01*
X100990Y62093D01*
X100968Y62048D01*
X100843Y62023D01*
X100675Y61910D01*
X100563Y61742D01*
X100549Y61671D01*
X101534D01*
X101520Y61742D01*
X101407Y61910D01*
X101334Y61960D01*
X101360Y62095D01*
X101363Y62095D01*
X101464Y62163D01*
X101532Y62263D01*
X101555Y62382D01*
X101532Y62501D01*
X101464Y62602D01*
X101363Y62670D01*
X101244Y62693D01*
D02*
G37*
G36*
X99847Y62037D02*
Y61671D01*
X100213D01*
X100199Y61742D01*
X100087Y61910D01*
X99919Y62023D01*
X99847Y62037D01*
D02*
G37*
G36*
X99593D02*
X99522Y62023D01*
X99354Y61910D01*
X99242Y61742D01*
X99228Y61671D01*
X99593D01*
Y62037D01*
D02*
G37*
G36*
X97815Y61945D02*
X97682Y61918D01*
X97568Y61842D01*
X97492Y61729D01*
X97466Y61595D01*
X97492Y61461D01*
X97568Y61348D01*
X97682Y61272D01*
X97815Y61245D01*
X97949Y61272D01*
X98063Y61348D01*
X98138Y61461D01*
X98165Y61595D01*
X98138Y61729D01*
X98063Y61842D01*
X97949Y61918D01*
X97815Y61945D01*
D02*
G37*
G36*
X96821Y61468D02*
X96495D01*
Y61141D01*
X96551Y61152D01*
X96706Y61256D01*
X96810Y61412D01*
X96821Y61468D01*
D02*
G37*
G36*
X96241D02*
X95914D01*
X95925Y61412D01*
X96029Y61256D01*
X96184Y61152D01*
X96241Y61141D01*
Y61468D01*
D02*
G37*
G36*
X101534Y61417D02*
X101168D01*
Y61052D01*
X101239Y61066D01*
X101407Y61178D01*
X101520Y61346D01*
X101534Y61417D01*
D02*
G37*
G36*
X100914D02*
X100549D01*
X100563Y61346D01*
X100675Y61178D01*
X100843Y61066D01*
X100914Y61052D01*
Y61417D01*
D02*
G37*
G36*
X100213D02*
X99847D01*
Y61052D01*
X99919Y61066D01*
X100087Y61178D01*
X100199Y61346D01*
X100213Y61417D01*
D02*
G37*
G36*
X99593D02*
X99228D01*
X99242Y61346D01*
X99354Y61178D01*
X99522Y61066D01*
X99593Y61052D01*
Y61417D01*
D02*
G37*
G36*
X99187Y60827D02*
X99053Y60800D01*
X98940Y60725D01*
X98864Y60611D01*
X98837Y60477D01*
X98864Y60344D01*
X98940Y60230D01*
X99053Y60154D01*
X99187Y60128D01*
X99321Y60154D01*
X99434Y60230D01*
X99510Y60344D01*
X99537Y60477D01*
X99510Y60611D01*
X99434Y60725D01*
X99321Y60800D01*
X99187Y60827D01*
D02*
G37*
G36*
X101575Y60001D02*
X101456Y59977D01*
X101355Y59910D01*
X101287Y59809D01*
X101264Y59690D01*
X101287Y59571D01*
X101355Y59470D01*
X101456Y59403D01*
X101575Y59379D01*
X101694Y59403D01*
X101794Y59470D01*
X101862Y59571D01*
X101885Y59690D01*
X101862Y59809D01*
X101794Y59910D01*
X101694Y59977D01*
X101575Y60001D01*
D02*
G37*
G36*
X104902Y59182D02*
X104575D01*
X104586Y59126D01*
X104690Y58970D01*
X104846Y58866D01*
X104902Y58855D01*
Y59182D01*
D02*
G37*
G36*
X103937Y59239D02*
X103818Y59215D01*
X103717Y59148D01*
X103650Y59047D01*
X103626Y58928D01*
X103650Y58809D01*
X103717Y58708D01*
X103818Y58641D01*
X103937Y58617D01*
X104056Y58641D01*
X104157Y58708D01*
X104224Y58809D01*
X104248Y58928D01*
X104224Y59047D01*
X104157Y59148D01*
X104056Y59215D01*
X103937Y59239D01*
D02*
G37*
G36*
X102768Y58172D02*
X102649Y58148D01*
X102549Y58081D01*
X102481Y57980D01*
X102458Y57861D01*
X102481Y57742D01*
X102549Y57641D01*
X102649Y57574D01*
X102768Y57550D01*
X102887Y57574D01*
X102988Y57641D01*
X103056Y57742D01*
X103079Y57861D01*
X103056Y57980D01*
X102988Y58081D01*
X102887Y58148D01*
X102768Y58172D01*
D02*
G37*
%LPD*%
D36*
X99136Y70891D02*
X99162Y70866D01*
D38*
X118440Y56058D02*
Y56109D01*
X117602Y56947D02*
X118440Y56109D01*
X109703Y59334D02*
X116256D01*
X117907Y57683D01*
X120117Y58141D02*
X120142Y58115D01*
X120117Y58141D02*
Y58699D01*
X111266Y56947D02*
X117602D01*
X112598Y56617D02*
X113995Y55220D01*
X111150Y56617D02*
X112598D01*
X107950Y59817D02*
Y59842D01*
Y59817D02*
X111150Y56617D01*
X108059Y60154D02*
X111266Y56947D01*
X108001Y60554D02*
X109550Y59004D01*
X114351D02*
X115570Y57785D01*
X103096Y60475D02*
X103112D01*
X103433Y60154D01*
X108059D01*
X109550Y59004D02*
X114351D01*
X108102Y60935D02*
X109703Y59334D01*
X114579Y60223D02*
X115011Y59792D01*
X109245Y60223D02*
X114579D01*
X109576Y60681D02*
X118135D01*
X120117Y58699D01*
X103403Y59842D02*
X107950D01*
X103175Y60071D02*
X103403Y59842D01*
X102870Y60071D02*
X103175D01*
X102362Y60579D02*
X102870Y60071D01*
X102362Y60579D02*
Y61316D01*
X103096Y60856D02*
X103254D01*
X102819Y61132D02*
Y61671D01*
X103254Y60856D02*
X103556Y60554D01*
X108001D01*
X103581Y60935D02*
X108102D01*
X103200Y61290D02*
X103226D01*
X103581Y60935D01*
X102819Y61132D02*
X103096Y60856D01*
X102362Y62128D02*
X102819Y61671D01*
X103175Y62103D02*
X103607Y61671D01*
X107798D01*
X109245Y60223D01*
X104902Y62078D02*
X108179D01*
X109576Y60681D01*
D39*
X98051Y79288D02*
X98074Y79265D01*
X98017Y79322D02*
X98051Y79288D01*
X98038Y83736D02*
X98079Y83777D01*
X98038Y82743D02*
Y83736D01*
X99517Y83668D02*
X100406Y84557D01*
X99517Y81195D02*
Y83668D01*
X99949Y83744D02*
X100787Y84582D01*
X99949Y82660D02*
Y83744D01*
X100660Y83998D02*
X100736D01*
X100220Y83557D02*
X100660Y83998D01*
X100220Y82702D02*
Y83557D01*
X99263Y84268D02*
X99280Y84285D01*
X98781Y84311D02*
X100045Y85575D01*
X100406Y84557D02*
Y85549D01*
X100787Y84582D02*
Y86030D01*
X100914Y83541D02*
X101194Y83820D01*
X101575Y83261D02*
Y83845D01*
X98094Y79331D02*
Y79331D01*
X98051Y79288D02*
X98094Y79331D01*
X98152Y79978D02*
X98466Y79665D01*
X98222Y78867D02*
X98466Y79111D01*
Y79665D01*
X97223Y79322D02*
X98017D01*
X96869Y78969D02*
X97223Y79322D01*
X98501Y86055D02*
Y86538D01*
X98222Y85776D02*
X98501Y86055D01*
X96698Y82906D02*
X97206Y82398D01*
X96698Y82906D02*
Y84252D01*
X97206Y81940D02*
Y82398D01*
X96647Y81382D02*
X97206Y81940D01*
X98781Y83877D02*
Y83947D01*
X98684Y83780D02*
X98781Y83877D01*
X98398Y83780D02*
X98684D01*
X98301Y83684D02*
X98398Y83780D01*
X98301Y83490D02*
Y83684D01*
Y83490D02*
X98398Y83394D01*
X98945D01*
X99042Y83297D01*
Y83103D02*
Y83297D01*
X98945Y83007D02*
X99042Y83103D01*
X98877Y83007D02*
X98945D01*
X98781Y82910D02*
X98877Y83007D01*
X98781Y82485D02*
Y82910D01*
Y82485D02*
X98809Y82457D01*
X98781Y83947D02*
Y84311D01*
X98171Y78329D02*
Y78503D01*
X98074Y78233D02*
X98171Y78329D01*
X97448Y78233D02*
X98074D01*
X97351Y78136D02*
X97448Y78233D01*
X97351Y77942D02*
Y78136D01*
Y77942D02*
X97448Y77846D01*
X98110D01*
X98207Y77749D01*
Y77556D02*
Y77749D01*
X98110Y77459D02*
X98207Y77556D01*
X97448Y77459D02*
X98110D01*
X97351Y77362D02*
X97448Y77459D01*
X97351Y77169D02*
Y77362D01*
Y77169D02*
X97448Y77072D01*
X98110D01*
X98207Y76976D01*
Y76782D02*
Y76976D01*
X98110Y76686D02*
X98207Y76782D01*
X97448Y76686D02*
X98110D01*
X97351Y76589D02*
X97448Y76686D01*
X97351Y76395D02*
Y76589D01*
Y76395D02*
X97448Y76299D01*
X98110D01*
X98207Y76202D01*
Y76009D02*
Y76202D01*
X98110Y75912D02*
X98207Y76009D01*
X98062Y75912D02*
X98110D01*
X97965Y75815D02*
X98062Y75912D01*
X97965Y75622D02*
Y75815D01*
Y75622D02*
X98062Y75525D01*
X98074D01*
X98171Y75429D01*
Y75398D02*
Y75429D01*
Y75362D02*
Y75398D01*
Y75336D02*
Y75362D01*
X97130Y76048D02*
Y78664D01*
X97333Y78867D02*
X98222D01*
X97130Y78664D02*
X97333Y78867D01*
X98171Y78503D02*
X98809Y79141D01*
Y82457D01*
X98704Y67894D02*
X101194D01*
X98431Y68167D02*
X98704Y67894D01*
X101194D02*
X101981Y68682D01*
X98431Y68167D02*
Y68523D01*
X101981Y69722D02*
Y69837D01*
Y69722D02*
X102078Y69625D01*
X102538D01*
X102635Y69528D01*
Y69335D02*
Y69528D01*
X102538Y69238D02*
X102635Y69335D01*
X102078Y69238D02*
X102538D01*
X101981Y69142D02*
X102078Y69238D01*
X101981Y68689D02*
Y69142D01*
Y69837D02*
Y70917D01*
Y68682D02*
Y68689D01*
X101739Y71159D02*
X101981Y70917D01*
X100609Y72288D02*
X100735Y72163D01*
Y72027D02*
Y72163D01*
X100389Y71681D02*
X100735Y72027D01*
X100389Y71544D02*
X100389Y71681D01*
X100389Y71544D02*
X100525Y71407D01*
X100662Y71407D01*
X101261Y72006D01*
X101398Y72006D01*
X101535Y71870D01*
X101535Y71733D02*
X101535Y71870D01*
X100747Y70945D02*
X101535Y71733D01*
X100747Y70808D02*
X100747Y70945D01*
X100747Y70808D02*
X100884Y70672D01*
X101021Y70672D01*
X101555Y71206D01*
X101692D01*
X101739Y71159D01*
X100406Y72492D02*
X100609Y72288D01*
X98374Y68580D02*
X98431Y68523D01*
X100406Y72492D02*
Y72517D01*
X99765Y72771D02*
X100152D01*
X100406Y72517D01*
X99562Y72974D02*
X99765Y72771D01*
X99136Y78545D02*
Y78689D01*
Y78545D02*
X99233Y78448D01*
X99272D01*
X99369Y78351D01*
Y78158D02*
Y78351D01*
X99272Y78061D02*
X99369Y78158D01*
X98526Y78061D02*
X99272D01*
X98429Y77965D02*
X98526Y78061D01*
X98429Y77771D02*
Y77965D01*
Y77771D02*
X98526Y77675D01*
X99272D01*
X99369Y77578D01*
Y77384D02*
Y77578D01*
X99272Y77288D02*
X99369Y77384D01*
X98526Y77288D02*
X99272D01*
X98429Y77191D02*
X98526Y77288D01*
X98429Y76998D02*
Y77191D01*
Y76998D02*
X98526Y76901D01*
X99244D01*
X99341Y76804D01*
Y76611D02*
Y76804D01*
X99244Y76514D02*
X99341Y76611D01*
X98526Y76514D02*
X99244D01*
X98429Y76418D02*
X98526Y76514D01*
X98429Y76224D02*
Y76418D01*
Y76224D02*
X98526Y76127D01*
X99244D01*
X99341Y76031D01*
Y75837D02*
Y76031D01*
X99244Y75741D02*
X99341Y75837D01*
X98564Y75741D02*
X99244D01*
X98467Y75644D02*
X98564Y75741D01*
X98467Y75451D02*
Y75644D01*
Y75451D02*
X98564Y75354D01*
X99244D01*
X99341Y75257D01*
Y75064D02*
Y75257D01*
X99244Y74967D02*
X99341Y75064D01*
X99038Y74967D02*
X99244D01*
X98942Y74870D02*
X99038Y74967D01*
X98942Y74677D02*
Y74870D01*
Y74677D02*
X99038Y74580D01*
X99244D01*
X99341Y74484D01*
Y74290D02*
Y74484D01*
X99244Y74194D02*
X99341Y74290D01*
X99038Y74194D02*
X99244D01*
X98942Y74097D02*
X99038Y74194D01*
X98942Y73904D02*
Y74097D01*
Y73904D02*
X99038Y73807D01*
X99244D01*
X99341Y73710D01*
Y73517D02*
Y73710D01*
X99244Y73420D02*
X99341Y73517D01*
X99038Y73420D02*
X99244D01*
X98942Y73323D02*
X99038Y73420D01*
X98942Y73130D02*
Y73323D01*
Y73130D02*
X99038Y73033D01*
X99244D01*
X99341Y72937D01*
Y72743D02*
Y72937D01*
X99244Y72647D02*
X99341Y72743D01*
X99038Y72647D02*
X99244D01*
X98942Y72550D02*
X99038Y72647D01*
X98942Y72357D02*
Y72550D01*
Y72357D02*
X99038Y72260D01*
X99548D01*
X99644Y72163D01*
Y71970D02*
Y72163D01*
X99548Y71873D02*
X99644Y71970D01*
X99038Y71873D02*
X99548D01*
X98942Y71776D02*
X99038Y71873D01*
X98942Y71583D02*
Y71776D01*
Y71583D02*
X99038Y71486D01*
X99040D01*
X99136Y71390D01*
Y71323D02*
Y71390D01*
Y78689D02*
Y78893D01*
Y70891D02*
Y71323D01*
X98171Y75336D02*
X98720Y74787D01*
X99562Y72974D02*
Y76807D01*
X99591Y76835D02*
Y80516D01*
X99562Y76807D02*
X99591Y76835D01*
X99441Y80666D02*
X99591Y80516D01*
X99070Y78959D02*
X99136Y78893D01*
X98720Y69612D02*
Y74787D01*
X98349Y69240D02*
X98720Y69612D01*
X98282Y70866D02*
Y72509D01*
X97130Y76048D02*
X98386Y74791D01*
X98374Y73254D02*
X98386Y73265D01*
X98374Y72601D02*
Y73254D01*
X98386Y73265D02*
Y74791D01*
X98038Y82743D02*
X98079Y82702D01*
Y82559D02*
Y82702D01*
Y82559D02*
X98176Y82462D01*
X98491D01*
X98587Y82365D01*
Y82172D02*
Y82365D01*
X98491Y82075D02*
X98587Y82172D01*
X98038Y82075D02*
X98491D01*
X97942Y81978D02*
X98038Y82075D01*
X97942Y81785D02*
Y81978D01*
Y81785D02*
X98038Y81688D01*
X98491D01*
X98587Y81592D01*
Y81398D02*
Y81592D01*
X98491Y81302D02*
X98587Y81398D01*
X97668Y81302D02*
X98491D01*
X97571Y81205D02*
X97668Y81302D01*
X97571Y81011D02*
Y81205D01*
Y81011D02*
X97668Y80915D01*
X98491D01*
X98587Y80818D01*
Y80625D02*
Y80818D01*
X98491Y80528D02*
X98587Y80625D01*
X97668Y80528D02*
X98491D01*
X97571Y80431D02*
X97668Y80528D01*
X97571Y80238D02*
Y80431D01*
Y80238D02*
X97668Y80141D01*
X97989D01*
X98152Y79978D01*
X98282Y72509D02*
X98374Y72601D01*
X99011Y84854D02*
X99102Y84946D01*
X98874Y84854D02*
X99011D01*
X98516Y85211D02*
X98874Y84854D01*
X98380Y85211D02*
X98516Y85211D01*
X98243Y85075D02*
X98380Y85211D01*
X98243Y85075D02*
X98243Y84938D01*
X98602Y84579D01*
Y84442D02*
Y84579D01*
X98465Y84305D02*
X98602Y84442D01*
X98328Y84305D02*
X98465D01*
X98124Y84510D02*
X98328Y84305D01*
X97988Y84510D02*
X98124Y84510D01*
X97851Y84373D02*
X97988Y84510D01*
X97851Y84373D02*
X97851Y84236D01*
X98079Y84008D01*
Y83777D02*
Y84008D01*
X99102Y84946D02*
X99289Y85132D01*
X97918Y85472D02*
X98222Y85776D01*
X97781Y85472D02*
X97918Y85472D01*
X97714Y85539D02*
X97781Y85472D01*
X97577Y85539D02*
X97714D01*
X97440Y85403D02*
X97577Y85539D01*
X97440Y85266D02*
Y85403D01*
Y85266D02*
X97867Y84839D01*
X97867Y84702D01*
X97730Y84566D02*
X97867Y84702D01*
X97593Y84566D02*
X97730Y84566D01*
X97012Y85147D02*
X97593Y84566D01*
X96875Y85147D02*
X97012D01*
X96738Y85011D02*
X96875Y85147D01*
X96738Y84874D02*
Y85011D01*
Y84874D02*
X96961Y84651D01*
X96961Y84515D01*
X96914Y84468D02*
X96961Y84515D01*
X96698Y84252D02*
X96914Y84468D01*
X95961Y72060D02*
X96622Y72720D01*
X95961Y70866D02*
Y72060D01*
X96622Y72720D02*
X97367D01*
X98164Y73517D01*
X96869Y75982D02*
X98164Y74687D01*
Y73517D02*
Y74687D01*
X96647Y75890D02*
X97942Y74595D01*
X97282Y72949D02*
X97942Y73609D01*
Y74595D01*
X96869Y75982D02*
Y78969D01*
X95174Y72060D02*
X96063Y72949D01*
X97282D01*
X96647Y75890D02*
Y81382D01*
X98984Y87020D02*
X100076D01*
X98501Y86538D02*
X98984Y87020D01*
X99070Y78959D02*
Y81010D01*
X102829Y85754D02*
Y86030D01*
Y85754D02*
X102926Y85657D01*
X103356D01*
X103453Y85560D01*
Y85367D02*
Y85560D01*
X103356Y85270D02*
X103453Y85367D01*
X102782Y85270D02*
X103356D01*
X102685Y85174D02*
X102782Y85270D01*
X102685Y84980D02*
Y85174D01*
Y84980D02*
X102782Y84884D01*
X103356D01*
X103453Y84787D01*
Y84594D02*
Y84787D01*
X103356Y84497D02*
X103453Y84594D01*
X102926Y84497D02*
X103356D01*
X102829Y84400D02*
X102926Y84497D01*
X102829Y83947D02*
Y84400D01*
X99812Y75016D02*
Y75100D01*
Y75016D02*
X99837Y74992D01*
Y74855D02*
Y74992D01*
X99833Y74851D02*
X99837Y74855D01*
X99833Y74714D02*
X99833Y74851D01*
X99833Y74714D02*
X99969Y74577D01*
X100106Y74577D01*
X100110Y74581D01*
X100247D01*
X100384Y74445D01*
Y74308D02*
Y74445D01*
X99970Y73894D02*
X100384Y74308D01*
X99970Y73758D02*
Y73894D01*
Y73758D02*
X100107Y73621D01*
X100243D01*
X100657Y74034D01*
X100794D01*
X100931Y73898D01*
Y73761D02*
Y73898D01*
X100303Y73134D02*
X100931Y73761D01*
X100303Y72997D02*
Y73134D01*
Y72997D02*
X100440Y72860D01*
X100577D01*
X101204Y73487D01*
X101341D01*
X101478Y73351D01*
Y73214D02*
Y73351D01*
X100850Y72587D02*
X101478Y73214D01*
X100850Y72450D02*
Y72587D01*
Y72450D02*
X100987Y72313D01*
X101124D01*
X101751Y72940D01*
X101888D01*
X102024Y72804D01*
Y72667D02*
Y72804D01*
X101974Y72617D02*
X102024Y72667D01*
X101974Y72480D02*
X101974Y72617D01*
X101974Y72480D02*
X102111Y72343D01*
X102248Y72343D01*
X102298Y72393D01*
X102435D01*
X102482Y72347D01*
X99812Y75100D02*
Y80900D01*
X102482Y72347D02*
X103065Y71763D01*
X100051Y76539D02*
Y80975D01*
Y76302D02*
Y76539D01*
Y76302D02*
X100147Y76206D01*
X100854D01*
X100951Y76109D01*
Y75916D02*
Y76109D01*
X100854Y75819D02*
X100951Y75916D01*
X100147Y75819D02*
X100854D01*
X100051Y75722D02*
X100147Y75819D01*
X100051Y75387D02*
Y75722D01*
Y75387D02*
X100169Y75269D01*
X100254Y75184D01*
X104064Y72365D02*
X104290Y72139D01*
X103923Y72365D02*
X104064D01*
X103826Y72461D02*
X103923Y72365D01*
X103826Y72461D02*
Y72734D01*
X103730Y72831D02*
X103826Y72734D01*
X103536Y72831D02*
X103730D01*
X103439Y72734D02*
X103536Y72831D01*
X103439Y72461D02*
Y72734D01*
X103343Y72365D02*
X103439Y72461D01*
X103276Y72365D02*
X103343D01*
X104290Y72139D02*
X104301Y72128D01*
X103073Y72365D02*
X103276D01*
X100254Y75184D02*
X100314Y75124D01*
X100314Y74987D02*
X100314Y75124D01*
X100303Y74976D02*
X100314Y74987D01*
X100303Y74839D02*
X100303Y74976D01*
X100303Y74839D02*
X100439Y74702D01*
X100576Y74702D01*
X101269Y75396D01*
X101406D01*
X101543Y75259D01*
Y75122D02*
Y75259D01*
X100850Y74429D02*
X101543Y75122D01*
X100850Y74292D02*
X100850Y74429D01*
X100850Y74292D02*
X100986Y74155D01*
X101123Y74155D01*
X101738Y74770D01*
X101874Y74770D01*
X102011Y74633D01*
X102011Y74496D02*
X102011Y74633D01*
X101396Y73882D02*
X102011Y74496D01*
X101396Y73745D02*
X101396Y73882D01*
X101396Y73745D02*
X101533Y73608D01*
X101670Y73608D01*
X102285Y74223D01*
X102421Y74223D01*
X102558Y74086D01*
X102558Y73950D02*
X102558Y74086D01*
X101943Y73335D02*
X102558Y73950D01*
X101943Y73198D02*
X101943Y73335D01*
X101943Y73198D02*
X102080Y73062D01*
X102217Y73062D01*
X102831Y73676D01*
X102968Y73676D01*
X103105Y73539D01*
X103105Y73403D02*
X103105Y73539D01*
X102490Y72788D02*
X103105Y73403D01*
X102490Y72651D02*
X102490Y72788D01*
X102490Y72651D02*
X102627Y72515D01*
X102764Y72515D01*
X102775Y72526D01*
X102912Y72526D01*
X102959Y72479D01*
X103073Y72365D01*
X101702Y75768D02*
X101952Y75518D01*
Y75381D02*
Y75518D01*
X101833Y75262D02*
X101952Y75381D01*
X101833Y75125D02*
Y75262D01*
Y75125D02*
X101970Y74988D01*
X102106D01*
X102602Y75484D01*
X102739Y75484D01*
X102876Y75347D01*
X102876Y75211D02*
X102876Y75347D01*
X102380Y74715D02*
X102876Y75211D01*
X102380Y74578D02*
Y74715D01*
Y74578D02*
X102517Y74441D01*
X102653D01*
X103040Y74828D01*
X103177D01*
X103314Y74691D01*
Y74555D02*
Y74691D01*
X102927Y74168D02*
X103314Y74555D01*
X102927Y74031D02*
Y74168D01*
Y74031D02*
X103064Y73894D01*
X103200D01*
X104071Y74765D01*
X104208Y74765D01*
X104345Y74629D01*
X104345Y74492D02*
X104345Y74629D01*
X103474Y73621D02*
X104345Y74492D01*
X103474Y73484D02*
Y73621D01*
Y73484D02*
X103611Y73347D01*
X103747D01*
X104480Y74080D01*
X104616D01*
X104753Y73943D01*
Y73806D02*
Y73943D01*
X104021Y73074D02*
X104753Y73806D01*
X104021Y72937D02*
Y73074D01*
Y72937D02*
X104157Y72800D01*
X104294D01*
X104414Y72920D01*
X104550D01*
X104597Y72873D01*
X104301Y71636D02*
Y72128D01*
X103065Y71763D02*
X103903D01*
X103953Y71288D02*
X104301Y71636D01*
X100497Y76973D02*
X101702Y75768D01*
X104597Y72873D02*
X104709Y72761D01*
X104423Y76429D02*
X104597D01*
X104326Y76332D02*
X104423Y76429D01*
X104326Y75152D02*
Y76332D01*
X104229Y75056D02*
X104326Y75152D01*
X104036Y75056D02*
X104229D01*
X103939Y75152D02*
X104036Y75056D01*
X103939Y75152D02*
Y76517D01*
X103843Y76613D02*
X103939Y76517D01*
X103649Y76613D02*
X103843D01*
X103553Y76517D02*
X103649Y76613D01*
X103553Y75152D02*
Y76517D01*
X103456Y75056D02*
X103553Y75152D01*
X103263Y75056D02*
X103456D01*
X103166Y75152D02*
X103263Y75056D01*
X103166Y75152D02*
Y76332D01*
X103069Y76429D02*
X103166Y76332D01*
X102616Y76429D02*
X103069D01*
X104597D02*
X104775D01*
X102131D02*
X102616D01*
X100736Y77445D02*
X101006Y77175D01*
Y77038D02*
Y77175D01*
X100944Y76976D02*
X101006Y77038D01*
X100944Y76839D02*
X100944Y76976D01*
X100944Y76839D02*
X101081Y76703D01*
X101217Y76703D01*
X101639Y77124D01*
X101775D01*
X101912Y76987D01*
Y76851D02*
Y76987D01*
X101491Y76429D02*
X101912Y76851D01*
X101491Y76292D02*
X101491Y76429D01*
X101491Y76292D02*
X101628Y76156D01*
X101764Y76156D01*
X102037Y76429D01*
X102131D01*
X101130Y78676D02*
X101390Y78417D01*
X101527D01*
X101561Y78451D01*
X101698D01*
X101835Y78314D01*
Y78178D02*
Y78314D01*
X101441Y77784D02*
X101835Y78178D01*
X101441Y77647D02*
Y77784D01*
Y77647D02*
X101578Y77510D01*
X101715D01*
X101937Y77733D01*
X102074Y77733D01*
X102121Y77686D01*
X100965Y78842D02*
X101130Y78676D01*
X102121Y77686D02*
X102972Y76835D01*
X100736Y77445D02*
Y82186D01*
X104140Y77470D02*
X104826D01*
X103582Y78028D02*
X104119Y77491D01*
X103445Y78028D02*
X103582Y78028D01*
X103008Y77591D02*
X103445Y78028D01*
X102871Y77591D02*
X103008Y77591D01*
X102735Y77728D02*
X102871Y77591D01*
X102735Y77728D02*
X102735Y77864D01*
X103266Y78396D01*
X103266Y78533D01*
X103129Y78669D02*
X103266Y78533D01*
X102993Y78669D02*
X103129Y78669D01*
X102461Y78138D02*
X102993Y78669D01*
X102324Y78138D02*
X102461Y78138D01*
X102188Y78274D02*
X102324Y78138D01*
X102188Y78274D02*
X102188Y78411D01*
X102719Y78943D01*
X102719Y79080D01*
X102583Y79216D02*
X102719Y79080D01*
X102446Y79216D02*
X102583Y79216D01*
X101914Y78685D02*
X102446Y79216D01*
X101777Y78685D02*
X101914Y78685D01*
X101641Y78821D02*
X101777Y78685D01*
X101641Y78821D02*
X101641Y78958D01*
X102172Y79490D01*
X102172Y79627D01*
X102036Y79763D02*
X102172Y79627D01*
X101899Y79763D02*
X102036Y79763D01*
X101529Y79393D02*
X101899Y79763D01*
X101392Y79393D02*
X101529Y79393D01*
X101255Y79530D02*
X101392Y79393D01*
X101255Y79530D02*
X101255Y79667D01*
X101531Y79942D01*
X101531Y80079D01*
X101235Y80375D02*
X101531Y80079D01*
X101235Y80375D02*
Y80424D01*
X104119Y77491D02*
X104140Y77470D01*
X101235Y80424D02*
Y82636D01*
X102972Y76835D02*
X104775D01*
X100965Y78842D02*
Y82271D01*
X105206Y78638D02*
X105415Y78430D01*
X105415Y78293D02*
X105415Y78430D01*
X105306Y78184D02*
X105415Y78293D01*
X105306Y78048D02*
Y78184D01*
Y78048D02*
X105442Y77911D01*
X105579D01*
X105688Y78020D01*
X105825Y78020D01*
X105872Y77973D01*
X104952Y78892D02*
X105206Y78638D01*
X105872Y77973D02*
X105987Y77857D01*
X101625Y81178D02*
X102123Y80681D01*
X102123Y80544D02*
X102123Y80681D01*
X101901Y80322D02*
X102123Y80544D01*
X101901Y80185D02*
Y80322D01*
Y80185D02*
X102037Y80048D01*
X102174D01*
X102836Y80711D01*
X102973Y80711D01*
X103110Y80574D01*
X103110Y80437D02*
X103110Y80574D01*
X102447Y79775D02*
X103110Y80437D01*
X102447Y79638D02*
Y79775D01*
Y79638D02*
X102584Y79501D01*
X102721D01*
X103464Y80244D01*
X103601Y80244D01*
X103737Y80107D01*
X103737Y79971D02*
X103737Y80107D01*
X102994Y79228D02*
X103737Y79971D01*
X102994Y79091D02*
Y79228D01*
Y79091D02*
X103131Y78954D01*
X103268D01*
X103605Y79292D01*
X103742D01*
X103879Y79155D01*
Y79018D02*
Y79155D01*
X103541Y78681D02*
X103879Y79018D01*
X103541Y78544D02*
Y78681D01*
Y78544D02*
X103678Y78407D01*
X103815D01*
X104300Y78892D01*
X104394D01*
X101473Y81331D02*
X101625Y81178D01*
X104394Y78892D02*
X104952D01*
X104754Y79404D02*
X106209Y77949D01*
X104220Y79938D02*
X104267Y79891D01*
X104297Y79861D01*
Y79725D02*
Y79861D01*
X104028Y79456D02*
X104297Y79725D01*
X104028Y79319D02*
Y79456D01*
Y79319D02*
X104165Y79182D01*
X104301D01*
X104570Y79451D01*
X104707Y79451D01*
X104707Y79451D01*
X104754Y79404D01*
X103157Y81001D02*
X104220Y79938D01*
X104826Y77470D02*
X105766Y76530D01*
Y71002D02*
Y76530D01*
X104775Y75845D02*
X105043Y75576D01*
X104672Y71720D02*
X104709Y71756D01*
X103505Y69621D02*
X104385D01*
X103623Y71288D02*
X103953D01*
X104821Y70896D02*
X105265Y71339D01*
X104775Y76429D02*
X105265Y75939D01*
X103954Y70011D02*
X104461D01*
X105043Y71529D02*
Y75576D01*
X103200Y70866D02*
X103623Y71288D01*
X104709Y71756D02*
Y72761D01*
X104812Y71298D02*
X105043Y71529D01*
X105265Y71339D02*
Y75939D01*
X102337Y68453D02*
X103505Y69621D01*
X104775Y76835D02*
X105487Y76123D01*
X104461Y70011D02*
X105487Y71036D01*
Y76123D01*
X104775Y75845D02*
Y75895D01*
X105987Y70910D02*
Y77857D01*
X106209Y70818D02*
Y77949D01*
X106431Y70667D02*
Y78041D01*
X106655Y70443D02*
Y78130D01*
X106909Y70383D02*
Y79527D01*
X107130Y70292D02*
Y81363D01*
X107352Y70200D02*
Y82742D01*
X104024Y66872D02*
X107352Y70200D01*
X102591Y87503D02*
X107352Y82742D01*
X102057Y87503D02*
X102591D01*
X101625Y87071D02*
X102057Y87503D01*
X104283Y67444D02*
X107130Y70292D01*
X106240Y82254D02*
X107130Y81363D01*
X106087Y82254D02*
X106240D01*
X104191Y67666D02*
X106909Y70383D01*
X104298Y68086D02*
X106655Y70443D01*
X106591Y78194D02*
X106655Y78130D01*
X103834Y68086D02*
X104298D01*
X104278Y68514D02*
X106431Y70667D01*
X103249Y81222D02*
X106431Y78041D01*
X104045Y68514D02*
X104278D01*
X103988Y68457D02*
X104045Y68514D01*
X104260Y68869D02*
X106209Y70818D01*
X104352Y69274D02*
X105987Y70910D01*
X104385Y69621D02*
X105766Y71002D01*
X103175Y67666D02*
X104191D01*
X103690Y67444D02*
X104283D01*
X103495Y67249D02*
X103690Y67444D01*
X102708Y67249D02*
X103495D01*
X103962Y66872D02*
X104024D01*
X100497Y76973D02*
Y82112D01*
X102210Y81001D02*
X103157D01*
X101473Y81331D02*
Y83160D01*
X101702Y81509D02*
Y82982D01*
Y81509D02*
X102210Y81001D01*
X101956Y81636D02*
X102369Y81222D01*
X101956Y81636D02*
Y82804D01*
X102369Y81222D02*
X103249D01*
X99970Y81056D02*
X100051Y80975D01*
X99970Y81056D02*
Y82114D01*
X99441Y80666D02*
Y80747D01*
X99070Y81010D02*
X99263Y81204D01*
X99517Y81195D02*
X99812Y80900D01*
X102216Y81858D02*
Y82531D01*
Y81858D02*
X102591Y81483D01*
X103302D01*
X99263Y81204D02*
Y84268D01*
X103750Y82254D02*
X103893D01*
X103990Y82157D01*
Y82106D02*
Y82157D01*
Y82106D02*
X104087Y82010D01*
X104280D01*
X104377Y82106D01*
Y82758D01*
X104473Y82855D01*
X104667D01*
X104763Y82758D01*
Y82074D02*
Y82758D01*
Y82074D02*
X104860Y81977D01*
X105054D01*
X105150Y82074D01*
Y82758D01*
X105247Y82855D01*
X105440D01*
X105537Y82758D01*
Y81935D02*
Y82758D01*
Y81935D02*
X105634Y81839D01*
X105827D01*
X105924Y81935D01*
Y82157D01*
X106020Y82254D01*
X106087D01*
X103192D02*
X103750D01*
X103543Y81242D02*
X103673Y81112D01*
X103809D01*
X104095Y81398D01*
X104232Y81398D01*
X104369Y81261D01*
X104369Y81125D02*
X104369Y81261D01*
X104083Y80839D02*
X104369Y81125D01*
X104083Y80702D02*
X104083Y80839D01*
X104083Y80702D02*
X104220Y80565D01*
X104356Y80565D01*
X104529Y80738D01*
X104666Y80738D01*
X104803Y80602D01*
X104803Y80465D02*
X104803Y80602D01*
X104630Y80292D02*
X104803Y80465D01*
X104630Y80155D02*
X104630Y80292D01*
X104630Y80155D02*
X104767Y80019D01*
X104903Y80019D01*
X105076Y80191D01*
X105213Y80191D01*
X105350Y80055D01*
X105350Y79918D02*
X105350Y80055D01*
X105177Y79745D02*
X105350Y79918D01*
X105177Y79608D02*
X105177Y79745D01*
X105177Y79608D02*
X105313Y79472D01*
X105450Y79472D01*
X105623Y79644D01*
X105760Y79644D01*
X105897Y79508D01*
X105896Y79371D02*
X105897Y79508D01*
X105724Y79198D02*
X105896Y79371D01*
X105724Y79061D02*
X105724Y79198D01*
X105724Y79061D02*
X105860Y78925D01*
X105997Y78925D01*
X106283Y79210D01*
X106420Y79210D01*
X106556Y79074D01*
X106556Y78937D02*
X106556Y79074D01*
X106271Y78651D02*
X106556Y78937D01*
X106271Y78514D02*
Y78651D01*
Y78514D02*
X106591Y78194D01*
X103302Y81483D02*
X103543Y81242D01*
X106663Y79773D02*
X106909Y79527D01*
X106526Y79773D02*
X106663D01*
X106304Y79550D02*
X106526Y79773D01*
X106167Y79550D02*
X106304D01*
X106030Y79687D02*
X106167Y79550D01*
X106030Y79687D02*
Y79824D01*
X106758Y80552D01*
X106758Y80688D01*
X106621Y80825D02*
X106758Y80688D01*
X106485Y80825D02*
X106621Y80825D01*
X105757Y80097D02*
X106485Y80825D01*
X105620Y80097D02*
X105757D01*
X105483Y80234D02*
X105620Y80097D01*
X105483Y80234D02*
Y80371D01*
X106211Y81099D01*
X106211Y81235D01*
X106074Y81372D02*
X106211Y81235D01*
X105938Y81372D02*
X106074Y81372D01*
X105210Y80644D02*
X105938Y81372D01*
X105073Y80644D02*
X105210D01*
X104936Y80781D02*
X105073Y80644D01*
X104936Y80781D02*
Y80918D01*
X105159Y81140D01*
Y81277D01*
X104839Y81598D02*
X105159Y81277D01*
X104648Y81788D02*
X104839Y81598D01*
X102464Y85198D02*
Y86182D01*
X102367Y85101D02*
X102464Y85198D01*
X102052Y85101D02*
X102367D01*
X101956Y85004D02*
X102052Y85101D01*
X101956Y84811D02*
Y85004D01*
Y84811D02*
X102052Y84714D01*
X102511D01*
X102607Y84618D01*
Y84424D02*
Y84618D01*
X102511Y84327D02*
X102607Y84424D01*
X102052Y84327D02*
X102511D01*
X101956Y84231D02*
X102052Y84327D01*
X101956Y84037D02*
Y84231D01*
Y84037D02*
X102052Y83941D01*
X102367D01*
X102464Y83844D01*
Y83778D02*
Y83844D01*
Y83744D02*
Y83778D01*
X101702Y82982D02*
X102464Y83744D01*
X102829Y86030D02*
Y86655D01*
Y83677D02*
Y83947D01*
X102413Y87071D02*
X102829Y86655D01*
X101194Y83820D02*
Y87554D01*
X101617Y87977D02*
X102277D01*
X101194Y87554D02*
X101617Y87977D01*
X99289Y85522D02*
X99314Y85547D01*
X99289Y85132D02*
Y85522D01*
X100045Y86166D02*
X100061Y86182D01*
X100045Y85575D02*
Y86166D01*
X99949Y82660D02*
X100497Y82112D01*
X100220Y82702D02*
X100736Y82186D01*
X100441Y82794D02*
X100965Y82271D01*
X100441Y82794D02*
Y83212D01*
X100449Y83219D01*
Y83253D01*
X100736Y83541D01*
X100813Y83058D02*
X101235Y82636D01*
X95174Y70104D02*
Y72060D01*
X100406Y85549D02*
X100416Y85559D01*
X101473Y83160D02*
X101575Y83261D01*
X102995Y81788D02*
X104648D01*
X103971Y69274D02*
X104352D01*
X103175Y68478D02*
X103566Y68869D01*
X104260D01*
X103937Y69240D02*
X103971Y69274D01*
X100736Y83541D02*
X100914D01*
X102216Y82531D02*
X102692Y83007D01*
X103276D01*
X101956Y82804D02*
X102829Y83677D01*
X102277Y87977D02*
X102311Y88011D01*
X102438Y86208D02*
X102464Y86182D01*
X102636Y82147D02*
X102995Y81788D01*
X102337Y66878D02*
X102708Y67249D01*
X104412Y71298D02*
X104812D01*
X103813Y68107D02*
X103834Y68086D01*
X102778Y68107D02*
X103813D01*
X102362Y67691D02*
X102778Y68107D01*
X103165Y70050D02*
X104412Y71298D01*
D41*
X80874Y65024D02*
D03*
D42*
Y62484D02*
D03*
D43*
X129718Y58441D02*
D03*
Y62941D02*
D03*
D44*
Y54991D02*
D03*
Y66391D02*
D03*
D45*
X119580Y47800D02*
D03*
X119080Y47300D02*
D03*
X120080D02*
D03*
Y48300D02*
D03*
X119080D02*
D03*
D46*
X97612Y82271D02*
D03*
X96825Y82194D02*
D03*
X97663Y83896D02*
D03*
X98409Y83007D02*
D03*
X100736Y83998D02*
D03*
X99280Y84285D02*
D03*
X101575Y83845D02*
D03*
X99449Y89112D02*
D03*
X90988Y86614D02*
D03*
X92768Y87086D02*
D03*
X96105Y88752D02*
D03*
X96875Y88801D02*
D03*
X90988Y83941D02*
D03*
X95301Y87046D02*
D03*
X94158Y79502D02*
D03*
X98624Y85573D02*
D03*
X97765Y85979D02*
D03*
X98094Y79331D02*
D03*
X101956Y88824D02*
D03*
X89934Y85704D02*
D03*
X91694Y89764D02*
D03*
X95184Y83033D02*
D03*
X94424Y82977D02*
D03*
X94463Y87808D02*
D03*
X99688Y55369D02*
D03*
X103881Y56641D02*
D03*
X100081Y67504D02*
D03*
X97384Y68145D02*
D03*
X97917Y66209D02*
D03*
X112997Y43785D02*
D03*
X111738Y49034D02*
D03*
X109449Y50673D02*
D03*
X109969D02*
D03*
X102768Y57861D02*
D03*
X96368Y61595D02*
D03*
X95742Y48287D02*
D03*
X102311Y65989D02*
D03*
X101244Y62382D02*
D03*
X97739Y63398D02*
D03*
X87097Y61544D02*
D03*
X122238Y49161D02*
D03*
X115878Y46303D02*
D03*
X117094Y53848D02*
D03*
X121006Y50165D02*
D03*
X124968Y70028D02*
D03*
X97155Y56896D02*
D03*
X79908Y67208D02*
D03*
X78816Y54915D02*
D03*
X118440Y56058D02*
D03*
X117907Y57683D02*
D03*
X120142Y58115D02*
D03*
X115570Y57785D02*
D03*
X115011Y59792D02*
D03*
X113995Y55220D02*
D03*
X103096Y60475D02*
D03*
X103200Y61290D02*
D03*
X103175Y62103D02*
D03*
X104902Y62078D02*
D03*
X102362Y62128D02*
D03*
Y61316D02*
D03*
X108534Y67564D02*
D03*
X120625Y67945D02*
D03*
X115113Y66777D02*
D03*
X120066Y67488D02*
D03*
X118923Y66523D02*
D03*
X121158Y68809D02*
D03*
X109474Y65380D02*
D03*
X108687Y64805D02*
D03*
X126027Y48293D02*
D03*
X126555Y48285D02*
D03*
X125311Y61354D02*
D03*
X124943Y60985D02*
D03*
X109982Y62865D02*
D03*
X109614Y62497D02*
D03*
X98069Y55931D02*
D03*
X85268Y55016D02*
D03*
X92075Y72009D02*
D03*
X90221Y81229D02*
D03*
X93760Y80924D02*
D03*
X93777Y80035D02*
D03*
X100051Y72288D02*
D03*
X94187Y84400D02*
D03*
X97546Y71679D02*
D03*
X94454Y86148D02*
D03*
X94509Y87016D02*
D03*
X99939Y70958D02*
D03*
X99187Y70053D02*
D03*
X99949Y69291D02*
D03*
X93658Y87850D02*
D03*
X96774Y71704D02*
D03*
X100736Y68478D02*
D03*
X99933Y73279D02*
D03*
X98282Y70866D02*
D03*
X97498Y74028D02*
D03*
X103903Y71763D02*
D03*
X103200Y70866D02*
D03*
X103954Y70011D02*
D03*
X104672Y71720D02*
D03*
X104775Y75895D02*
D03*
X99441Y80747D02*
D03*
X97130Y73660D02*
D03*
X96901Y87046D02*
D03*
X100687Y89078D02*
D03*
X100167D02*
D03*
X99314Y85547D02*
D03*
X100061Y86182D02*
D03*
X92558Y84125D02*
D03*
X97561Y70053D02*
D03*
X99949Y71546D02*
D03*
X101506Y70028D02*
D03*
X100764Y70095D02*
D03*
X101946Y71984D02*
D03*
X100813Y83058D02*
D03*
X99970Y82114D02*
D03*
X100846Y69325D02*
D03*
X98374Y68580D02*
D03*
X97663Y87833D02*
D03*
X99187Y69317D02*
D03*
X98349Y70053D02*
D03*
X102449Y71730D02*
D03*
X102385Y70792D02*
D03*
X103962Y66872D02*
D03*
X100416Y85559D02*
D03*
X100076Y87020D02*
D03*
X100787Y86030D02*
D03*
X101625Y87071D02*
D03*
X102311Y88011D02*
D03*
X102636Y82147D02*
D03*
X103276Y83007D02*
D03*
X103192Y82254D02*
D03*
X102413Y87071D02*
D03*
X103175Y66878D02*
D03*
Y67666D02*
D03*
X103937Y69240D02*
D03*
X104821Y70896D02*
D03*
X103988Y68457D02*
D03*
X103175Y68478D02*
D03*
X102438Y86208D02*
D03*
X103165Y70050D02*
D03*
X99162Y70866D02*
D03*
X102362Y67691D02*
D03*
Y70079D02*
D03*
X102337Y66878D02*
D03*
Y68453D02*
D03*
X101549Y69240D02*
D03*
X95174Y70104D02*
D03*
X95961Y70866D02*
D03*
X98349Y69240D02*
D03*
X97561Y70866D02*
D03*
X96520Y65710D02*
D03*
X101575Y59690D02*
D03*
X93599Y65278D02*
D03*
X96809Y69289D02*
D03*
X103937Y58928D02*
D03*
X94539Y63322D02*
D03*
X105029Y59309D02*
D03*
X103988Y62103D02*
D03*
X94793Y68275D02*
D03*
X91999Y70891D02*
D03*
X93624Y70053D02*
D03*
D47*
X101371Y64084D02*
D03*
X101041Y61544D02*
D03*
X97815Y61595D02*
D03*
X99187Y60477D02*
D03*
X99720Y61544D02*
D03*
D48*
X103141Y59656D02*
D03*
X103988Y61290D02*
D03*
X95580Y68275D02*
D03*
D49*
X96953Y74060D02*
X97084Y73929D01*
X97158Y74145D02*
X97229Y74074D01*
X97084Y73706D02*
X97130Y73660D01*
X97452Y74074D02*
X97498Y74028D01*
X96953Y74060D02*
Y75020D01*
X97229Y74074D02*
X97452D01*
X97084Y73706D02*
Y73929D01*
X96446Y87217D02*
X98788Y89559D01*
X96241Y87302D02*
X98703Y89764D01*
X96241Y75732D02*
Y87302D01*
X96446Y75817D02*
Y87217D01*
X96241Y75732D02*
X96953Y75020D01*
X96446Y75817D02*
X97158Y75105D01*
X100529Y89300D02*
Y89486D01*
X100252Y89764D02*
X100529Y89486D01*
X100324Y89300D02*
Y89401D01*
X98788Y89559D02*
X100167D01*
X100324Y89401D01*
X98703Y89764D02*
X100252D01*
X97158Y74145D02*
Y75105D01*
X100687Y89078D02*
Y89142D01*
X100167D02*
X100324Y89300D01*
X100167Y89078D02*
Y89142D01*
X100529Y89300D02*
X100687Y89142D01*
%TF.MD5,84371c86fb6b9e0a44590fce95134d9e*%
M02*
