M48
;Layer_Color=9474304
;FILE_FORMAT=2:4
INCH,LZ
;TYPE=PLATED
T1F00S00C0.0080
T2F00S00C0.0118
T3F00S00C0.0354
%
T01
X03722Y02493
X03685Y0257
X038Y02587
X03763Y02688
X03732Y02688
X03686Y02758
X03622Y02791
X03625Y02835
X03841Y02758
X038114Y027279
X03794Y02425
X03851
X03926Y02423
X03978
X03986Y02456
X03991Y02523
X04062Y02633
X04094Y02445
Y02413
X04092Y0232
X04135Y02335
X040607Y023487
X03999Y0235
X04046Y02278
X03905Y02381
T02
X046882Y018622
X047079Y018819
X047276Y018622
Y019016
X046882
T03
X03184Y0246
Y0256
M30
