M48
;Layer_Color=9474304
;FILE_FORMAT=2:4
INCH,LZ
;TYPE=PLATED
T1F00S00C0.0080
%
T01
X04764Y01975
X048125Y019355
X049617Y019013
X049825Y01901
X049335Y024155
X04919Y02401
X0473Y02288
X04727Y02657
X04749Y02675
X0477Y02709
X0492Y02757
X04682Y02619
X04532Y02629
X0431Y02574
X04279Y025514
X04273Y0266
X041378Y02632
X04028Y02598
X039402Y026576
X03834Y026829
X03855Y026067
X03848Y02496
X03825Y0224
X03861Y02202
X039247Y021799
X040898Y022299
X04309Y01995
X043295
X04488Y02174
X0455Y02275
X04642Y02271
X04663Y02207
X0461Y0212
X04528Y02354
X0433Y02475
X043155Y024605
X045621Y01823
X037694Y019011
X03357Y02166
X03429Y02423
X03146Y02646
X03103Y02162
X03552Y03198
X035822Y033048
Y0341
X035407Y033742
X0361Y03534
X037836Y034942
X039153Y035083
X04014Y03497
X038828Y03369
X036913Y03186
M30
