M48
;Layer_Color=9474304
;FILE_FORMAT=2:4
INCH,LZ
;TYPE=PLATED
T1F00S00C0.0080
%
T01
X04764Y01975
X048125Y019355
X049617Y019013
X049825Y01901
X049335Y024155
X04919Y02401
X0492Y02757
X0477Y02709
X04749Y02675
X04727Y02657
X04682Y02619
X04532Y02629
X0431Y02574
X04279Y025514
X04273Y0266
X0433Y02475
X043155Y024605
X04028Y02598
X039402Y026576
X03966Y02696
X039703Y027293
X03998Y02726
X039963Y02757
X039671Y027597
X0403Y02759
X040309Y027871
X040334Y02824
X040136Y02834
X03939Y02846
X03935Y028168
X039346Y027936
X03905Y02758
Y02729
X03935Y02728
X03872Y02758
X03841Y0279
X038404Y02822
X0381Y02823
X03834Y026829
X03855Y026067
X03848Y02496
X03825Y0224
X03861Y02202
X039247Y021799
X040898Y022299
X04309Y01995
X043295
X043991Y019305
X044487Y017238
X045621Y01823
X0461Y0212
X037694Y019011
X03357Y02166
X03429Y02423
X03146Y02646
X039344Y02885
X03103Y02162
X03552Y03198
X035822Y033048
X03644Y03312
X037082Y033228
X037175Y032668
X037474Y03269
X03812Y03236
X03843Y03239
X038744Y03268
X03845Y03303
X03849Y03385
X038828Y03369
X03815Y03427
X03845Y03458
X03814Y034961
X037836Y034942
X03752Y03427
X037208Y034258
X03719Y03457
X036873Y034587
X036523Y034286
X035822Y0341
X035407Y033742
X037187Y033917
X036913Y03186
X03692Y03151
X03707Y0313
X0361Y03534
X039153Y035083
X04014Y03497
M30
