M48
;Layer_Color=9474304
;FILE_FORMAT=2:4
INCH,LZ
;TYPE=PLATED
T1F00S00C0.0080
%
T01
X040589Y023809
X04063Y02413
X04062Y02445
X0403Y02446
Y02414
X0413Y02444
X04093Y026328
X04062Y02664
Y02696
X04094Y026952
X04092Y02726
X040927Y027563
X040616Y027579
X04063Y0279
X040907Y028253
X041209Y028236
X041268Y027912
X04029Y02695
X0403Y02665
X04029Y02633
X03873Y027
X03872Y02726
X038694Y0279
X03904
X03778
X03747Y0276
X03824Y029
X038385Y029145
X03862Y031233
X04125Y02988
X040627Y032383
X040408Y032341
X04066Y03268
X03969Y0327
X03966Y03307
X03999Y03301
X039087Y033183
X0391Y03368
X039534Y033685
X03968Y03387
X039394Y03393
X0394Y03426
X04001Y03428
X04032
X04033Y03394
X04028Y03465
X039641Y03507
X039436
X039358Y032328
X03915Y03179
M30
